  0
SECTION
  2
HEADER
  9
$ACADVER
  1
AC1015
  9
$ACADMAINTVER
 70
     6
  9
$DWGCODEPAGE
  3
ANSI_1252
  9
$INSBASE
 10
0.0
 20
0.0
 30
0.0
  9
$EXTMIN
 10
0.0
 20
0.0
 30
0.0
  9
$EXTMAX
 10
200.0
 20
150.0
 30
0.0
  9
$LIMMIN
 10
0.0
 20
0.0
  9
$LIMMAX
 10
420.0
 20
297.0
  9
$ORTHOMODE
 70
     0
  9
$REGENMODE
 70
     1
  9
$FILLMODE
 70
     1
  9
$QTEXTMODE
 70
     0
  9
$MIRRTEXT
 70
     1
  9
$LTSCALE
 40
1.0
  9
$ATTMODE
 70
     1
  9
$TEXTSIZE
 40
3.5
  9
$TRACEWID
 40
1.0
  9
$TEXTSTYLE
  7
Standard
  9
$CLAYER
  8
0
  9
$CELTYPE
  6
ByLayer
  9
$CECOLOR
 62
   256
  9
$CELTSCALE
 40
1.0
  9
$DISPSILH
 70
     0
  9
$DIMSCALE
 40
1.0
  9
$DIMASZ
 40
3.302
  9
$DIMEXO
 40
0.0
  9
$DIMDLI
 40
3.75
  9
$DIMRND
 40
0.0
  9
$DIMDLE
 40
0.0
  9
$DIMEXE
 40
1.0
  9
$DIMTP
 40
0.0
  9
$DIMTM
 40
0.0
  9
$DIMTXT
 40
3.5
  9
$DIMCEN
 40
2.5
  9
$DIMTSZ
 40
0.0
  9
$DIMTOL
 70
     0
  9
$DIMLIM
 70
     0
  9
$DIMTIH
 70
     1
  9
$DIMTOH
 70
     1
  9
$DIMSE1
 70
     0
  9
$DIMSE2
 70
     0
  9
$DIMTAD
 70
     1
  9
$DIMZIN
 70
     1
  9
$DIMBLK
  1

  9
$DIMASO
 70
     1
  9
$DIMSHO
 70
     1
  9
$DIMPOST
  1

  9
$DIMAPOST
  1

  9
$DIMALT
 70
     0
  9
$DIMALTD
 70
     3
  9
$DIMALTF
 40
0.0393700787
  9
$DIMLFAC
 40
1.0
  9
$DIMTOFL
 70
     1
  9
$DIMTVP
 40
0.0
  9
$DIMTIX
 70
     0
  9
$DIMSOXD
 70
     0
  9
$DIMSAH
 70
     0
  9
$DIMBLK1
  1

  9
$DIMBLK2
  1

  9
$DIMSTYLE
  2
ISO-25
  9
$DIMCLRD
 70
     0
  9
$DIMCLRE
 70
     0
  9
$DIMCLRT
 70
     0
  9
$DIMTFAC
 40
1.0
  9
$DIMGAP
 40
1.524
  9
$DIMJUST
 70
     0
  9
$DIMSD1
 70
     0
  9
$DIMSD2
 70
     0
  9
$DIMTOLJ
 70
     0
  9
$DIMTZIN
 70
     1
  9
$DIMALTZ
 70
     0
  9
$DIMALTTZ
 70
     0
  9
$DIMUPT
 70
     0
  9
$DIMDEC
 70
     2
  9
$DIMTDEC
 70
     2
  9
$DIMALTU
 70
     2
  9
$DIMALTTD
 70
     3
  9
$DIMTXSTY
  7
Standard
  9
$DIMAUNIT
 70
     0
  9
$DIMADEC
 70
     2
  9
$DIMALTRND
 40
0.0
  9
$DIMAZIN
 70
     0
  9
$DIMDSEP
 70
    44
  9
$DIMATFIT
 70
     3
  9
$DIMFRAC
 70
     0
  9
$DIMLDRBLK
  1

  9
$DIMLUNIT
 70
     2
  9
$DIMLWD
 70
    -2
  9
$DIMLWE
 70
    -2
  9
$DIMTMOVE
 70
     0
  9
$LUNITS
 70
     2
  9
$LUPREC
 70
     2
  9
$SKETCHINC
 40
1.0
  9
$FILLETRAD
 40
0.0
  9
$AUNITS
 70
     0
  9
$AUPREC
 70
     2
  9
$MENU
  1
.
  9
$ELEVATION
 40
0.0
  9
$PELEVATION
 40
0.0
  9
$THICKNESS
 40
0.0
  9
$LIMCHECK
 70
     0
  9
$CHAMFERA
 40
0.0
  9
$CHAMFERB
 40
0.0
  9
$CHAMFERC
 40
0.0
  9
$CHAMFERD
 40
0.0
  9
$SKPOLY
 70
     0
  9
$TDCREATE
 40
2460627.832726898
  9
$TDUCREATE
 40
2460628.041060232
  9
$TDUPDATE
 40
2460627.832752871
  9
$TDUUPDATE
 40
2460628.041086204
  9
$TDINDWG
 40
0.0000000116
  9
$TDUSRTIMER
 40
0.0000000116
  9
$USRTIMER
 70
     1
  9
$ANGBASE
 50
0.0
  9
$ANGDIR
 70
     0
  9
$PDMODE
 70
     0
  9
$PDSIZE
 40
-1.0
  9
$PLINEWID
 40
0.0
  9
$SPLFRAME
 70
     0
  9
$SPLINETYPE
 70
     6
  9
$SPLINESEGS
 70
     8
  9
$HANDSEED
  5
14B
  9
$SURFTAB1
 70
     6
  9
$SURFTAB2
 70
     6
  9
$SURFTYPE
 70
     6
  9
$SURFU
 70
     6
  9
$SURFV
 70
     6
  9
$UCSBASE
  2

  9
$UCSNAME
  2

  9
$UCSORG
 10
0.0
 20
0.0
 30
0.0
  9
$UCSXDIR
 10
1.0
 20
0.0
 30
0.0
  9
$UCSYDIR
 10
0.0
 20
1.0
 30
0.0
  9
$UCSORTHOREF
  2

  9
$UCSORTHOVIEW
 70
     0
  9
$UCSORGTOP
 10
0.0
 20
0.0
 30
0.0
  9
$UCSORGBOTTOM
 10
0.0
 20
0.0
 30
0.0
  9
$UCSORGLEFT
 10
0.0
 20
0.0
 30
0.0
  9
$UCSORGRIGHT
 10
0.0
 20
0.0
 30
0.0
  9
$UCSORGFRONT
 10
0.0
 20
0.0
 30
0.0
  9
$UCSORGBACK
 10
0.0
 20
0.0
 30
0.0
  9
$PUCSBASE
  2

  9
$PUCSNAME
  2

  9
$PUCSORG
 10
0.0
 20
0.0
 30
0.0
  9
$PUCSXDIR
 10
1.0
 20
0.0
 30
0.0
  9
$PUCSYDIR
 10
0.0
 20
1.0
 30
0.0
  9
$PUCSORTHOREF
  2

  9
$PUCSORTHOVIEW
 70
     0
  9
$PUCSORGTOP
 10
0.0
 20
0.0
 30
0.0
  9
$PUCSORGBOTTOM
 10
0.0
 20
0.0
 30
0.0
  9
$PUCSORGLEFT
 10
0.0
 20
0.0
 30
0.0
  9
$PUCSORGRIGHT
 10
0.0
 20
0.0
 30
0.0
  9
$PUCSORGFRONT
 10
0.0
 20
0.0
 30
0.0
  9
$PUCSORGBACK
 10
0.0
 20
0.0
 30
0.0
  9
$USERI1
 70
     0
  9
$USERI2
 70
     0
  9
$USERI3
 70
     0
  9
$USERI4
 70
     0
  9
$USERI5
 70
     0
  9
$USERR1
 40
0.0
  9
$USERR2
 40
0.0
  9
$USERR3
 40
0.0
  9
$USERR4
 40
0.0
  9
$USERR5
 40
0.0
  9
$WORLDVIEW
 70
     1
  9
$SHADEDGE
 70
     3
  9
$SHADEDIF
 70
    70
  9
$TILEMODE
 70
     1
  9
$MAXACTVP
 70
    64
  9
$PINSBASE
 10
0.0
 20
0.0
 30
0.0
  9
$PLIMCHECK
 70
     0
  9
$PEXTMIN
 10
1.0000000000E+20
 20
1.0000000000E+20
 30
1.0000000000E+20
  9
$PEXTMAX
 10
-1.0000000000E+20
 20
-1.0000000000E+20
 30
-1.0000000000E+20
  9
$PLIMMIN
 10
0.0
 20
0.0
  9
$PLIMMAX
 10
420.0
 20
297.0
  9
$UNITMODE
 70
     0
  9
$VISRETAIN
 70
     1
  9
$PLINEGEN
 70
     0
  9
$PSLTSCALE
 70
     1
  9
$TREEDEPTH
 70
  3020
  9
$CMLSTYLE
  2
Standard
  9
$CMLJUST
 70
     0
  9
$CMLSCALE
 40
20.0
  9
$PROXYGRAPHICS
 70
     1
  9
$MEASUREMENT
 70
     1
  9
$CELWEIGHT
370
    -1
  9
$ENDCAPS
280
     0
  9
$JOINSTYLE
280
     0
  9
$LWDISPLAY
290
     1
  9
$INSUNITS
 70
     4
  9
$HYPERLINKBASE
  1

  9
$STYLESHEET
  1

  9
$XEDIT
290
     1
  9
$CEPSNTYPE
380
     0
  9
$PSTYLEMODE
290
     1
  9
$FINGERPRINTGUID
  2
{b52bf05b-bb42-468a-b399-81aa1294e428}
  9
$VERSIONGUID
  2
{FAEB1C32-E019-11D5-929B-00C0DF256EC4}
  9
$EXTNAMES
290
     1
  9
$PSVPSCALE
 40
0.0
  9
$OLESTARTUP
290
     0
  0
ENDSEC
  0
SECTION
  2
CLASSES
  0
CLASS
  1
ACDBDICTIONARYWDFLT
  2
AcDbDictionaryWithDefault
  3
ObjectDBX Classes
 90
        0
280
     0
281
     0
  0
CLASS
  1
VISUALSTYLE
  2
AcDbVisualStyle
  3
ObjectDBX Classes
 90
     4095
280
     0
281
     0
  0
CLASS
  1
MATERIAL
  2
AcDbMaterial
  3
ObjectDBX Classes
 90
     1153
280
     0
281
     0
  0
CLASS
  1
SCALE
  2
AcDbScale
  3
ObjectDBX Classes
 90
     1153
280
     0
281
     0
  0
CLASS
  1
TABLESTYLE
  2
AcDbTableStyle
  3
ObjectDBX Classes
 90
     4095
280
     0
281
     0
  0
CLASS
  1
MLEADERSTYLE
  2
AcDbMLeaderStyle
  3
ACDB_MLEADERSTYLE_CLASS
 90
     4095
280
     0
281
     0
  0
CLASS
  1
SUN
  2
AcDbSun
  3
SCENEOE
 90
     1153
280
     0
281
     0
  0
CLASS
  1
ACDBPLACEHOLDER
  2
AcDbPlaceHolder
  3
ObjectDBX Classes
 90
        0
280
     0
281
     0
  0
CLASS
  1
LAYOUT
  2
AcDbLayout
  3
ObjectDBX Classes
 90
        0
280
     0
281
     0
  0
ENDSEC
  0
SECTION
  2
TABLES
  0
TABLE
  2
VPORT
  5
8
330
0
100
AcDbSymbolTable
 70
     1
  0
VPORT
  5
29
330
8
100
AcDbSymbolTableRecord
100
AcDbViewportTableRecord
  2
*Active
 70
     0
 10
0.0
 20
0.0
 11
1.0
 21
1.0
 12
100.0
 22
75.0
 13
0.0
 23
0.0
 14
10.0
 24
10.0
 15
10.0
 25
10.0
 16
0.0
 26
0.0
 36
1.0
 17
0.0
 27
0.0
 37
0.0
 40
153.0
 41
1.3333333333
 42
50.0
 43
0.0
 44
0.0
 50
0.0
 51
0.0
 71
     0
 72
   100
 73
     1
 74
     3
 75
     0
 76
     0
 77
     0
 78
     0
281
     0
 65
     1
110
0.0
120
0.0
130
0.0
111
1.0
121
0.0
131
0.0
112
0.0
122
1.0
132
0.0
 79
     0
146
0.0
  0
ENDTAB
  0
TABLE
  2
LTYPE
  5
5
330
0
100
AcDbSymbolTable
 70
     6
  0
LTYPE
  5
14
330
5
100
AcDbSymbolTableRecord
100
AcDbLinetypeTableRecord
  2
ByBlock
 70
     0
  3

 72
    65
 73
     0
 40
0.0
  0
LTYPE
  5
15
330
5
100
AcDbSymbolTableRecord
100
AcDbLinetypeTableRecord
  2
ByLayer
 70
     0
  3

 72
    65
 73
     0
 40
0.0
  0
LTYPE
  5
16
330
5
100
AcDbSymbolTableRecord
100
AcDbLinetypeTableRecord
  2
Continuous
 70
     0
  3
Solid line
 72
    65
 73
     0
 40
0.0
  0
LTYPE
  5
5E
330
5
100
AcDbSymbolTableRecord
100
AcDbLinetypeTableRecord
  2
HIDDEN
 70
     0
  3
Hidden __ __ __ __ __ __ __ __ __ __ __ __ __ __
 72
    65
 73
     2
 40
1.905
 49
1.27
 74
     0
 49
-0.635
 74
     0
  0
LTYPE
  5
5F
330
5
100
AcDbSymbolTableRecord
100
AcDbLinetypeTableRecord
  2
PHANTOM
 70
     0
  3
Phantom ______  __  __  ______  __  __  ______
 72
    65
 73
     6
 40
12.7
 49
6.35
 74
     0
 49
-1.27
 74
     0
 49
1.27
 74
     0
 49
-1.27
 74
     0
 49
1.27
 74
     0
 49
-1.27
 74
     0
  0
LTYPE
  5
60
330
5
100
AcDbSymbolTableRecord
100
AcDbLinetypeTableRecord
  2
CENTER
 70
     0
  3
Center ____ _ ____ _ ____ _ ____ _ ____ _ ____
 72
    65
 73
     4
 40
10.16
 49
6.35
 74
     0
 49
-1.27
 74
     0
 49
1.27
 74
     0
 49
-1.27
 74
     0
  0
LTYPE
  5
61
330
5
100
AcDbSymbolTableRecord
100
AcDbLinetypeTableRecord
  2
CENTERX2
 70
     0
  3
Center (2x) ________  __  ________  __  _____
 72
    65
 73
     4
 40
20.32
 49
12.7
 74
     0
 49
-2.54
 74
     0
 49
2.54
 74
     0
 49
-2.54
 74
     0
  0
LTYPE
  5
62
330
5
100
AcDbSymbolTableRecord
100
AcDbLinetypeTableRecord
  2
DOT2
 70
     0
  3
Dot (.5x) ........................................
 72
    65
 73
     2
 40
0.635
 49
0.0
 74
     0
 49
-0.635
 74
     0
  0
ENDTAB
  0
TABLE
  2
LAYER
  5
2
330
0
100
AcDbSymbolTable
 70
     1
  0
LAYER
  5
10
330
2
100
AcDbSymbolTableRecord
100
AcDbLayerTableRecord
  2
0
 70
     0
 62
     7
  6
Continuous
370
    -3
390
F
  0
ENDTAB
  0
TABLE
  2
STYLE
  5
3
330
0
100
AcDbSymbolTable
 70
     2
  0
STYLE
  5
11
330
3
100
AcDbSymbolTableRecord
100
AcDbTextStyleTableRecord
  2
Standard
 70
     0
 40
0.0
 41
1.0
 50
0.0
 71
     0
 42
3.5
  3
txt
  4

  0
STYLE
  5
147
330
3
100
AcDbSymbolTableRecord
100
AcDbTextStyleTableRecord
  2
SLDTEXTSTYLE0
 70
     0
 40
0.0
 41
0.7
 50
0.0
 71
     0
 42
3.5
  3
TXT
  4

  0
ENDTAB
  0
TABLE
  2
VIEW
  5
6
330
0
100
AcDbSymbolTable
 70
     0
  0
ENDTAB
  0
TABLE
  2
UCS
  5
7
330
0
100
AcDbSymbolTable
 70
     0
  0
ENDTAB
  0
TABLE
  2
APPID
  5
9
330
0
100
AcDbSymbolTable
 70
     1
  0
APPID
  5
12
330
9
100
AcDbSymbolTableRecord
100
AcDbRegAppTableRecord
  2
ACAD
 70
     0
  0
ENDTAB
  0
TABLE
  2
DIMSTYLE
  5
A
330
0
100
AcDbSymbolTable
 70
     1
100
AcDbDimStyleTable
  0
DIMSTYLE
105
27
330
A
100
AcDbSymbolTableRecord
100
AcDbDimStyleTableRecord
  2
ISO-25
 70
     0
 41
2.5
 42
0.625
 43
3.75
 44
1.25
 73
     0
 74
     0
 77
     1
 78
     8
140
2.5
141
2.5
143
0.0393700787
147
0.625
171
     3
172
     1
178
     0
271
     2
272
     2
274
     3
278
    44
283
     0
284
     8
340
11
  0
ENDTAB
  0
TABLE
  2
BLOCK_RECORD
  5
1
330
0
100
AcDbSymbolTable
 70
     1
  0
BLOCK_RECORD
  5
1F
330
1
100
AcDbSymbolTableRecord
100
AcDbBlockTableRecord
  2
*Model_Space
340
22
  0
BLOCK_RECORD
  5
1B
330
1
100
AcDbSymbolTableRecord
100
AcDbBlockTableRecord
  2
*Paper_Space
340
1E
  0
BLOCK_RECORD
  5
23
330
1
100
AcDbSymbolTableRecord
100
AcDbBlockTableRecord
  2
*Paper_Space0
340
26
  0
ENDTAB
  0
ENDSEC
  0
SECTION
  2
BLOCKS
  0
BLOCK
  5
20
330
1F
100
AcDbEntity
  8
0
100
AcDbBlockBegin
  2
*Model_Space
 70
     0
 10
0.0
 20
0.0
 30
0.0
  3
*Model_Space
  1

  0
ENDBLK
  5
21
330
1F
100
AcDbEntity
  8
0
100
AcDbBlockEnd
  0
BLOCK
  5
1C
330
1B
100
AcDbEntity
 67
     1
  8
0
100
AcDbBlockBegin
  2
*Paper_Space
 70
     0
 10
0.0
 20
0.0
 30
0.0
  3
*Paper_Space
  1

  0
ENDBLK
  5
1D
330
1B
100
AcDbEntity
 67
     1
  8
0
100
AcDbBlockEnd
  0
BLOCK
  5
24
330
23
100
AcDbEntity
  8
0
100
AcDbBlockBegin
  2
*Paper_Space0
 70
     0
 10
0.0
 20
0.0
 30
0.0
  3
*Paper_Space0
  1

  0
ENDBLK
  5
25
330
23
100
AcDbEntity
  8
0
100
AcDbBlockEnd
  0
ENDSEC
  0
SECTION
  2
ENTITIES
  0
CIRCLE
  5
85
330
1F
100
AcDbEntity
  8
0
  6
Continuous
 62
     7
370
    25
100
AcDbCircle
 10
100.0
 20
88.7
 30
0.0
 40
1.100000000000009
  0
CIRCLE
  5
86
330
1F
100
AcDbEntity
  8
0
  6
Continuous
 62
     7
370
    25
100
AcDbCircle
 10
180.0
 20
88.7
 30
0.0
 40
1.100000000000037
  0
CIRCLE
  5
87
330
1F
100
AcDbEntity
  8
0
  6
Continuous
 62
     7
370
    25
100
AcDbCircle
 10
180.0
 20
10.0
 30
0.0
 40
1.100000000000042
  0
CIRCLE
  5
88
330
1F
100
AcDbEntity
  8
0
  6
Continuous
 62
     7
370
    25
100
AcDbCircle
 10
100.0
 20
10.0
 30
0.0
 40
1.10000000000001
  0
CIRCLE
  5
8C
330
1F
100
AcDbEntity
  8
0
  6
Continuous
 62
     7
370
    25
100
AcDbCircle
 10
35.0
 20
75.0
 30
0.0
 40
7.984999999999971
  0
CIRCLE
  5
8D
330
1F
100
AcDbEntity
  8
0
  6
Continuous
 62
     7
370
    25
100
AcDbCircle
 10
35.0
 20
35.0
 30
0.0
 40
7.984999999989803
  0
CIRCLE
  5
91
330
1F
100
AcDbEntity
  8
0
  6
Continuous
 62
     7
370
    25
100
AcDbCircle
 10
8.0
 20
26.0
 30
0.0
 40
3.300000000000001
  0
CIRCLE
  5
92
330
1F
100
AcDbEntity
  8
0
  6
Continuous
 62
     7
370
    25
100
AcDbCircle
 10
65.0
 20
10.0
 30
0.0
 40
1.200000000000026
  0
CIRCLE
  5
93
330
1F
100
AcDbEntity
  8
0
  6
Continuous
 62
     7
370
    25
100
AcDbCircle
 10
84.0
 20
48.4
 30
0.0
 40
1.200000000000003
  0
CIRCLE
  5
94
330
1F
100
AcDbEntity
  8
0
  6
Continuous
 62
     7
370
    25
100
AcDbCircle
 10
161.65
 20
104.35
 30
0.0
 40
3.174999999999997
  0
CIRCLE
  5
95
330
1F
100
AcDbEntity
  8
0
  6
Continuous
 62
     7
370
    25
100
AcDbCircle
 10
175.0
 20
130.0
 30
0.0
 40
3.175000000000011
  0
CIRCLE
  5
96
330
1F
100
AcDbEntity
  8
0
  6
Continuous
 62
     7
370
    25
100
AcDbCircle
 10
145.0
 20
130.0000000003
 30
0.0
 40
3.174999999999983
  0
CIRCLE
  5
97
330
1F
100
AcDbEntity
  8
0
  6
Continuous
 62
     7
370
    25
100
AcDbCircle
 10
140.0
 20
104.35
 30
0.0
 40
3.174999999999983
  0
CIRCLE
  5
AD
330
1F
100
AcDbEntity
  8
0
  6
Continuous
 62
     7
370
    25
100
AcDbCircle
 10
84.0
 20
10.0
 30
0.0
 40
1.200000000000014
  0
CIRCLE
  5
B1
330
1F
100
AcDbEntity
  8
0
  6
Continuous
 62
     7
370
    25
100
AcDbCircle
 10
20.0
 20
108.6
 30
0.0
 40
1.700000000000031
  0
CIRCLE
  5
B2
330
1F
100
AcDbEntity
  8
0
  6
Continuous
 62
     7
370
    25
100
AcDbCircle
 10
95.4
 20
108.6
 30
0.0
 40
1.699999999999989
  0
CIRCLE
  5
B3
330
1F
100
AcDbEntity
  8
0
  6
Continuous
 62
     7
370
    25
100
AcDbCircle
 10
65.0
 20
48.4
 30
0.0
 40
1.199999999999989
  0
CIRCLE
  5
B4
330
1F
100
AcDbEntity
  8
0
  6
Continuous
 62
     7
370
    25
100
AcDbCircle
 10
20.0
 20
140.0
 30
0.0
 40
1.700000000000045
  0
CIRCLE
  5
B7
330
1F
100
AcDbEntity
  8
0
  6
Continuous
 62
     7
370
    25
100
AcDbCircle
 10
192.0
 20
124.0
 30
0.0
 40
3.299999999911307
  0
CIRCLE
  5
BB
330
1F
100
AcDbEntity
  8
0
  6
Continuous
 62
     7
370
    25
100
AcDbCircle
 10
192.0
 20
26.0
 30
0.0
 40
3.299999999999997
  0
CIRCLE
  5
BC
330
1F
100
AcDbEntity
  8
0
  6
Continuous
 62
     7
370
    25
100
AcDbCircle
 10
95.4
 20
140.0
 30
0.0
 40
1.700000000000045
  0
CIRCLE
  5
BD
330
1F
100
AcDbEntity
  8
0
  6
Continuous
 62
     7
370
    25
100
AcDbCircle
 10
8.0
 20
124.0
 30
0.0
 40
3.299999999911364
  0
CIRCLE
  5
BE
330
1F
100
AcDbEntity
  8
0
  6
Continuous
 62
     7
370
    25
100
AcDbCircle
 10
118.35
 20
104.35
 30
0.0
 40
3.17499999999994
  0
SPLINE
  5
C1
330
1F
100
AcDbEntity
  8
0
  6
Continuous
 62
     7
370
    25
100
AcDbSpline
210
0.0
220
0.0
230
1.0
 70
     8
 71
     3
 72
    15
 73
    11
 74
     0
 42
0.00000001
 43
0.00000001
 40
0.0
 40
0.0
 40
0.0
 40
0.0
 40
0.0708548685015406
 40
0.1569381495573539
 40
0.2586003949600858
 40
0.3758909295892008
 40
0.5081661676989089
 40
0.6562378085782327
 40
0.8201767703979168
 40
1.0
 40
1.0
 40
1.0
 40
1.0
 10
37.65715583518611
 20
87.3041053500672
 30
0.0
 10
37.65242344182104
 20
87.28382817648837
 30
0.0
 10
37.6419415501261
 20
87.23891577784856
 30
0.0
 10
37.63175001228244
 20
87.16356725312679
 30
0.0
 10
37.62168049430593
 20
87.07454359436278
 30
0.0
 10
37.61458387595516
 20
86.97159700147921
 30
0.0
 10
37.6080058338279
 20
86.85498455755108
 30
0.0
 10
37.60429575160074
 20
86.72452861192745
 30
0.0
 10
37.601192611044
 20
86.5800952607854
 30
0.0
 10
37.60110954417311
 20
86.4791209075532
 30
0.0
 10
37.60106609159638
 20
86.42630086288773
 30
0.0
  0
SPLINE
  5
C2
330
1F
100
AcDbEntity
  8
0
  6
Continuous
 62
     7
370
    25
100
AcDbSpline
210
0.0
220
0.0
230
1.0
 70
     8
 71
     3
 72
    15
 73
    11
 74
     0
 42
0.00000001
 43
0.00000001
 40
0.0
 40
0.0
 40
0.0
 40
0.0
 40
0.0902792146500178
 40
0.1895299184469609
 40
0.2991978724002867
 40
0.4189258867738202
 40
0.5483762854012479
 40
0.6881363695386854
 40
0.8390835016589235
 40
1.0
 40
1.0
 40
1.0
 40
1.0
 10
31.47360068183988
 20
47.02157991517645
 30
0.0
 10
31.45793006765929
 20
47.0416267387798
 30
0.0
 10
31.42503157336936
 20
47.08371253734806
 30
0.0
 10
31.36847406077636
 20
47.14635777282353
 30
0.0
 10
31.30210794647095
 20
47.21097619177555
 30
0.0
 10
31.2282043915593
 20
47.2800352487249
 30
0.0
 10
31.14407130271866
 20
47.35032304541294
 30
0.0
 10
31.05234378831553
 20
47.42519132335188
 30
0.0
 10
30.9506799293494
 20
47.50179290039857
 30
0.0
 10
30.87938043273141
 20
47.5531654659451
 30
0.0
 10
30.84259106645526
 20
47.5796728638944
 30
0.0
  0
SPLINE
  5
C3
330
1F
100
AcDbEntity
  8
0
  6
Continuous
 62
     7
370
    25
100
AcDbSpline
210
0.0
220
0.0
230
1.0
 70
     8
 71
     3
 72
    19
 73
    15
 74
     0
 42
0.00000001
 43
0.00000001
 40
0.0
 40
0.0
 40
0.0
 40
0.0
 40
0.1072327993600902
 40
0.2132518127818496
 40
0.3188304473075859
 40
0.426793530634274
 40
0.483645950782722
 40
0.5436038220211411
 40
0.6083076495640846
 40
0.6771267602600425
 40
0.7506856360204969
 40
0.8287134184432868
 40
0.9121903482234572
 40
1.0
 40
1.0
 40
1.0
 40
1.0
 10
30.93584026517321
 20
49.40539401774056
 30
0.0
 10
30.97708436547122
 20
49.40397146614139
 30
0.0
 10
31.05910571721801
 20
49.40114246504179
 30
0.0
 10
31.17975493278757
 20
49.37654493372206
 30
0.0
 10
31.29591564918817
 20
49.33584426193406
 30
0.0
 10
31.38935891400768
 20
49.28965560395652
 30
0.0
 10
31.46249167546949
 20
49.24352418824324
 30
0.0
 10
31.51826440815842
 20
49.20150436396438
 30
0.0
 10
31.57478185894499
 20
49.15312925536021
 30
0.0
 10
31.63249991377373
 20
49.09827000927938
 30
0.0
 10
31.69044057321291
 20
49.03642325818977
 30
0.0
 10
31.74946402545706
 20
48.96801256928053
 30
0.0
 10
31.80970829426774
 20
48.89345601341616
 30
0.0
 10
31.84846415439166
 20
48.84023151266165
 30
0.0
 10
31.86833225235269
 20
48.8129461010739
 30
0.0
  0
SPLINE
  5
C4
330
1F
100
AcDbEntity
  8
0
  6
Continuous
 62
     7
370
    25
100
AcDbSpline
210
0.0
220
0.0
230
1.0
 70
     8
 71
     3
 72
    11
 73
     7
 74
     0
 42
0.00000001
 43
0.00000001
 40
0.0
 40
0.0
 40
0.0
 40
0.0
 40
0.2347233736739108
 40
0.4771583189289683
 40
0.7285562842030389
 40
1.0
 40
1.0
 40
1.0
 40
1.0
 10
31.49850198903227
 20
86.4291053500672
 30
0.0
 10
31.49702767833297
 20
86.45824619977468
 30
0.0
 10
31.49403062011996
 20
86.51748528892432
 30
0.0
 10
31.46869914004749
 20
86.60488494187827
 30
0.0
 10
31.42884989320405
 20
86.69137751190253
 30
0.0
 10
31.39208724949907
 20
86.7448787774803
 30
0.0
 10
31.37300118775022
 20
86.77265502955437
 30
0.0
  0
SPLINE
  5
C5
330
1F
100
AcDbEntity
  8
0
  6
Continuous
 62
     7
370
    25
100
AcDbSpline
210
0.0
220
0.0
230
1.0
 70
     8
 71
     3
 72
    15
 73
    11
 74
     0
 42
0.00000001
 43
0.00000001
 40
0.0
 40
0.0
 40
0.0
 40
0.0
 40
0.1335067689985213
 40
0.2625589787303642
 40
0.3882644471488754
 40
0.5126673546814273
 40
0.6337222699657594
 40
0.7553938601370952
 40
0.8775529450912787
 40
1.0
 40
1.0
 40
1.0
 40
1.0
 10
30.26907343825014
 20
48.05573456261236
 30
0.0
 10
30.253600893019
 20
48.07633559946656
 30
0.0
 10
30.22317205630364
 20
48.11685030323626
 30
0.0
 10
30.18300605083855
 20
48.18017516100397
 30
0.0
 10
30.14886688804016
 20
48.2449984264132
 30
0.0
 10
30.12210455590392
 20
48.31149429097779
 30
0.0
 10
30.09956833706435
 20
48.37872921985836
 30
0.0
 10
30.08441040634659
 20
48.44758046555798
 30
0.0
 10
30.07491900943079
 20
48.51773908402246
 30
0.0
 10
30.0739470228977
 20
48.56495258464498
 30
0.0
 10
30.07346045748091
 20
48.58858712671493
 30
0.0
  0
SPLINE
  5
C7
330
1F
100
AcDbEntity
  8
0
  6
Continuous
 62
     7
370
    25
100
AcDbSpline
210
0.0
220
0.0
230
1.0
 70
     8
 71
     3
 72
    15
 73
    11
 74
     0
 42
0.00000001
 43
0.00000001
 40
0.0
 40
0.0
 40
0.0
 40
0.0
 40
0.1072852142689635
 40
0.2147458609696422
 40
0.3229385595552832
 40
0.4341161625174712
 40
0.553412310962793
 40
0.6860729848107363
 40
0.8342559920595828
 40
1.0
 40
1.0
 40
1.0
 40
1.0
 10
30.38756302158346
 20
48.60331068440723
 30
0.0
 10
30.38795614821839
 20
48.58455920586677
 30
0.0
 10
30.38874304432761
 20
48.54702558642944
 30
0.0
 10
30.39971784201397
 20
48.49157416447546
 30
0.0
 10
30.41381717097181
 20
48.43626282505684
 30
0.0
 10
30.43615980272524
 20
48.38134024222267
 30
0.0
 10
30.46700510634101
 20
48.3258458831704
 30
0.0
 10
30.50751028224738
 20
48.26882414561187
 30
0.0
 10
30.55852359429735
 20
48.20977243693973
 30
0.0
 10
30.59760060664876
 20
48.17136506316482
 30
0.0
 10
30.6182320920963
 20
48.15108712671492
 30
0.0
  0
SPLINE
  5
C8
330
1F
100
AcDbEntity
  8
0
  6
Continuous
 62
     7
370
    25
100
AcDbSpline
210
0.0
220
0.0
230
1.0
 70
     8
 71
     3
 72
    15
 73
    11
 74
     0
 42
0.00000001
 43
0.00000001
 40
0.0
 40
0.0
 40
0.0
 40
0.0
 40
0.0525942815291376
 40
0.1249519739750395
 40
0.2180938989285923
 40
0.3335024107325206
 40
0.4687891785044458
 40
0.6249375859645965
 40
0.8016830479282278
 40
1.0
 40
1.0
 40
1.0
 40
1.0
 10
30.6182320920963
 20
48.15108712671492
 30
0.0
 10
30.62589346450398
 20
48.1442501008991
 30
0.0
 10
30.6440951316409
 20
48.12800689256983
 30
0.0
 10
30.67737105738057
 20
48.10141461192611
 30
0.0
 10
30.7213138556105
 20
48.06861183963083
 30
0.0
 10
30.77477605678736
 20
48.02802452315603
 30
0.0
 10
30.8387434185144
 20
47.98094306103877
 30
0.0
 10
30.91322297465901
 20
47.92796944887498
 30
0.0
 10
30.99738450749394
 20
47.86738398986807
 30
0.0
 10
31.05710642339353
 20
47.82502644925815
 30
0.0
 10
31.08868481645527
 20
47.80262959466364
 30
0.0
  0
SPLINE
  5
C9
330
1F
100
AcDbEntity
  8
0
  6
Continuous
 62
     7
370
    25
100
AcDbSpline
210
0.0
220
0.0
230
1.0
 70
     8
 71
     3
 72
    19
 73
    15
 74
     0
 42
0.00000001
 43
0.00000001
 40
0.0
 40
0.0
 40
0.0
 40
0.0
 40
0.0984694310255571
 40
0.189629101137633
 40
0.2741840894379687
 40
0.3521831609671519
 40
0.4231988731834691
 40
0.4885509460005352
 40
0.5484733460279397
 40
0.6014401636178729
 40
0.701198082425769
 40
0.7995918021381834
 40
0.8985450984822301
 40
1.0
 40
1.0
 40
1.0
 40
1.0
 10
31.58437792542962
 20
48.59770171004825
 30
0.0
 10
31.5672319929573
 20
48.61979040047087
 30
0.0
 10
31.53421293588518
 20
48.66232805369506
 30
0.0
 10
31.48408344902467
 20
48.72189936930133
 30
0.0
 10
31.4368348011044
 20
48.77631584883328
 30
0.0
 10
31.39028440132019
 20
48.82358097686332
 30
0.0
 10
31.34689076985427
 20
48.86628311020119
 30
0.0
 10
31.30477372760732
 20
48.90284286702565
 30
0.0
 10
31.2645393763699
 20
48.93361846245575
 30
0.0
 10
31.21382246572387
 20
48.96646202241491
 30
0.0
 10
31.15010474740068
 20
48.99901852596967
 30
0.0
 10
31.07012021116135
 20
49.02656760404739
 30
0.0
 10
30.98653393612638
 20
49.04312266596618
 30
0.0
 10
30.92960430463569
 20
49.04531155353401
 30
0.0
 10
30.90078417542963
 20
49.0464196587662
 30
0.0
  0
SPLINE
  5
CA
330
1F
100
AcDbEntity
  8
0
  6
Continuous
 62
     7
370
    25
100
AcDbSpline
210
0.0
220
0.0
230
1.0
 70
     8
 71
     3
 72
    23
 73
    19
 74
     0
 42
0.00000001
 43
0.00000001
 40
0.0
 40
0.0
 40
0.0
 40
0.0
 40
0.0614842551968899
 40
0.1217745277022101
 40
0.1809195598139312
 40
0.2402561150782727
 40
0.3001144444023551
 40
0.3611459476126166
 40
0.4235005824125845
 40
0.4886693612807207
 40
0.5539541046535634
 40
0.6175812610152656
 40
0.6802384268167443
 40
0.7421873887724539
 40
0.8046632117692925
 40
0.8682589893126645
 40
0.9330202571803758
 40
1.0
 40
1.0
 40
1.0
 40
1.0
 10
31.81260455313484
 20
86.42419749750312
 30
0.0
 10
31.81194741501088
 20
86.39281913240751
 30
0.0
 10
31.81064589994131
 20
86.33067174886443
 30
0.0
 10
31.79568498616267
 20
86.23941667198228
 30
0.0
 10
31.77376532100012
 20
86.15078580229834
 30
0.0
 10
31.74072808704957
 20
86.06587468985333
 30
0.0
 10
31.70040492878967
 20
85.98312992716986
 30
0.0
 10
31.64923868092365
 20
85.90472202675896
 30
0.0
 10
31.58993099618596
 20
85.82891562817203
 30
0.0
 10
31.52189723128157
 20
85.75773213681686
 30
0.0
 10
31.44745132896505
 20
85.69238594083146
 30
0.0
 10
31.3687676343023
 20
85.63425687935896
 30
0.0
 10
31.28571736136814
 20
85.58578855596365
 30
0.0
 10
31.19875104468489
 20
85.54623771391375
 30
0.0
 10
31.10784870797785
 20
85.51530419638749
 30
0.0
 10
31.01304092414332
 20
85.49289132725657
 30
0.0
 10
30.91417141292378
 20
85.47913561634311
 30
0.0
 10
30.84697093135129
 20
85.47770785487849
 30
0.0
 10
30.81280487364765
 20
85.4769819526313
 30
0.0
  0
SPLINE
  5
CB
330
1F
100
AcDbEntity
  8
0
  6
Continuous
 62
     7
370
    25
100
AcDbSpline
210
0.0
220
0.0
230
1.0
 70
     8
 71
     3
 72
    15
 73
    11
 74
     0
 42
0.00000001
 43
0.00000001
 40
0.0
 40
0.0
 40
0.0
 40
0.0
 40
0.0902792146500114
 40
0.1895299184469606
 40
0.2991978724002864
 40
0.4189258867738255
 40
0.5483762854012478
 40
0.6881363695386854
 40
0.8390835016589187
 40
1.0
 40
1.0
 40
1.0
 40
1.0
 10
31.37300118775022
 20
86.77265502955437
 30
0.0
 10
31.35733057356963
 20
86.79270185315771
 30
0.0
 10
31.32443207927968
 20
86.83478765172596
 30
0.0
 10
31.2678745666867
 20
86.89743288720145
 30
0.0
 10
31.20150845238129
 20
86.96205130615347
 30
0.0
 10
31.12760489746963
 20
87.03111036310283
 30
0.0
 10
31.04347180862901
 20
87.10139815979086
 30
0.0
 10
30.95174429422587
 20
87.1762664377298
 30
0.0
 10
30.85008043525973
 20
87.25286801477648
 30
0.0
 10
30.77878093864175
 20
87.30424058032304
 30
0.0
 10
30.7419915723656
 20
87.33074797827233
 30
0.0
  0
SPLINE
  5
CC
330
1F
100
AcDbEntity
  8
0
  6
Continuous
 62
     7
370
    25
100
AcDbSpline
210
0.0
220
0.0
230
1.0
 70
     8
 71
     3
 72
    15
 73
    11
 74
     0
 42
0.00000001
 43
0.00000001
 40
0.0
 40
0.0
 40
0.0
 40
0.0
 40
0.1342983790141722
 40
0.262084975382303
 40
0.3862699121345011
 40
0.5071645966228002
 40
0.6273002357255103
 40
0.7481449416029944
 40
0.8723701771613507
 40
1.0
 40
1.0
 40
1.0
 40
1.0
 10
36.34465583518612
 20
86.009133394939
 30
0.0
 10
36.30923704455996
 20
85.96909380098117
 30
0.0
 10
36.24011682927911
 20
85.89095602989423
 30
0.0
 10
36.12467571130763
 20
85.78887385740344
 30
0.0
 10
36.00230753340517
 20
85.70449553586343
 30
0.0
 10
35.87360621227445
 20
85.63634562016303
 30
0.0
 10
35.73868796892985
 20
85.58515356382566
 30
0.0
 10
35.59785188165357
 20
85.54876740469986
 30
0.0
 10
35.45104050078804
 20
85.52537356952762
 30
0.0
 10
35.35078814599804
 20
85.52303754765856
 30
0.0
 10
35.29998436082714
 20
85.5218537475031
 30
0.0
  0
SPLINE
  5
CD
330
1F
100
AcDbEntity
  8
0
  6
Continuous
 62
     7
370
    25
100
AcDbSpline
210
0.0
220
0.0
230
1.0
 70
     8
 71
     3
 72
    15
 73
    11
 74
     0
 42
0.00000001
 43
0.00000001
 40
0.0
 40
0.0
 40
0.0
 40
0.0
 40
0.1430730837303619
 40
0.2759029640930132
 40
0.4023708562739957
 40
0.5284136450935988
 40
0.6503563791869572
 40
0.7658950861246961
 40
0.88077413084402
 40
1.0
 40
1.0
 40
1.0
 40
1.0
 10
30.90078417542963
 20
49.0464196587662
 30
0.0
 10
30.86462765302414
 20
49.04520795881432
 30
0.0
 10
30.79490320560982
 20
49.0428713096026
 30
0.0
 10
30.69591296950225
 20
49.01735132431094
 30
0.0
 10
30.606819044439
 20
48.9771694640051
 30
0.0
 10
30.5302664793828
 20
48.92085448590942
 30
0.0
 10
30.46652950233975
 20
48.8541334932243
 30
0.0
 10
30.42042404357487
 20
48.7773546381494
 30
0.0
 10
30.39267387902281
 20
48.69257223554487
 30
0.0
 10
30.38928759937178
 20
48.63343057921315
 30
0.0
 10
30.38756302158346
 20
48.60331068440723
 30
0.0
  0
SPLINE
  5
CE
330
1F
100
AcDbEntity
  8
0
  6
Continuous
 62
     7
370
    25
100
AcDbSpline
210
0.0
220
0.0
230
1.0
 70
     8
 71
     3
 72
    19
 73
    15
 74
     0
 42
0.00000001
 43
0.00000001
 40
0.0
 40
0.0
 40
0.0
 40
0.0
 40
0.0969723103815173
 40
0.187773438962868
 40
0.2723961390136915
 40
0.3513209973752903
 40
0.4243347744514667
 40
0.4919087840005263
 40
0.5542332197968012
 40
0.6112676582441557
 40
0.7163478449915548
 40
0.8145400858216131
 40
0.9084954561491846
 40
1.0
 40
1.0
 40
1.0
 40
1.0
 10
31.08868481645527
 20
47.80262959466364
 30
0.0
 10
31.12667072976268
 20
47.77498823511392
 30
0.0
 10
31.20022518614117
 20
47.72146457336098
 30
0.0
 10
31.30488276605269
 20
47.64104889333355
 30
0.0
 10
31.39977657414755
 20
47.56240112475927
 30
0.0
 10
31.48523977771771
 20
47.48602351766317
 30
0.0
 10
31.56211668615748
 20
47.41249542465953
 30
0.0
 10
31.62955440683227
 20
47.34093224432933
 30
0.0
 10
31.68824008717947
 20
47.27184667164713
 30
0.0
 10
31.7514193056396
 20
47.18327409595594
 30
0.0
 10
31.81597712516009
 20
47.07449301168161
 30
0.0
 10
31.87141863258621
 20
46.94121477313632
 30
0.0
 10
31.90637698004079
 20
46.80741845263937
 30
0.0
 10
31.91094849547273
 20
46.7174916161643
 30
0.0
 10
31.9132040472245
 20
46.67312238312518
 30
0.0
  0
SPLINE
  5
CF
330
1F
100
AcDbEntity
  8
0
  6
Continuous
 62
     7
370
    25
100
AcDbSpline
210
0.0
220
0.0
230
1.0
 70
     8
 71
     3
 72
    15
 73
    11
 74
     0
 42
0.00000001
 43
0.00000001
 40
0.0
 40
0.0
 40
0.0
 40
0.0
 40
0.1590042985173801
 40
0.3046460998968105
 40
0.4385469045795875
 40
0.5623222987759253
 40
0.6774325425257282
 40
0.786897392938753
 40
0.8936108891042676
 40
1.0
 40
1.0
 40
1.0
 40
1.0
 10
30.04437538646816
 20
86.41928964493898
 30
0.0
 10
30.0718936237187
 20
86.37322525999188
 30
0.0
 10
30.12461750434695
 20
86.28496767608291
 30
0.0
 10
30.21256886349945
 20
86.16570963565415
 30
0.0
 10
30.30370177466536
 20
86.06434747889516
 30
0.0
 10
30.39869110821481
 20
85.98147087135534
 30
0.0
 10
30.49695705633719
 20
85.91622198460772
 30
0.0
 10
30.59914111007386
 20
85.87001975288915
 30
0.0
 10
30.70489892078533
 20
85.84120377751783
 30
0.0
 10
30.77687274226476
 20
85.8377036909632
 30
0.0
 10
30.81280487364765
 20
85.83595631160567
 30
0.0
  0
SPLINE
  5
D0
330
1F
100
AcDbEntity
  8
0
  6
Continuous
 62
     7
370
    25
100
AcDbSpline
210
0.0
220
0.0
230
1.0
 70
     8
 71
     3
 72
    23
 73
    19
 74
     0
 42
0.00000001
 43
0.00000001
 40
0.0
 40
0.0
 40
0.0
 40
0.0
 40
0.0650810177750298
 40
0.1286360505630783
 40
0.1906529019116446
 40
0.2521250372681096
 40
0.313446275646377
 40
0.3752272792333939
 40
0.4384980827328629
 40
0.503285099934038
 40
0.5680096868463688
 40
0.6308789816949777
 40
0.6921535040082771
 40
0.7525521497156007
 40
0.8131910939047715
 40
0.8739853995183327
 40
0.9362579468344595
 40
1.0
 40
1.0
 40
1.0
 40
1.0
 10
38.69024731645527
 20
48.41821453056107
 30
0.0
 10
38.73563891965241
 20
48.41690135166937
 30
0.0
 10
38.82535780794932
 20
48.41430578460407
 30
0.0
 10
38.95742103687883
 20
48.39673273003682
 30
0.0
 10
39.08459642040387
 20
48.36661503760389
 30
0.0
 10
39.20616447438032
 20
48.32321412223911
 30
0.0
 10
39.3234275395665
 20
48.26955865230411
 30
0.0
 10
39.4346496394021
 20
48.20184161672691
 30
0.0
 10
39.54156319503039
 20
48.12343542593508
 30
0.0
 10
39.64147938413378
 20
48.03320327511431
 30
0.0
 10
39.73380075165964
 20
47.93557500869653
 30
0.0
 10
39.81364693277769
 20
47.83055270456282
 30
0.0
 10
39.88251883709231
 20
47.72159011816378
 30
0.0
 10
39.93818913355472
 20
47.60699802593849
 30
0.0
 10
39.98179748096997
 20
47.48767879610165
 30
0.0
 10
40.01281215860832
 20
47.36315035519223
 30
0.0
 10
40.03126980209444
 20
47.2338744147495
 30
0.0
 10
40.03374625375192
 20
47.14597169418397
 30
0.0
 10
40.03499891901937
 20
47.10150779979185
 30
0.0
  0
SPLINE
  5
D1
330
1F
100
AcDbEntity
  8
0
  6
Continuous
 62
     7
370
    25
100
AcDbSpline
210
0.0
220
0.0
230
1.0
 70
     8
 71
     3
 72
    19
 73
    15
 74
     0
 42
0.00000001
 43
0.00000001
 40
0.0
 40
0.0
 40
0.0
 40
0.0
 40
0.0837853706537059
 40
0.1657798879221448
 40
0.2462800078932638
 40
0.3274609277363901
 40
0.4087969540320683
 40
0.4897152412309904
 40
0.571376032130053
 40
0.6555233211112754
 40
0.7410194827999715
 40
0.8265467605037592
 40
0.9119888516548335
 40
1.0
 40
1.0
 40
1.0
 40
1.0
 10
29.97286096339124
 20
88.33966224109284
 30
0.0
 10
29.9741661723846
 20
88.37669201565755
 30
0.0
 10
29.97674869244685
 20
88.44996007939258
 30
0.0
 10
29.99858920971726
 20
88.55699090983465
 30
0.0
 10
30.03306210337175
 20
88.65917732705223
 30
0.0
 10
30.08135699123333
 20
88.75550766077696
 30
0.0
 10
30.14361434415158
 20
88.84347364166518
 30
0.0
 10
30.21566031851678
 20
88.9240871286472
 30
0.0
 10
30.30147180475425
 20
88.99185571086807
 30
0.0
 10
30.39562442801766
 20
89.05106776925729
 30
0.0
 10
30.49868080010035
 20
89.0974136944644
 30
0.0
 10
30.60667170349796
 20
89.13237467462481
 30
0.0
 10
30.71976877552317
 20
89.15218393231585
 30
0.0
 10
30.79637191014659
 20
89.15502669722846
 30
0.0
 10
30.83524077108354
 20
89.15646913211849
 30
0.0
  0
SPLINE
  5
D2
330
1F
100
AcDbEntity
  8
0
  6
Continuous
 62
     7
370
    25
100
AcDbSpline
210
0.0
220
0.0
230
1.0
 70
     8
 71
     3
 72
    15
 73
    11
 74
     0
 42
0.00000001
 43
0.00000001
 40
0.0
 40
0.0
 40
0.0
 40
0.0
 40
0.1281572795931873
 40
0.2538343627967331
 40
0.3765056225222077
 40
0.4985336856679094
 40
0.621367728732464
 40
0.7445647449043571
 40
0.8706337982552802
 40
1.0
 40
1.0
 40
1.0
 40
1.0
 10
36.36392520107065
 20
47.99684033184312
 30
0.0
 10
36.3919071551356
 20
47.9646263460537
 30
0.0
 10
36.44732953537362
 20
47.90082180383838
 30
0.0
 10
36.518395254163
 20
47.79736619087599
 30
0.0
 10
36.57961681432042
 20
47.69022609028433
 30
0.0
 10
36.62867977530712
 20
47.57797876361306
 30
0.0
 10
36.66736479899232
 20
47.4616040924595
 30
0.0
 10
36.69483049524763
 20
47.34070208130071
 30
0.0
 10
36.71116743018804
 20
47.21553973413713
 30
0.0
 10
36.71337039712969
 20
47.13053589606011
 30
0.0
 10
36.71448609850655
 20
47.08748536389441
 30
0.0
  0
SPLINE
  5
D3
330
1F
100
AcDbEntity
  8
0
  6
Continuous
 62
     7
370
    25
100
AcDbSpline
210
0.0
220
0.0
230
1.0
 70
     8
 71
     3
 72
    15
 73
    11
 74
     0
 42
0.00000001
 43
0.00000001
 40
0.0
 40
0.0
 40
0.0
 40
0.0
 40
0.1815353013762881
 40
0.3470816724816326
 40
0.4955678164315525
 40
0.6283573018772083
 40
0.7455196699921557
 40
0.8458307507576499
 40
0.9307818073847564
 40
0.9999999999999999
 40
0.9999999999999999
 40
0.9999999999999999
 40
0.9999999999999999
 10
30.7419915723656
 20
87.33074797827233
 30
0.0
 10
30.70516757618655
 20
87.35697656589166
 30
0.0
 10
30.63476289960637
 20
87.40712362813646
 30
0.0
 10
30.53630431726
 20
87.48154791215009
 30
0.0
 10
30.44825985425009
 20
87.54959178169199
 30
0.0
 10
30.37102083772677
 20
87.61189579379456
 30
0.0
 10
30.30462124088072
 20
87.66846839852444
 30
0.0
 10
30.24853782986656
 20
87.71876633766655
 30
0.0
 10
30.204199272771
 20
87.76414989853492
 30
0.0
 10
30.17954369211248
 20
87.79359124028008
 30
0.0
 10
30.16847394416047
 20
87.80680967699028
 30
0.0
  0
SPLINE
  5
D4
330
1F
100
AcDbEntity
  8
0
  6
Continuous
 62
     7
370
    25
100
AcDbSpline
210
0.0
220
0.0
230
1.0
 70
     8
 71
     3
 72
    11
 73
     7
 74
     0
 42
0.00000001
 43
0.00000001
 40
0.0
 40
0.0
 40
0.0
 40
0.0
 40
0.2252775478670098
 40
0.4635231951764772
 40
0.7203235553269206
 40
1.0
 40
1.0
 40
1.0
 40
1.0
 10
38.22506448903227
 20
88.16928964493898
 30
0.0
 10
38.24689081551896
 20
88.16809911834407
 30
0.0
 10
38.2917999007246
 20
88.16564953250457
 30
0.0
 10
38.35978249052884
 20
88.14843870786268
 30
0.0
 10
38.42982594243844
 20
88.12096068530968
 30
0.0
 10
38.47496832968899
 20
88.09512046264472
 30
0.0
 10
38.49850198903227
 20
88.08164942058
 30
0.0
  0
SPLINE
  5
D5
330
1F
100
AcDbEntity
  8
0
  6
Continuous
 62
     7
370
    25
100
AcDbSpline
210
0.0
220
0.0
230
1.0
 70
     8
 71
     3
 72
    23
 73
    19
 74
     0
 42
0.00000001
 43
0.00000001
 40
0.0
 40
0.0
 40
0.0
 40
0.0
 40
0.0646199913407683
 40
0.1274334841444684
 40
0.1890041265579397
 40
0.2499300706860461
 40
0.3106684537406705
 40
0.3723289611368253
 40
0.4349391099970052
 40
0.4995755441940302
 40
0.5641912077719242
 40
0.6267352169294785
 40
0.6881093335613996
 40
0.7492936065367517
 40
0.8103305278109421
 40
0.8719011702244142
 40
0.9350459146845308
 40
1.0
 40
1.0
 40
1.0
 40
1.0
 10
35.29998436082714
 20
85.5218537475031
 30
0.0
 10
35.2548164069946
 20
85.52308011977225
 30
0.0
 10
35.16574320210661
 20
85.52549858018789
 30
0.0
 10
35.0347141249677
 20
85.54426088380617
 30
0.0
 10
34.90862187551504
 20
85.57439150544822
 30
0.0
 10
34.78734730285326
 20
85.61629239494002
 30
0.0
 10
34.67167515741913
 20
85.67187321657816
 30
0.0
 10
34.56061506074684
 20
85.73841446461961
 30
0.0
 10
34.45474236872771
 20
85.81765529470026
 30
0.0
 10
34.35567082976387
 20
85.90824332305313
 30
0.0
 10
34.26443882938797
 20
86.00663831023675
 30
0.0
 10
34.18437755676579
 20
86.1115838571119
 30
0.0
 10
34.11762447691101
 20
86.22262616100451
 30
0.0
 10
34.06180439620377
 20
86.33835931489327
 30
0.0
 10
34.01880805176302
 20
86.45967423442728
 30
0.0
 10
33.98883441750512
 20
86.58615140236711
 30
0.0
 10
33.97009397080444
 20
86.71764127590693
 30
0.0
 10
33.96767651011947
 20
86.80718079900254
 30
0.0
 10
33.96645070698099
 20
86.85258291416976
 30
0.0
  0
SPLINE
  5
D6
330
1F
100
AcDbEntity
  8
0
  6
Continuous
 62
     7
370
    25
100
AcDbSpline
210
0.0
220
0.0
230
1.0
 70
     8
 71
     3
 72
    23
 73
    19
 74
     0
 42
0.00000001
 43
0.00000001
 40
0.0
 40
0.0
 40
0.0
 40
0.0
 40
0.0687422616054883
 40
0.1346351922242766
 40
0.1983241870671482
 40
0.2608250125604211
 40
0.3227135881590255
 40
0.3845545346076207
 40
0.4469128577247558
 40
0.5109576325148285
 40
0.5749307010013374
 40
0.6366845377960931
 40
0.697483115294063
 40
0.7571338075238555
 40
0.8169656636752652
 40
0.8768183516571962
 40
0.937662580384002
 40
1.0
 40
1.0
 40
1.0
 40
1.0
 10
35.39217039337834
 20
45.77077863312518
 30
0.0
 10
35.3444356738694
 20
45.77199982934287
 30
0.0
 10
35.25094481414555
 20
45.77439160383024
 30
0.0
 10
35.11421883222226
 20
45.79286888655979
 30
0.0
 10
34.98422921328742
 20
45.82362686912928
 30
0.0
 10
34.86100061476802
 20
45.86749436185927
 30
0.0
 10
34.74385576781292
 20
45.92278890560874
 30
0.0
 10
34.63406927086354
 20
45.99140059518687
 30
0.0
 10
34.53086935534768
 20
46.07196075042533
 30
0.0
 10
34.43579737093177
 20
46.16409668747517
 30
0.0
 10
34.3497987656057
 20
46.26410664380289
 30
0.0
 10
34.27392575725447
 20
46.3692566822964
 30
0.0
 10
34.21003543110443
 20
46.47866677573364
 30
0.0
 10
34.15767722722231
 20
46.59254946067438
 30
0.0
 10
34.11684541430421
 20
46.71040819246328
 30
0.0
 10
34.08831432163589
 20
46.8326030049231
 30
0.0
 10
34.06997070706996
 20
46.95862237345979
 30
0.0
 10
34.06803153851467
 20
47.04418530640662
 30
0.0
 10
34.06705020107065
 20
47.08748536389441
 30
0.0
  0
SPLINE
  5
D7
330
1F
100
AcDbEntity
  8
0
  6
Continuous
 62
     7
370
    25
100
AcDbSpline
210
0.0
220
0.0
230
1.0
 70
     8
 71
     3
 72
    15
 73
    11
 74
     0
 42
0.00000001
 43
0.00000001
 40
0.0
 40
0.0
 40
0.0
 40
0.0
 40
0.1815353013762892
 40
0.3470816724816291
 40
0.4955678164315557
 40
0.628357301877218
 40
0.7455196699921542
 40
0.845830750757649
 40
0.9307818073847559
 40
0.9999999999999999
 40
0.9999999999999999
 40
0.9999999999999999
 40
0.9999999999999999
 10
30.84259106645526
 20
47.5796728638944
 30
0.0
 10
30.80576707027621
 20
47.60590145151373
 30
0.0
 10
30.73536239369604
 20
47.65604851375854
 30
0.0
 10
30.63690381134968
 20
47.73047279777217
 30
0.0
 10
30.54885934833974
 20
47.79851666731408
 30
0.0
 10
30.47162033181644
 20
47.8608206794166
 30
0.0
 10
30.40522073497037
 20
47.91739328414647
 30
0.0
 10
30.34913732395622
 20
47.96769122328865
 30
0.0
 10
30.30479876686067
 20
48.013074784157
 30
0.0
 10
30.28014318620215
 20
48.04251612590216
 30
0.0
 10
30.26907343825014
 20
48.05573456261236
 30
0.0
  0
SPLINE
  5
D8
330
1F
100
AcDbEntity
  8
0
  6
Continuous
 62
     7
370
    25
100
AcDbSpline
210
0.0
220
0.0
230
1.0
 70
     8
 71
     3
 72
    15
 73
    11
 74
     0
 42
0.00000001
 43
0.00000001
 40
0.0
 40
0.0
 40
0.0
 40
0.0
 40
0.1430730837303607
 40
0.2759029640930109
 40
0.4023708562739962
 40
0.5284136450935928
 40
0.6503563791869436
 40
0.7658950861246894
 40
0.8807741308440209
 40
0.9999999999999999
 40
0.9999999999999999
 40
0.9999999999999999
 40
0.9999999999999999
 10
30.80018468133996
 20
88.79749477314412
 30
0.0
 10
30.7640281589345
 20
88.79628307319224
 30
0.0
 10
30.69430371152016
 20
88.79394642398054
 30
0.0
 10
30.59531347541258
 20
88.76842643868885
 30
0.0
 10
30.50621955034934
 20
88.728244578383
 30
0.0
 10
30.42966698529315
 20
88.67192960028737
 30
0.0
 10
30.36593000825008
 20
88.6052086076022
 30
0.0
 10
30.3198245494852
 20
88.52842975252734
 30
0.0
 10
30.29207438493314
 20
88.44364734992277
 30
0.0
 10
30.2886881052821
 20
88.38450569359108
 30
0.0
 10
30.28696352749381
 20
88.35438579878516
 30
0.0
  0
SPLINE
  5
D9
330
1F
100
AcDbEntity
  8
0
  6
Continuous
 62
     7
370
    25
100
AcDbSpline
210
0.0
220
0.0
230
1.0
 70
     8
 71
     3
 72
    11
 73
     7
 74
     0
 42
0.00000001
 43
0.00000001
 40
0.0
 40
0.0
 40
0.0
 40
0.0
 40
0.234723373673906
 40
0.4771583189289946
 40
0.72855628420306
 40
1.0
 40
1.0
 40
1.0
 40
1.0
 10
31.59910148312195
 20
46.67803023568928
 30
0.0
 10
31.59762717242263
 20
46.70717108539674
 30
0.0
 10
31.59463011420963
 20
46.7664101745464
 30
0.0
 10
31.56929863413714
 20
46.85380982750034
 30
0.0
 10
31.52944938729373
 20
46.94030239752463
 30
0.0
 10
31.49268674358874
 20
46.99380366310237
 30
0.0
 10
31.47360068183988
 20
47.02157991517645
 30
0.0
  0
SPLINE
  5
DA
330
1F
100
AcDbEntity
  8
0
  6
Continuous
 62
     7
370
    25
100
AcDbSpline
210
0.0
220
0.0
230
1.0
 70
     8
 71
     3
 72
    15
 73
    11
 74
     0
 42
0.00000001
 43
0.00000001
 40
0.0
 40
0.0
 40
0.0
 40
0.0
 40
0.1317514273024032
 40
0.2583323505141567
 40
0.3821339760925454
 40
0.5038043916000834
 40
0.6246929865409283
 40
0.7468705897275764
 40
0.8715135042348146
 40
1.0
 40
1.0
 40
1.0
 40
1.0
 10
35.39217039337834
 20
48.41821453056107
 30
0.0
 10
35.44016166622161
 20
48.41719263942222
 30
0.0
 10
35.53426082379133
 20
48.41518896063656
 30
0.0
 10
35.67206870967065
 20
48.39377399498397
 30
0.0
 10
35.80361384560698
 20
48.36102663059834
 30
0.0
 10
35.92940003777049
 20
48.31575506852389
 30
0.0
 10
36.04781633322324
 20
48.25507311797721
 30
0.0
 10
36.16058757733121
 20
48.18266382685177
 30
0.0
 10
36.26740458621613
 20
48.09688123328749
 30
0.0
 10
36.33142761547334
 20
48.03052316491276
 30
0.0
 10
36.36392520107065
 20
47.99684033184312
 30
0.0
  0
SPLINE
  5
DB
330
1F
100
AcDbEntity
  8
0
  6
Continuous
 62
     7
370
    25
100
AcDbSpline
210
0.0
220
0.0
230
1.0
 70
     8
 71
     3
 72
    15
 73
    11
 74
     0
 42
0.00000001
 43
0.00000001
 40
0.0
 40
0.0
 40
0.0
 40
0.0
 40
0.1590042985173789
 40
0.3046460998968137
 40
0.4385469045795897
 40
0.5623222987759267
 40
0.6774325425257324
 40
0.7868973929387564
 40
0.8936108891042683
 40
1.0
 40
1.0
 40
1.0
 40
1.0
 10
30.14497488055783
 20
46.66821453056107
 30
0.0
 10
30.17249311780837
 20
46.62215014561396
 30
0.0
 10
30.22521699843664
 20
46.53389256170502
 30
0.0
 10
30.3131683575891
 20
46.41463452127622
 30
0.0
 10
30.40430126875504
 20
46.31327236451725
 30
0.0
 10
30.49929060230446
 20
46.2303957569774
 30
0.0
 10
30.59755655042687
 20
46.1651468702298
 30
0.0
 10
30.69974060416355
 20
46.11894463851124
 30
0.0
 10
30.805498414875
 20
46.09012866313991
 30
0.0
 10
30.87747223635441
 20
46.08662857658524
 30
0.0
 10
30.91340436773732
 20
46.08488119722774
 30
0.0
  0
SPLINE
  5
DC
330
1F
100
AcDbEntity
  8
0
  6
Continuous
 62
     7
370
    25
100
AcDbSpline
210
0.0
220
0.0
230
1.0
 70
     8
 71
     3
 72
    19
 73
    15
 74
     0
 42
0.00000001
 43
0.00000001
 40
0.0
 40
0.0
 40
0.0
 40
0.0
 40
0.0837853706537111
 40
0.1657798879221448
 40
0.2462800078932638
 40
0.32746092773639
 40
0.4087969540320683
 40
0.4897152412309865
 40
0.5713760321300523
 40
0.6555233211112775
 40
0.7410194827999735
 40
0.8265467605037597
 40
0.9119888516548332
 40
1.0
 40
1.0
 40
1.0
 40
1.0
 10
30.07346045748091
 20
48.58858712671492
 30
0.0
 10
30.07476566647428
 20
48.62561690127962
 30
0.0
 10
30.07734818653653
 20
48.69888496501464
 30
0.0
 10
30.09918870380694
 20
48.80591579545676
 30
0.0
 10
30.13366159746143
 20
48.90810221267432
 30
0.0
 10
30.181956485323
 20
49.00443254639904
 30
0.0
 10
30.24421383824123
 20
49.09239852728723
 30
0.0
 10
30.31625981260645
 20
49.17301201426928
 30
0.0
 10
30.40207129884393
 20
49.24078059649015
 30
0.0
 10
30.49622392210732
 20
49.29999265487938
 30
0.0
 10
30.59928029419001
 20
49.34633858008644
 30
0.0
 10
30.70727119758763
 20
49.38129956024692
 30
0.0
 10
30.82036826961283
 20
49.4011088179379
 30
0.0
 10
30.89697140423625
 20
49.40395158285055
 30
0.0
 10
30.93584026517321
 20
49.40539401774056
 30
0.0
  0
SPLINE
  5
DD
330
1F
100
AcDbEntity
  8
0
  6
Continuous
 62
     7
370
    25
100
AcDbSpline
210
0.0
220
0.0
230
1.0
 70
     8
 71
     3
 72
    19
 73
    15
 74
     0
 42
0.00000001
 43
0.00000001
 40
0.0
 40
0.0
 40
0.0
 40
0.0
 40
0.0969723103815178
 40
0.1877734389628719
 40
0.2723961390136928
 40
0.351320997375292
 40
0.4243347744514655
 40
0.4919087840005291
 40
0.5542332197968078
 40
0.6112676582441589
 40
0.7163478449915586
 40
0.8145400858216217
 40
0.9084954561491937
 40
1.0
 40
1.0
 40
1.0
 40
1.0
 10
30.98808532236561
 20
87.55370470904155
 30
0.0
 10
31.02607123567301
 20
87.52606334949185
 30
0.0
 10
31.09962569205152
 20
87.47253968773893
 30
0.0
 10
31.20428327196301
 20
87.39212400771143
 30
0.0
 10
31.29917708005789
 20
87.3134762391372
 30
0.0
 10
31.38464028362803
 20
87.2370986320411
 30
0.0
 10
31.46151719206781
 20
87.16357053903745
 30
0.0
 10
31.5289549127426
 20
87.09200735870728
 30
0.0
 10
31.5876405930898
 20
87.02292178602507
 30
0.0
 10
31.65081981154994
 20
86.93434921033383
 30
0.0
 10
31.71537763107041
 20
86.82556812605951
 30
0.0
 10
31.77081913849655
 20
86.69228988751425
 30
0.0
 10
31.80577748595111
 20
86.5584935670173
 30
0.0
 10
31.81034900138306
 20
86.46856673054224
 30
0.0
 10
31.81260455313484
 20
86.4241974975031
 30
0.0
  0
SPLINE
  5
DE
330
1F
100
AcDbEntity
  8
0
  6
Continuous
 62
     7
370
    25
100
AcDbSpline
210
0.0
220
0.0
230
1.0
 70
     8
 71
     3
 72
    11
 73
     7
 74
     0
 42
0.00000001
 43
0.00000001
 40
0.0
 40
0.0
 40
0.0
 40
0.0
 40
0.2951388013693307
 40
0.5602299448881933
 40
0.7949833567408716
 40
1.0
 40
1.0
 40
1.0
 40
1.0
 10
38.3260260274938
 20
87.80961416416977
 30
0.0
 10
38.31091700634993
 20
87.8163544302849
 30
0.0
 10
38.28223719182379
 20
87.82914874569411
 30
0.0
 10
38.24028262555505
 20
87.8442907558262
 30
0.0
 10
38.20160128882416
 20
87.85320667167426
 30
0.0
 10
38.1769577304613
 20
87.8545573891264
 30
0.0
 10
38.16546913646816
 20
87.85518708083643
 30
0.0
  0
SPLINE
  5
DF
330
1F
100
AcDbEntity
  8
0
  6
Continuous
 62
     7
370
    25
100
AcDbSpline
210
0.0
220
0.0
230
1.0
 70
     8
 71
     3
 72
    15
 73
    11
 74
     0
 42
0.00000001
 43
0.00000001
 40
0.0
 40
0.0
 40
0.0
 40
0.0
 40
0.052594281529145
 40
0.1249519739750389
 40
0.2180938989285982
 40
0.3335024107325256
 40
0.4687891785044499
 40
0.6249375859645994
 40
0.8016830479282223
 40
1.0
 40
1.0
 40
1.0
 40
1.0
 10
30.51763259800663
 20
87.90216224109285
 30
0.0
 10
30.52529397041431
 20
87.895325215277
 30
0.0
 10
30.54349563755124
 20
87.87908200694778
 30
0.0
 10
30.57677156329092
 20
87.85248972630404
 30
0.0
 10
30.62071436152085
 20
87.81968695400879
 30
0.0
 10
30.67417656269768
 20
87.77909963753393
 30
0.0
 10
30.73814392442475
 20
87.7320181754167
 30
0.0
 10
30.81262348056935
 20
87.6790445632529
 30
0.0
 10
30.89678501340429
 20
87.618459104246
 30
0.0
 10
30.95650692930388
 20
87.57610156363609
 30
0.0
 10
30.98808532236561
 20
87.55370470904155
 30
0.0
  0
SPLINE
  5
E0
330
1F
100
AcDbEntity
  8
0
  6
Continuous
 62
     7
370
    25
100
AcDbSpline
210
0.0
220
0.0
230
1.0
 70
     8
 71
     3
 72
    15
 73
    11
 74
     0
 42
0.00000001
 43
0.00000001
 40
0.0
 40
0.0
 40
0.0
 40
0.0
 40
0.1600594124854895
 40
0.3061123827401224
 40
0.4383665141302108
 40
0.5605414552552185
 40
0.6753172249527001
 40
0.7861136344281805
 40
0.8928417881050853
 40
1.0
 40
1.0
 40
1.0
 40
1.0
 10
37.60106609159637
 20
87.74791544622104
 30
0.0
 10
37.62425485034767
 20
87.78297127454692
 30
0.0
 10
37.66860317128624
 20
87.85001527384149
 30
0.0
 10
37.74231610064002
 20
87.93868457483337
 30
0.0
 10
37.8178194319184
 20
88.01209962144475
 30
0.0
 10
37.89547461922096
 20
88.07060314021466
 30
0.0
 10
37.97585271913109
 20
88.11441625903849
 30
0.0
 10
38.05718967084909
 20
88.14650929407003
 30
0.0
 10
38.14076514070655
 20
88.16548660930737
 30
0.0
 10
38.19692706493444
 20
88.16802026826464
 30
0.0
 10
38.22506448903228
 20
88.169289644939
 30
0.0
  0
SPLINE
  5
E1
330
1F
100
AcDbEntity
  8
0
  6
Continuous
 62
     7
370
    25
100
AcDbSpline
210
0.0
220
0.0
230
1.0
 70
     8
 71
     3
 72
    19
 73
    15
 74
     0
 42
0.00000001
 43
0.00000001
 40
0.0
 40
0.0
 40
0.0
 40
0.0
 40
0.0912636048966261
 40
0.1809303110850817
 40
0.2700882198317225
 40
0.3601561333877268
 40
0.4483425324981546
 40
0.5326658421383278
 40
0.6138337041070451
 40
0.6939815272835506
 40
0.772715977089003
 40
0.8493351720622375
 40
0.9239673265752274
 40
1.0
 40
1.0
 40
1.0
 40
1.0
 10
30.81280487364765
 20
85.83595631160566
 30
0.0
 10
30.84349173415915
 20
85.83681098411789
 30
0.0
 10
30.9043285072064
 20
85.83850537438097
 30
0.0
 10
30.99389075016751
 20
85.85478617643038
 30
0.0
 10
31.08087255243355
 20
85.87979830534383
 30
0.0
 10
31.16348119016408
 20
85.91561923685231
 30
0.0
 10
31.24057680469562
 20
85.9589577225773
 30
0.0
 10
31.30818350003225
 20
86.01130390008458
 30
0.0
 10
31.36662961321174
 20
86.0699101057983
 30
0.0
 10
31.41443872777888
 20
86.1352927604402
 30
0.0
 10
31.45111876306725
 20
86.20560990904751
 30
0.0
 10
31.47931083148045
 20
86.2777858603858
 30
0.0
 10
31.49495590513684
 20
86.3529544286648
 30
0.0
 10
31.49731265859351
 20
86.4035648915126
 30
0.0
 10
31.49850198903227
 20
86.4291053500672
 30
0.0
  0
SPLINE
  5
E2
330
1F
100
AcDbEntity
  8
0
  6
Continuous
 62
     7
370
    25
100
AcDbSpline
210
0.0
220
0.0
230
1.0
 70
     8
 71
     3
 72
    19
 73
    15
 74
     0
 42
0.00000001
 43
0.00000001
 40
0.0
 40
0.0
 40
0.0
 40
0.0
 40
0.0912636048966267
 40
0.180930311085084
 40
0.2700882198317234
 40
0.3601561333877256
 40
0.4483425324981509
 40
0.5326658421383275
 40
0.6138337041070501
 40
0.6939815272835617
 40
0.7727159770890085
 40
0.8493351720622501
 40
0.9239673265752336
 40
0.9999999999999999
 40
0.9999999999999999
 40
0.9999999999999999
 40
0.9999999999999999
 10
30.91340436773732
 20
46.08488119722774
 30
0.0
 10
30.94409122824882
 20
46.08573586973996
 30
0.0
 10
31.00492800129605
 20
46.08743026000303
 30
0.0
 10
31.09449024425716
 20
46.10371106205245
 30
0.0
 10
31.18147204652322
 20
46.1287231909659
 30
0.0
 10
31.26408068425376
 20
46.1645441224744
 30
0.0
 10
31.34117629878529
 20
46.20788260819937
 30
0.0
 10
31.40878299412192
 20
46.26022878570668
 30
0.0
 10
31.46722910730139
 20
46.31883499142036
 30
0.0
 10
31.51503822186855
 20
46.3842176460623
 30
0.0
 10
31.5517182571569
 20
46.45453479466958
 30
0.0
 10
31.57991032557013
 20
46.52671074600789
 30
0.0
 10
31.59555539922648
 20
46.60187931428687
 30
0.0
 10
31.59791215268318
 20
46.65248977713466
 30
0.0
 10
31.59910148312193
 20
46.67803023568928
 30
0.0
  0
SPLINE
  5
E3
330
1F
100
AcDbEntity
  8
0
  6
Continuous
 62
     7
370
    25
100
AcDbSpline
210
0.0
220
0.0
230
1.0
 70
     8
 71
     3
 72
    19
 73
    15
 74
     0
 42
0.00000001
 43
0.00000001
 40
0.0
 40
0.0
 40
0.0
 40
0.0
 40
0.1072327993600899
 40
0.2132518127818503
 40
0.3188304473075895
 40
0.4267935306342748
 40
0.4836459507827228
 40
0.5436038220211455
 40
0.608307649564089
 40
0.6771267602600427
 40
0.7506856360204971
 40
0.8287134184432915
 40
0.9121903482234525
 40
0.9999999999999999
 40
0.9999999999999999
 40
0.9999999999999999
 40
0.9999999999999999
 10
30.83524077108356
 20
89.1564691321185
 30
0.0
 10
30.87648487138157
 20
89.15504658051933
 30
0.0
 10
30.95850622312835
 20
89.15221757941971
 30
0.0
 10
31.07915543869791
 20
89.12762004809998
 30
0.0
 10
31.1953161550985
 20
89.086919376312
 30
0.0
 10
31.288759419918
 20
89.04073071833442
 30
0.0
 10
31.36189218137983
 20
88.99459930262115
 30
0.0
 10
31.41766491406875
 20
88.95257947834232
 30
0.0
 10
31.47418236485533
 20
88.90420436973812
 30
0.0
 10
31.53190041968407
 20
88.8493451236573
 30
0.0
 10
31.58984107912324
 20
88.7874983725677
 30
0.0
 10
31.64886453136739
 20
88.71908768365847
 30
0.0
 10
31.7091088001781
 20
88.64453112779411
 30
0.0
 10
31.74786466030199
 20
88.5913066270396
 30
0.0
 10
31.76773275826303
 20
88.56402121545182
 30
0.0
  0
SPLINE
  5
E4
330
1F
100
AcDbEntity
  8
0
  6
Continuous
 62
     7
370
    25
100
AcDbSpline
210
0.0
220
0.0
230
1.0
 70
     8
 71
     3
 72
    23
 73
    19
 74
     0
 42
0.00000001
 43
0.00000001
 40
0.0
 40
0.0
 40
0.0
 40
0.0
 40
0.063774532305633
 40
0.1260788099895082
 40
0.1869040927472053
 40
0.2475739349176203
 40
0.3080033561644441
 40
0.3691318984609789
 40
0.4320332277442053
 40
0.4967907944370912
 40
0.5616108232295648
 40
0.6249138657484641
 40
0.6867263492419227
 40
0.7480788332577686
 40
0.8095822911398955
 40
0.8716307425688262
 40
0.9348858208285534
 40
1.0
 40
1.0
 40
1.0
 40
1.0
 10
33.96645070698099
 20
86.85258291416976
 30
0.0
 10
33.96770367836587
 20
86.89704661773918
 30
0.0
 10
33.97018073520103
 20
86.98494896105854
 30
0.0
 10
33.9886339550413
 20
87.11422765904437
 30
0.0
 10
34.01966496370049
 20
87.23874591977764
 30
0.0
 10
34.06321281136637
 20
87.35810286300139
 30
0.0
 10
34.11905476632948
 20
87.47244291314996
 30
0.0
 10
34.18698285335034
 20
87.58184693816492
 30
0.0
 10
34.26700197804919
 20
87.68661633562695
 30
0.0
 10
34.35925438506557
 20
87.78428756244571
 30
0.0
 10
34.45918915522821
 20
87.87450817671511
 30
0.0
 10
34.56609788614357
 20
87.95291722215758
 30
0.0
 10
34.67732116746441
 20
88.02063407097359
 30
0.0
 10
34.79458417798681
 20
88.07428754727997
 30
0.0
 10
34.91615128280078
 20
88.11769665182437
 30
0.0
 10
35.04310472854802
 20
88.14772961992492
 30
0.0
 10
35.17491630722358
 20
88.1654269411649
 30
0.0
 10
35.2644067992882
 20
88.167989705316
 30
0.0
 10
35.30980006595536
 20
88.16928964493898
 30
0.0
  0
SPLINE
  5
E5
330
1F
100
AcDbEntity
  8
0
  6
Continuous
 62
     7
370
    25
100
AcDbSpline
210
0.0
220
0.0
230
1.0
 70
     8
 71
     3
 72
    23
 73
    19
 74
     0
 42
0.00000001
 43
0.00000001
 40
0.0
 40
0.0
 40
0.0
 40
0.0
 40
0.0572082694335094
 40
0.113696059657491
 40
0.1691779164171952
 40
0.2241592165805432
 40
0.2787198783810449
 40
0.3337942174469873
 40
0.3892414593400025
 40
0.4458220733936198
 40
0.5037042811090191
 40
0.5642938918193618
 40
0.6279754158952189
 40
0.6950382596840493
 40
0.7653727258510127
 40
0.8396114430907281
 40
0.9175377500777818
 40
1.0
 40
1.0
 40
1.0
 40
1.0
 10
30.81280487364765
 20
85.4769819526313
 30
0.0
 10
30.78636953066669
 20
85.47749313422872
 30
0.0
 10
30.73383177061217
 20
85.47850905961802
 30
0.0
 10
30.656122288739
 20
85.48749034004015
 30
0.0
 10
30.57998269954095
 20
85.5001974436314
 30
0.0
 10
30.5063684175068
 20
85.5203715136083
 30
0.0
 10
30.43433100586507
 20
85.54484849065042
 30
0.0
 10
30.36418377133909
 20
85.5749868232486
 30
0.0
 10
30.29589271748324
 20
85.61110402469599
 30
0.0
 10
30.22907513461487
 20
85.65239904932459
 30
0.0
 10
30.16390096002876
 20
85.70045679388824
 30
0.0
 10
30.10098149209989
 20
85.75643029032636
 30
0.0
 10
30.0382523065866
 20
85.81877579531769
 30
0.0
 10
29.97756491026501
 20
85.88918635867941
 30
0.0
 10
29.91769176595924
 20
85.96652444153716
 30
0.0
 10
29.85981335642271
 20
86.05151362493457
 30
0.0
 10
29.80273163874369
 20
86.14369097869358
 30
0.0
 10
29.76691617091638
 20
86.20855606441339
 30
0.0
 10
29.74850198903227
 20
86.24190583083643
 30
0.0
  0
SPLINE
  5
E6
330
1F
100
AcDbEntity
  8
0
  6
Continuous
 62
     7
370
    25
100
AcDbSpline
210
0.0
220
0.0
230
1.0
 70
     8
 71
     3
 72
    15
 73
    11
 74
     0
 42
0.00000001
 43
0.00000001
 40
0.0
 40
0.0
 40
0.0
 40
0.0
 40
0.1289191318119644
 40
0.2552377249249075
 40
0.3786785959785499
 40
0.5010878871851302
 40
0.6227136794297761
 40
0.7462407949383849
 40
0.8715890472316694
 40
1.0
 40
1.0
 40
1.0
 40
1.0
 10
34.06705020107065
 20
47.08748536389441
 30
0.0
 10
34.0681735114243
 20
47.13030190978731
 30
0.0
 10
34.07039747287219
 20
47.21507131219681
 30
0.0
 10
34.08671798194653
 20
47.33999837284797
 30
0.0
 10
34.11407653843099
 20
47.46069576191255
 30
0.0
 10
34.15280793488557
 20
47.57662123789623
 30
0.0
 10
34.20232312577694
 20
47.68837667393592
 30
0.0
 10
34.26268441372113
 20
47.79578150492223
 30
0.0
 10
34.33447504626162
 20
47.89876930540099
 30
0.0
 10
34.38967699779397
 20
47.96249138542906
 30
0.0
 10
34.41761109850655
 20
47.9947369664585
 30
0.0
  0
SPLINE
  5
E7
330
1F
100
AcDbEntity
  8
0
  6
Continuous
 62
     7
370
    25
100
AcDbSpline
210
0.0
220
0.0
230
1.0
 70
     8
 71
     3
 72
    15
 73
    11
 74
     0
 42
0.00000001
 43
0.00000001
 40
0.0
 40
0.0
 40
0.0
 40
0.0
 40
0.1284975211375137
 40
0.2527129855154533
 40
0.3748191325670498
 40
0.4964364263727314
 40
0.6179105567458504
 40
0.7412876173092917
 40
0.8687004007446087
 40
1.0
 40
1.0
 40
1.0
 40
1.0
 10
34.41761109850655
 20
47.9947369664585
 30
0.0
 10
34.45005968953257
 20
48.02871190571203
 30
0.0
 10
34.51387555338242
 20
48.09552960192482
 30
0.0
 10
34.62122428111064
 20
48.18106212601178
 30
0.0
 10
34.73371810222112
 20
48.25497819987262
 30
0.0
 10
34.85344302835863
 20
48.31445441532528
 30
0.0
 10
34.9791258863144
 20
48.3612929330517
 30
0.0
 10
35.11134512884229
 20
48.39385844816655
 30
0.0
 10
35.24962064430179
 20
48.41511180313554
 30
0.0
 10
35.34418026539736
 20
48.41716998094098
 30
0.0
 10
35.39217039337834
 20
48.41821453056107
 30
0.0
  0
SPLINE
  5
E8
330
1F
100
AcDbEntity
  8
0
  6
Continuous
 62
     7
370
    25
100
AcDbSpline
210
0.0
220
0.0
230
1.0
 70
     8
 71
     3
 72
    23
 73
    19
 74
     0
 42
0.00000001
 43
0.00000001
 40
0.0
 40
0.0
 40
0.0
 40
0.0
 40
0.0649212959378683
 40
0.1280341643911173
 40
0.1895737254178896
 40
0.250579834732384
 40
0.3117332213636337
 40
0.3732500799286335
 40
0.4357625163356397
 40
0.5003455613741146
 40
0.5649493665465394
 40
0.6275279092682856
 40
0.6891572899131307
 40
0.7498650117126968
 40
0.8107601999033163
 40
0.8722997609300885
 40
0.9354126293833377
 40
1.0
 40
1.0
 40
1.0
 40
1.0
 10
40.03499891901937
 20
47.10150779979185
 30
0.0
 10
40.03377343345962
 20
47.05610549123866
 30
0.0
 10
40.03135659908581
 20
46.96656558675804
 30
0.0
 10
40.01261159314439
 20
46.83507848951576
 30
0.0
 10
39.98265471901403
 20
46.70859111568777
 30
0.0
 10
39.93959653588851
 20
46.58731385211451
 30
0.0
 10
39.88395504753652
 20
46.47133020082188
 30
0.0
 10
39.8162504871734
 20
46.36072380477192
 30
0.0
 10
39.73636402006446
 20
46.2555301016219
 30
0.0
 10
39.64506289235266
 20
46.15717720152146
 30
0.0
 10
39.5460099562958
 20
46.06657788862684
 30
0.0
 10
39.44013246679849
 20
45.98733981901265
 30
0.0
 10
39.32907354125591
 20
45.92079844371971
 30
0.0
 10
39.21340137411976
 20
45.86521548415168
 30
0.0
 10
39.09212573561609
 20
45.82332330008258
 30
0.0
 10
38.96581245791452
 20
45.79310549945833
 30
0.0
 10
38.83453031141729
 20
45.7744710037236
 30
0.0
 10
38.74522915942497
 20
45.77201886128488
 30
0.0
 10
38.70006302158347
 20
45.77077863312518
 30
0.0
  0
SPLINE
  5
E9
330
1F
100
AcDbEntity
  8
0
  6
Continuous
 62
     7
370
    25
100
AcDbSpline
210
0.0
220
0.0
230
1.0
 70
     8
 71
     3
 72
    15
 73
    11
 74
     0
 42
0.00000001
 43
0.00000001
 40
0.0
 40
0.0
 40
0.0
 40
0.0
 40
0.1268408077971963
 40
0.2505477821575824
 40
0.3712302035652641
 40
0.4921157704266543
 40
0.6134009879986344
 40
0.7379973201236201
 40
0.8661319098407442
 40
1.0
 40
1.0
 40
1.0
 40
1.0
 10
38.70006302158347
 20
45.77077863312518
 30
0.0
 10
38.64923544963355
 20
45.77207344083885
 30
0.0
 10
38.5488360935772
 20
45.77463106568069
 30
0.0
 10
38.40203842316469
 20
45.80055047573583
 30
0.0
 10
38.26076157125426
 20
45.83928741139574
 30
0.0
 10
38.12657074652265
 20
45.89598640503137
 30
0.0
 10
37.9984029339995
 20
45.9682419208909
 30
0.0
 10
37.87698312823739
 20
46.05635212686641
 30
0.0
 10
37.7616663753338
 20
46.16013275160382
 30
0.0
 10
37.69225761805877
 20
46.23886456776593
 30
0.0
 10
37.65679379081424
 20
46.27909193440723
 30
0.0
  0
SPLINE
  5
EA
330
1F
100
AcDbEntity
  8
0
  6
Continuous
 62
     7
370
    25
100
AcDbSpline
210
0.0
220
0.0
230
1.0
 70
     8
 71
     3
 72
    19
 73
    15
 74
     0
 42
0.00000001
 43
0.00000001
 40
0.0
 40
0.0
 40
0.0
 40
0.0
 40
0.0984694310255636
 40
0.1896291011376333
 40
0.274184089437969
 40
0.3521831609671522
 40
0.4231988731834724
 40
0.4885509460005354
 40
0.548473346027945
 40
0.6014401636178737
 40
0.70119808242577
 40
0.7995918021381817
 40
0.89854509848223
 40
0.9999999999999999
 40
0.9999999999999999
 40
0.9999999999999999
 40
0.9999999999999999
 10
31.48377843133995
 20
88.34877682442617
 30
0.0
 10
31.46663249886765
 20
88.37086551484882
 30
0.0
 10
31.43361344179553
 20
88.41340316807299
 30
0.0
 10
31.38348395493501
 20
88.47297448367927
 30
0.0
 10
31.33623530701474
 20
88.52739096321118
 30
0.0
 10
31.28968490723053
 20
88.57465609124122
 30
0.0
 10
31.2462912757646
 20
88.61735822457914
 30
0.0
 10
31.20417423351764
 20
88.65391798140355
 30
0.0
 10
31.16393988228025
 20
88.68469357683368
 30
0.0
 10
31.11322297163419
 20
88.71753713679281
 30
0.0
 10
31.04950525331101
 20
88.75009364034761
 30
0.0
 10
30.96952071707168
 20
88.77764271842533
 30
0.0
 10
30.8859344420367
 20
88.79419778034408
 30
0.0
 10
30.82900481054601
 20
88.79638666791192
 30
0.0
 10
30.80018468133996
 20
88.79749477314412
 30
0.0
  0
SPLINE
  5
EB
330
1F
100
AcDbEntity
  8
0
  6
Continuous
 62
     7
370
    25
100
AcDbSpline
210
0.0
220
0.0
230
1.0
 70
     8
 71
     3
 72
    19
 73
    15
 74
     0
 42
0.00000001
 43
0.00000001
 40
0.0
 40
0.0
 40
0.0
 40
0.0
 40
0.0938065293523327
 40
0.1913381281363351
 40
0.2951906166251674
 40
0.4103123367232922
 40
0.4719302510512786
 40
0.5364251593464331
 40
0.6031187283036312
 40
0.6741176724906004
 40
0.7493320232258874
 40
0.828283384171575
 40
0.9120398092627684
 40
1.0
 40
1.0
 40
1.0
 40
1.0
 10
38.16546913646816
 20
87.85518708083643
 30
0.0
 10
38.14026340295715
 20
87.85350704346787
 30
0.0
 10
38.08885101299241
 20
87.8500802542292
 30
0.0
 10
38.01336651358265
 20
87.82314144646217
 30
0.0
 10
37.94011930808134
 20
87.77961620634908
 30
0.0
 10
37.88194764574532
 20
87.73134509449824
 30
0.0
 10
37.83690539287048
 20
87.6847972970338
 30
0.0
 10
37.80476516733972
 20
87.64414889446684
 30
0.0
 10
37.77528242038605
 20
87.59857026293838
 30
0.0
 10
37.74711219998554
 20
87.54884057913507
 30
0.0
 10
37.72144590577639
 20
87.49411073310277
 30
0.0
 10
37.69749123657267
 20
87.43492751968091
 30
0.0
 10
37.67583237365028
 20
87.3712223909111
 30
0.0
 10
37.66348212942604
 20
87.32683987069083
 30
0.0
 10
37.65715583518611
 20
87.3041053500672
 30
0.0
  0
SPLINE
  5
EC
330
1F
100
AcDbEntity
  8
0
  6
Continuous
 62
     7
370
    25
100
AcDbSpline
210
0.0
220
0.0
230
1.0
 70
     8
 71
     3
 72
    15
 73
    11
 74
     0
 42
0.00000001
 43
0.00000001
 40
0.0
 40
0.0
 40
0.0
 40
0.0
 40
0.1298621417207377
 40
0.2546535308972848
 40
0.3760145541937099
 40
0.4952552518176047
 40
0.6147977192994556
 40
0.7381055541683298
 40
0.865196300072353
 40
1.0
 40
1.0
 40
1.0
 40
1.0
 10
35.30980006595536
 20
88.16928964493898
 30
0.0
 10
35.36199992501829
 20
88.16785189339714
 30
0.0
 10
35.46436138499871
 20
88.16503253048015
 30
0.0
 10
35.61408939426554
 20
88.14156980316118
 30
0.0
 10
35.7557338721691
 20
88.10193133600633
 30
0.0
 10
35.89038822419919
 20
88.04801383798282
 30
0.0
 10
36.01756891029398
 20
87.97636510890088
 30
0.0
 10
36.13607189460993
 20
87.88598514787729
 30
0.0
 10
36.24713737791775
 20
87.77744396090714
 30
0.0
 10
36.31151766957696
 20
87.6940735164379
 30
0.0
 10
36.34465583518612
 20
87.65116063852874
 30
0.0
  0
SPLINE
  5
ED
330
1F
100
AcDbEntity
  8
0
  6
Continuous
 62
     7
370
    25
100
AcDbSpline
210
0.0
220
0.0
230
1.0
 70
     8
 71
     3
 72
    15
 73
    11
 74
     0
 42
0.00000001
 43
0.00000001
 40
0.0
 40
0.0
 40
0.0
 40
0.0
 40
0.1072852142689527
 40
0.2147458609696338
 40
0.3229385595552773
 40
0.4341161625174554
 40
0.5534123109628032
 40
0.6860729848107386
 40
0.8342559920595884
 40
1.0
 40
1.0
 40
1.0
 40
1.0
 10
30.28696352749381
 20
88.35438579878516
 30
0.0
 10
30.28735665412871
 20
88.3356343202447
 30
0.0
 10
30.28814355023793
 20
88.29810070080735
 30
0.0
 10
30.29911834792431
 20
88.24264927885339
 30
0.0
 10
30.31321767688215
 20
88.18733793943477
 30
0.0
 10
30.33556030863557
 20
88.13241535660062
 30
0.0
 10
30.36640561225135
 20
88.07692099754833
 30
0.0
 10
30.40691078815772
 20
88.01989925998978
 30
0.0
 10
30.45792410020769
 20
87.96084755131768
 30
0.0
 10
30.49700111255911
 20
87.92244017754278
 30
0.0
 10
30.51763259800663
 20
87.90216224109285
 30
0.0
  0
SPLINE
  5
EE
330
1F
100
AcDbEntity
  8
0
  6
Continuous
 62
     7
370
    25
100
AcDbSpline
210
0.0
220
0.0
230
1.0
 70
     8
 71
     3
 72
    23
 73
    19
 74
     0
 42
0.00000001
 43
0.00000001
 40
0.0
 40
0.0
 40
0.0
 40
0.0
 40
0.0572082694335097
 40
0.113696059657492
 40
0.1691779164171947
 40
0.2241592165805442
 40
0.2787198783810445
 40
0.3337942174469891
 40
0.3892414593400044
 40
0.445822073393622
 40
0.5037042811090215
 40
0.5642938918193646
 40
0.6279754158952253
 40
0.6950382596840523
 40
0.765372725851012
 40
0.8396114430907361
 40
0.9175377500777901
 40
1.0
 40
1.0
 40
1.0
 40
1.0
 10
30.91340436773732
 20
45.72590683825338
 30
0.0
 10
30.88696902475634
 20
45.72641801985079
 30
0.0
 10
30.83443126470184
 20
45.72743394524009
 30
0.0
 10
30.75672178282868
 20
45.73641522566227
 30
0.0
 10
30.6805821936306
 20
45.74912232925343
 30
0.0
 10
30.60696791159646
 20
45.76929639923037
 30
0.0
 10
30.53493049995473
 20
45.7937733762725
 30
0.0
 10
30.46478326542876
 20
45.82391170887065
 30
0.0
 10
30.39649221157289
 20
45.86002891031804
 30
0.0
 10
30.32967462870453
 20
45.90132393494669
 30
0.0
 10
30.26450045411841
 20
45.9493816795103
 30
0.0
 10
30.20158098618955
 20
46.00535517594845
 30
0.0
 10
30.13885180067627
 20
46.06770068093978
 30
0.0
 10
30.07816440435468
 20
46.13811124430148
 30
0.0
 10
30.01829126004887
 20
46.21544932715922
 30
0.0
 10
29.96041285051239
 20
46.30043851055669
 30
0.0
 10
29.90333113283335
 20
46.39261586431564
 30
0.0
 10
29.86751566500604
 20
46.45748095003546
 30
0.0
 10
29.84910148312193
 20
46.4908307164585
 30
0.0
  0
SPLINE
  5
EF
330
1F
100
AcDbEntity
  8
0
  6
Continuous
 62
     7
370
    25
100
AcDbSpline
210
0.0
220
0.0
230
1.0
 70
     8
 71
     3
 72
    23
 73
    19
 74
     0
 42
0.00000001
 43
0.00000001
 40
0.0
 40
0.0
 40
0.0
 40
0.0
 40
0.0624160261588189
 40
0.1233369785373298
 40
0.1832651398530912
 40
0.2431724430697081
 40
0.3028983539197441
 40
0.3637735975039104
 40
0.4256053049523805
 40
0.4896590425101846
 40
0.5537845767921163
 40
0.6162215328110708
 40
0.677854471308341
 40
0.7395168974879377
 40
0.8020965355763701
 40
0.8658658412779712
 40
0.9315077951965116
 40
1.0
 40
1.0
 40
1.0
 40
1.0
 10
36.71448609850655
 20
47.08748536389441
 30
0.0
 10
36.71350476118864
 20
47.0441853062167
 30
0.0
 10
36.71156559288262
 20
46.95862237289456
 30
0.0
 10
36.69322197649154
 20
46.83260300710607
 30
0.0
 10
36.6646908906143
 20
46.71040818442071
 30
0.0
 10
36.62385905243524
 20
46.59254949066813
 30
0.0
 10
36.57150094317171
 20
46.47866666325676
 30
0.0
 10
36.50761025563812
 20
46.36925711396783
 30
0.0
 10
36.43173863848642
 20
46.26410498069473
 30
0.0
 10
36.34573464172802
 20
46.16410314244231
 30
0.0
 10
36.25068276557661
 20
46.07193692764884
 30
0.0
 10
36.14756661725757
 20
45.99160865809554
 30
0.0
 10
36.03841258350663
 20
45.9227871337271
 30
0.0
 10
35.92176923023197
 20
45.86735071811238
 30
0.0
 10
35.79870174340019
 20
45.8236410178008
 30
0.0
 10
35.66894467529514
 20
45.79294100137043
 30
0.0
 10
35.53269960498191
 20
45.77437931759405
 30
0.0
 10
35.43967238361572
 20
45.77199574433313
 30
0.0
 10
35.39217039337834
 20
45.77077863312518
 30
0.0
  0
SPLINE
  5
F0
330
1F
100
AcDbEntity
  8
0
  6
Continuous
 62
     7
370
    25
100
AcDbSpline
210
0.0
220
0.0
230
1.0
 70
     8
 71
     3
 72
    15
 73
    11
 74
     0
 42
0.00000001
 43
0.00000001
 40
0.0
 40
0.0
 40
0.0
 40
0.0
 40
0.1353597999413054
 40
0.2630446827611687
 40
0.3860610822643553
 40
0.5057706525454612
 40
0.6251780311387037
 40
0.746147722046617
 40
0.8705380668997041
 40
1.0
 40
1.0
 40
1.0
 40
1.0
 10
37.65679379081424
 20
47.90008552415082
 30
0.0
 10
37.69015127486587
 20
47.94302325796944
 30
0.0
 10
37.75497486956588
 20
48.02646415087632
 30
0.0
 10
37.86669977443113
 20
48.1344542794633
 30
0.0
 10
37.98462658334702
 20
48.22552958310954
 30
0.0
 10
38.11178999584912
 20
48.29691211609428
 30
0.0
 10
38.24621368586384
 20
48.350732928007
 30
0.0
 10
38.38734600331212
 20
48.39051237789261
 30
0.0
 10
38.5363847681928
 20
48.41395385249562
 30
0.0
 10
38.63828122087262
 20
48.41677551368467
 30
0.0
 10
38.69024731645527
 20
48.41821453056107
 30
0.0
  0
SPLINE
  5
F1
330
1F
100
AcDbEntity
  8
0
  6
Continuous
 62
     7
370
    25
100
AcDbSpline
210
0.0
220
0.0
230
1.0
 70
     8
 71
     3
 72
    15
 73
    11
 74
     0
 42
0.00000001
 43
0.00000001
 40
0.0
 40
0.0
 40
0.0
 40
0.0
 40
0.133506768998513
 40
0.2625589787303572
 40
0.3882644471488803
 40
0.5126673546814223
 40
0.6337222699657443
 40
0.7553938601370931
 40
0.8775529450912896
 40
1.0
 40
1.0
 40
1.0
 40
1.0
 10
30.16847394416047
 20
87.80680967699028
 30
0.0
 10
30.15300139892932
 20
87.82741071384447
 30
0.0
 10
30.12257256221397
 20
87.86792541761417
 30
0.0
 10
30.08240655674889
 20
87.9312502753819
 30
0.0
 10
30.0482673939505
 20
87.99607354079112
 30
0.0
 10
30.02150506181427
 20
88.06256940535573
 30
0.0
 10
29.99896884297468
 20
88.12980433423627
 30
0.0
 10
29.98381091225692
 20
88.1986555799359
 30
0.0
 10
29.97431951534112
 20
88.26881419840038
 30
0.0
 10
29.97334752880802
 20
88.3160276990229
 30
0.0
 10
29.97286096339124
 20
88.33966224109284
 30
0.0
  0
SPLINE
  5
F2
330
1F
100
AcDbEntity
  8
0
  6
Continuous
 62
     7
370
    25
100
AcDbSpline
210
0.0
220
0.0
230
1.0
 70
     8
 71
     3
 72
    23
 73
    19
 74
     0
 42
0.00000001
 43
0.00000001
 40
0.0
 40
0.0
 40
0.0
 40
0.0
 40
0.0614842551968902
 40
0.1217745277022106
 40
0.180919559813932
 40
0.2402561150782695
 40
0.3001144444023522
 40
0.3611459476126102
 40
0.4235005824125855
 40
0.4886693612807187
 40
0.5539541046535648
 40
0.6175812610152618
 40
0.6802384268167408
 40
0.7421873887724525
 40
0.804663211769292
 40
0.8682589893126634
 40
0.9330202571803755
 40
1.0
 40
1.0
 40
1.0
 40
1.0
 10
31.9132040472245
 20
46.67312238312518
 30
0.0
 10
31.91254690910053
 20
46.64174401802958
 30
0.0
 10
31.91124539403097
 20
46.57959663448648
 30
0.0
 10
31.89628448025235
 20
46.48834155760438
 30
0.0
 10
31.87436481508978
 20
46.3997106879204
 30
0.0
 10
31.84132758113924
 20
46.3147995754754
 30
0.0
 10
31.80100442287934
 20
46.23205481279197
 30
0.0
 10
31.74983817501331
 20
46.15364691238103
 30
0.0
 10
31.69053049027565
 20
46.0778405137941
 30
0.0
 10
31.62249672537122
 20
46.00665702243892
 30
0.0
 10
31.54805082305476
 20
45.94131082645356
 30
0.0
 10
31.46936712839193
 20
45.88318176498105
 30
0.0
 10
31.38631685545781
 20
45.83471344158577
 30
0.0
 10
31.29935053877457
 20
45.79516259953579
 30
0.0
 10
31.20844820206752
 20
45.76422908200957
 30
0.0
 10
31.113640418233
 20
45.74181621287869
 30
0.0
 10
31.01477090701344
 20
45.72806050196519
 30
0.0
 10
30.94757042544097
 20
45.72663274050059
 30
0.0
 10
30.91340436773732
 20
45.72590683825338
 30
0.0
  0
SPLINE
  5
F3
330
1F
100
AcDbEntity
  8
0
  6
Continuous
 62
     7
370
    25
100
AcDbSpline
210
0.0
220
0.0
230
1.0
 70
     8
 71
     3
 72
    19
 73
    15
 74
     0
 42
0.00000001
 43
0.00000001
 40
0.0
 40
0.0
 40
0.0
 40
0.0
 40
0.0819940568376517
 40
0.1633492972937409
 40
0.2458264740680093
 40
0.3303671599787208
 40
0.4151983742785668
 40
0.4979409323876419
 40
0.5804761255002924
 40
0.6637400107109446
 40
0.7475128374040544
 40
0.8303987408369423
 40
0.9140755187235979
 40
0.9999999999999999
 40
0.9999999999999999
 40
0.9999999999999999
 40
0.9999999999999999
 10
39.72089635491681
 20
47.09800219081749
 30
0.0
 10
39.71944162108179
 20
47.14185717994441
 30
0.0
 10
39.7165434872552
 20
47.22922548361174
 30
0.0
 10
39.68799644953332
 20
47.35798838660008
 30
0.0
 10
39.64509647184546
 20
47.48387636267668
 30
0.0
 10
39.58253741987394
 20
47.60339691242702
 30
0.0
 10
39.50833615043961
 20
47.71617099506739
 30
0.0
 10
39.41858915348217
 20
47.81572487405801
 30
0.0
 10
39.31797295702756
 20
47.90289554681262
 30
0.0
 10
39.20528379305744
 20
47.97491095665536
 30
0.0
 10
39.08434336761329
 20
48.0321964516252
 30
0.0
 10
38.95702845170054
 20
48.07408009052291
 30
0.0
 10
38.82398484930248
 20
48.09925383997533
 30
0.0
 10
38.73335719478374
 20
48.10247834631001
 30
0.0
 10
38.68744282927578
 20
48.10411196645851
 30
0.0
  0
SPLINE
  5
F4
330
1F
100
AcDbEntity
  8
0
  6
Continuous
 62
     7
370
    25
100
AcDbSpline
210
0.0
220
0.0
230
1.0
 70
     8
 71
     3
 72
    19
 73
    15
 74
     0
 42
0.00000001
 43
0.00000001
 40
0.0
 40
0.0
 40
0.0
 40
0.0
 40
0.086440372462669
 40
0.169344010542475
 40
0.2510606708491848
 40
0.33232643057034
 40
0.4131892790502056
 40
0.494299499359639
 40
0.5766538799957578
 40
0.6617849185411923
 40
0.7477649302742699
 40
0.8319674345471986
 40
0.9152994413086163
 40
0.9999999999999999
 40
0.9999999999999999
 40
0.9999999999999999
 40
0.9999999999999999
 10
37.65679379081424
 20
47.08888760748415
 30
0.0
 10
37.65838464691427
 20
47.04249949494904
 30
0.0
 10
37.66150126874849
 20
46.95162125374779
 30
0.0
 10
37.68683863672386
 20
46.81883713183422
 30
0.0
 10
37.72807390075331
 20
46.69318547630822
 30
0.0
 10
37.78660261444097
 20
46.57572443933446
 30
0.0
 10
37.86055018869606
 20
46.46774160419333
 30
0.0
 10
37.9496483451039
 20
46.37105099771541
 30
0.0
 10
38.05309089614025
 20
46.28626040668456
 30
0.0
 10
38.16915808783533
 20
46.21483915295924
 30
0.0
 10
38.29358021847376
 20
46.15685108662744
 30
0.0
 10
38.42336613053421
 20
46.11533687616883
 30
0.0
 10
38.55673101141608
 20
46.08976464783246
 30
0.0
 10
38.64689933115788
 20
46.08651782873761
 30
0.0
 10
38.69235068183988
 20
46.08488119722774
 30
0.0
  0
SPLINE
  5
F5
330
1F
100
AcDbEntity
  8
0
  6
Continuous
 62
     7
370
    25
100
AcDbSpline
210
0.0
220
0.0
230
1.0
 70
     8
 71
     3
 72
    23
 73
    19
 74
     0
 42
0.00000001
 43
0.00000001
 40
0.0
 40
0.0
 40
0.0
 40
0.0
 40
0.0660440693700003
 40
0.1300237494418057
 40
0.1923740566421994
 40
0.25388430375041
 40
0.3148960853343806
 40
0.3758058275294914
 40
0.4382422362453615
 40
0.5015912675509494
 40
0.5648807602801261
 40
0.6265333410400652
 40
0.6875157651495304
 40
0.7481059155492421
 40
0.8087955368148527
 40
0.8708215189810368
 40
0.9343710811645463
 40
0.9999999999999999
 40
0.9999999999999999
 40
0.9999999999999999
 40
0.9999999999999999
 10
38.68744282927578
 20
48.10411196645851
 30
0.0
 10
38.65186326678272
 20
48.10347170824862
 30
0.0
 10
38.58181627902174
 20
48.10221120486273
 30
0.0
 10
38.47914406004629
 20
48.08723725606959
 30
0.0
 10
38.38024863228629
 20
48.06549951487717
 30
0.0
 10
38.28612668087409
 20
48.0325876146271
 30
0.0
 10
38.19587606440053
 20
47.99218880145479
 30
0.0
 10
38.11019189963539
 20
47.94170679025422
 30
0.0
 10
38.02913433206585
 20
47.88205478441149
 30
0.0
 10
37.9529073016886
 20
47.81437544050584
 30
0.0
 10
37.88404400821681
 20
47.73980075238542
 30
0.0
 10
37.82308108024719
 20
47.66021294325772
 30
0.0
 10
37.77187377515954
 20
47.57571280363441
 30
0.0
 10
37.72937175489721
 20
47.48708744112923
 30
0.0
 10
37.69702847222088
 20
47.39364215598397
 30
0.0
 10
37.67407275243745
 20
47.29590914330571
 30
0.0
 10
37.65964239963323
 20
47.193781430869
 30
0.0
 10
37.65775346235195
 20
47.12422542435563
 30
0.0
 10
37.65679379081424
 20
47.08888760748415
 30
0.0
  0
SPLINE
  5
F6
330
1F
100
AcDbEntity
  8
0
  6
Continuous
 62
     7
370
    25
100
AcDbSpline
210
0.0
220
0.0
230
1.0
 70
     8
 71
     3
 72
    19
 73
    15
 74
     0
 42
0.00000001
 43
0.00000001
 40
0.0
 40
0.0
 40
0.0
 40
0.0
 40
0.0834200466710284
 40
0.1655737957865922
 40
0.2481587766688904
 40
0.3320333067748041
 40
0.4162573489175286
 40
0.4995253498660638
 40
0.5830385602711584
 40
0.668595904214166
 40
0.7540353502552526
 40
0.8369197002092015
 40
0.91829973137251
 40
1.0
 40
1.0
 40
1.0
 40
1.0
 10
38.69235068183988
 20
46.08488119722774
 30
0.0
 10
38.73688644979321
 20
46.08643757410858
 30
0.0
 10
38.82528194275407
 20
46.0895267024191
 30
0.0
 10
38.95544006423984
 20
46.11626489002835
 30
0.0
 10
39.08193070266162
 20
46.15710991456932
 30
0.0
 10
39.20211087512171
 20
46.21666947101706
 30
0.0
 10
39.3149343629122
 20
46.28965952904004
 30
0.0
 10
39.41681591647139
 20
46.37721956217585
 30
0.0
 10
39.50582283000439
 20
46.47870950540398
 30
0.0
 10
39.58168718507141
 20
46.59171800828539
 30
0.0
 10
39.64281867037283
 20
46.7128933919356
 30
0.0
 10
39.6887489103021
 20
46.83827478052564
 30
0.0
 10
39.7152574835492
 20
46.96742020361506
 30
0.0
 10
39.71901427208455
 20
47.05441791653751
 30
0.0
 10
39.72089635491681
 20
47.09800219081749
 30
0.0
  0
SPLINE
  5
F7
330
1F
100
AcDbEntity
  8
0
  6
Continuous
 62
     7
370
    25
100
AcDbSpline
210
0.0
220
0.0
230
1.0
 70
     8
 71
     3
 72
    23
 73
    19
 74
     0
 42
0.00000001
 43
0.00000001
 40
0.0
 40
0.0
 40
0.0
 40
0.0
 40
0.0656337996756878
 40
0.129188088057125
 40
0.1912186831121842
 40
0.2519128178811538
 40
0.3125074743865482
 40
0.3734944337751969
 40
0.4351515996540494
 40
0.498741474406645
 40
0.5620952169966321
 40
0.6241865668116539
 40
0.6854757184651945
 40
0.7460968148060534
 40
0.8076116364477862
 40
0.8699665806571892
 40
0.9339510189149047
 40
1.0
 40
1.0
 40
1.0
 40
1.0
 10
36.34465583518612
 20
86.83996272186208
 30
0.0
 10
36.34369617881453
 20
86.87530055236982
 30
0.0
 10
36.34180727138494
 20
86.9448565857237
 30
0.0
 10
36.32737670185433
 20
87.04698410329574
 30
0.0
 10
36.30442177544241
 20
87.14471782931604
 30
0.0
 10
36.27207560542592
 20
87.23816051837464
 30
0.0
 10
36.22958432101036
 20
87.3267955337739
 30
0.0
 10
36.17833655512398
 20
87.41125929398423
 30
0.0
 10
36.11743110539039
 20
87.49111250537389
 30
0.0
 10
36.0478484092904
 20
87.56525557635236
 30
0.0
 10
35.97168320674494
 20
87.6328820386116
 30
0.0
 10
35.89108866611287
 20
87.69324627932336
 30
0.0
 10
35.80510991915542
 20
87.74283505206319
 30
0.0
 10
35.71519288223769
 20
87.78387632356086
 30
0.0
 10
35.62118154777563
 20
87.81653547345846
 30
0.0
 10
35.52231092795707
 20
87.83832316722652
 30
0.0
 10
35.41963194103001
 20
87.8532834882619
 30
0.0
 10
35.34958588563372
 20
87.85454586903124
 30
0.0
 10
35.31400679672458
 20
87.85518708083643
 30
0.0
  0
SPLINE
  5
F8
330
1F
100
AcDbEntity
  8
0
  6
Continuous
 62
     7
370
    25
100
AcDbSpline
210
0.0
220
0.0
230
1.0
 70
     8
 71
     3
 72
    19
 73
    15
 74
     0
 42
0.00000001
 43
0.00000001
 40
0.0
 40
0.0
 40
0.0
 40
0.0
 40
0.0859205174117682
 40
0.1695934351247449
 40
0.2524755148685384
 40
0.3362444769570525
 40
0.4195045210415732
 40
0.5020359066440935
 40
0.5847746476768726
 40
0.6698464747058006
 40
0.7541848663887879
 40
0.8366582383293314
 40
0.9180097257088042
 40
1.0
 40
1.0
 40
1.0
 40
1.0
 10
35.31400679672458
 20
87.85518708083643
 30
0.0
 10
35.26809245885251
 20
87.85355344310584
 30
0.0
 10
35.17746485888262
 20
87.85032890206699
 30
0.0
 10
35.04442085682019
 20
87.82515540688247
 30
0.0
 10
34.91710744273216
 20
87.7832708125187
 30
0.0
 10
34.79616136846359
 20
87.72598891135036
 30
0.0
 10
34.68349315184099
 20
87.6539601747333
 30
0.0
 10
34.58279948101167
 20
87.56683879144146
 30
0.0
 10
34.49325677965573
 20
87.46700177728682
 30
0.0
 10
34.41794851542296
 20
87.35489966689661
 30
0.0
 10
34.35655801850329
 20
87.234721575828
 30
0.0
 10
34.31339098656657
 20
87.10909713772696
 30
0.0
 10
34.28492173915737
 20
86.98029216017021
 30
0.0
 10
34.28201321859592
 20
86.89292947439252
 30
0.0
 10
34.28055327108356
 20
86.84907730519542
 30
0.0
  0
SPLINE
  5
F9
330
1F
100
AcDbEntity
  8
0
  6
Continuous
 62
     7
370
    25
100
AcDbSpline
210
0.0
220
0.0
230
1.0
 70
     8
 71
     3
 72
    19
 73
    15
 74
     0
 42
0.00000001
 43
0.00000001
 40
0.0
 40
0.0
 40
0.0
 40
0.0
 40
0.0848023883688278
 40
0.1686635395998387
 40
0.2525519243727788
 40
0.3382396894642423
 40
0.4231026613931502
 40
0.5055560510576198
 40
0.5861756559890495
 40
0.6671357203303548
 40
0.7484991803055305
 40
0.8304523987582781
 40
0.9134557062010136
 40
1.0
 40
1.0
 40
1.0
 40
1.0
 10
35.3112023095451
 20
85.83595631160566
 30
0.0
 10
35.35664881230726
 20
85.83761627553145
 30
0.0
 10
35.44703739882871
 20
85.84091777914142
 30
0.0
 10
35.58047610670872
 20
85.86619904443471
 30
0.0
 10
35.7099710695066
 20
85.90796784278471
 30
0.0
 10
35.83375829788493
 20
85.96586696951871
 30
0.0
 10
35.94907442903279
 20
86.03762432541578
 30
0.0
 10
36.05257230664924
 20
86.12163141644672
 30
0.0
 10
36.14008827502268
 20
86.21933460056866
 30
0.0
 10
36.21428088460094
 20
86.32671105361369
 30
0.0
 10
36.27245630129955
 20
86.44442305007456
 30
0.0
 10
36.31483236049661
 20
86.56975724082048
 30
0.0
 10
36.33988626627293
 20
86.70271798896555
 30
0.0
 10
36.34304399591548
 20
86.79358191592412
 30
0.0
 10
36.34465583518612
 20
86.83996272186208
 30
0.0
  0
SPLINE
  5
FA
330
1F
100
AcDbEntity
  8
0
  6
Continuous
 62
     7
370
    25
100
AcDbSpline
210
0.0
220
0.0
230
1.0
 70
     8
 71
     3
 72
    19
 73
    15
 74
     0
 42
0.00000001
 43
0.00000001
 40
0.0
 40
0.0
 40
0.0
 40
0.0
 40
0.0815893489321846
 40
0.1628588951679386
 40
0.2454836892755851
 40
0.3308071391580102
 40
0.416493373776289
 40
0.4998932031606329
 40
0.5830481559950242
 40
0.6671578520621582
 40
0.7513119292929161
 40
0.8337847893576125
 40
0.9162564885439795
 40
1.0
 40
1.0
 40
1.0
 40
1.0
 10
34.28055327108355
 20
86.84907730519541
 30
0.0
 10
34.28241816439331
 20
86.80548719801139
 30
0.0
 10
34.28614064126083
 20
86.71847784214391
 30
0.0
 10
34.31289133565882
 20
86.58949726537553
 30
0.0
 10
34.35777120909235
 20
86.4638432233142
 30
0.0
 10
34.4190132718204
 20
86.3425822297945
 30
0.0
 10
34.49569989654911
 20
86.22999812943081
 30
0.0
 10
34.58458854910135
 20
86.12825800686932
 30
0.0
 10
34.6865388304142
 20
86.04076841859644
 30
0.0
 10
34.79946633748829
 20
85.967530844991
 30
0.0
 10
34.92007430788863
 20
85.90836832409549
 30
0.0
 10
35.04690823936152
 20
85.8672026845886
 30
0.0
 10
35.17758387751799
 20
85.84062490396839
 30
0.0
 10
35.26643621136994
 20
85.83752042713134
 30
0.0
 10
35.3112023095451
 20
85.83595631160566
 30
0.0
  0
SPLINE
  5
FB
330
1F
100
AcDbEntity
  8
0
  6
Continuous
 62
     7
370
    25
100
AcDbSpline
210
0.0
220
0.0
230
1.0
 70
     8
 71
     3
 72
    23
 73
    19
 74
     0
 42
0.00000001
 43
0.00000001
 40
0.0
 40
0.0
 40
0.0
 40
0.0
 40
0.0638458997347852
 40
0.1260436278408456
 40
0.1871653577195686
 40
0.2473992895212641
 40
0.3083800306041655
 40
0.3697796166640485
 40
0.4325839246869367
 40
0.4976407859952574
 40
0.5624011369620613
 40
0.6255571033330433
 40
0.6873320046201724
 40
0.7483127457030738
 40
0.8097910391226145
 40
0.871767571972927
 40
0.9348361909503129
 40
1.0
 40
1.0
 40
1.0
 40
1.0
 10
35.3907681497886
 20
48.10411196645851
 30
0.0
 10
35.35683053846684
 20
48.10314737478424
 30
0.0
 10
35.28983140979902
 20
48.10124309221457
 30
0.0
 10
35.191211825091
 20
48.08675918750433
 30
0.0
 10
35.09627167115865
 20
48.06381168343584
 30
0.0
 10
35.00483082702718
 20
48.03120762717597
 30
0.0
 10
34.91719765461078
 20
47.9891087282647
 30
0.0
 10
34.83328825220767
 20
47.93740036806341
 30
0.0
 10
34.75285581229967
 20
47.87676741158438
 30
0.0
 10
34.67747374893865
 20
47.80730473997435
 30
0.0
 10
34.60829143677631
 20
47.73142574543481
 30
0.0
 10
34.54781346018029
 20
47.65057738654981
 30
0.0
 10
34.49638835380932
 20
47.56607104027334
 30
0.0
 10
34.45354819487137
 20
47.47781882913334
 30
0.0
 10
34.42164100677582
 20
47.38492641523068
 30
0.0
 10
34.39846798429086
 20
47.28844578400366
 30
0.0
 10
34.38399774382794
 20
47.1881803675216
 30
0.0
 10
34.38211136524015
 20
47.12001934921609
 30
0.0
 10
34.38115276517321
 20
47.08538199850979
 30
0.0
  0
SPLINE
  5
FC
330
1F
100
AcDbEntity
  8
0
  6
Continuous
 62
     7
370
    25
100
AcDbSpline
210
0.0
220
0.0
230
1.0
 70
     8
 71
     3
 72
    19
 73
    15
 74
     0
 42
0.00000001
 43
0.00000001
 40
0.0
 40
0.0
 40
0.0
 40
0.0
 40
0.0856056949735276
 40
0.1689832639222326
 40
0.2509075823297915
 40
0.3337080961143223
 40
0.4160049842563393
 40
0.4976595675743805
 40
0.5798932856419631
 40
0.6639023210428572
 40
0.748466253808258
 40
0.8317908864798577
 40
0.915251908831686
 40
1.0
 40
1.0
 40
1.0
 40
1.0
 10
35.3907681497886
 20
46.08488119722774
 30
0.0
 10
35.43599451872184
 20
46.0861914774949
 30
0.0
 10
35.52527011469769
 20
46.08877793434529
 30
0.0
 10
35.6557292915316
 20
46.11449675407267
 30
0.0
 10
35.78064326340024
 20
46.15460041477711
 30
0.0
 10
35.89887465091709
 20
46.2105226246536
 30
0.0
 10
36.00844125435096
 20
46.28153503942332
 30
0.0
 10
36.10779037567395
 20
46.36597141649682
 30
0.0
 10
36.19353898680799
 20
46.46538526784928
 30
0.0
 10
36.26687259171615
 20
46.57594279666981
 30
0.0
 10
36.32641933442613
 20
46.69522714876284
 30
0.0
 10
36.36960253621758
 20
46.82101762107023
 30
0.0
 10
36.39560012209942
 20
46.95179966298581
 30
0.0
 10
36.39878095082633
 20
47.04062799372308
 30
0.0
 10
36.400383534404
 20
47.0853819985098
 30
0.0
  0
SPLINE
  5
FD
330
1F
100
AcDbEntity
  8
0
  6
Continuous
 62
     7
370
    25
100
AcDbSpline
210
0.0
220
0.0
230
1.0
 70
     8
 71
     3
 72
    23
 73
    19
 74
     0
 42
0.00000001
 43
0.00000001
 40
0.0
 40
0.0
 40
0.0
 40
0.0
 40
0.0651847959860746
 40
0.1282737271139282
 40
0.1902702203927575
 40
0.2517683137756842
 40
0.3127686945781246
 40
0.3747932794097867
 40
0.4379695860627114
 40
0.50304739986337
 40
0.5681252136640319
 40
0.630949748712263
 40
0.6923691093867037
 40
0.7529731677502645
 40
0.8136410669177457
 40
0.8743552086918169
 40
0.9365729684654847
 40
1.0
 40
1.0
 40
1.0
 40
1.0
 10
36.40038353440399
 20
47.08538199850979
 30
0.0
 10
36.39942526437802
 20
47.12001955622112
 30
0.0
 10
36.39753953526046
 20
47.18818098188094
 30
0.0
 10
36.38306457088045
 20
47.28844343547441
 30
0.0
 10
36.35990903121702
 20
47.38493503210395
 30
0.0
 10
36.32793741396298
 20
47.47778703538666
 30
0.0
 10
36.28528340011447
 20
47.56629953970849
 30
0.0
 10
36.23286660703675
 20
47.65032926676558
 30
0.0
 10
36.17263558162979
 20
47.73170581281794
 30
0.0
 10
36.1026184607317
 20
47.80705945360564
 30
0.0
 10
36.02731508284976
 20
47.87679449017885
 30
0.0
 10
35.94685004466749
 20
47.9374238795783
 30
0.0
 10
35.86306506608436
 20
47.98888147507379
 30
0.0
 10
35.7756864834233
 20
48.03156771564625
 30
0.0
 10
35.68423391577588
 20
48.06351505597217
 30
0.0
 10
35.58942678659505
 20
48.08689168747534
 30
0.0
 10
35.49122797665538
 20
48.10118188410817
 30
0.0
 10
35.42446893349518
 20
48.10312902556949
 30
0.0
 10
35.3907681497886
 20
48.10411196645851
 30
0.0
  0
SPLINE
  5
FE
330
1F
100
AcDbEntity
  8
0
  6
Continuous
 62
     7
370
    25
100
AcDbSpline
210
0.0
220
0.0
230
1.0
 70
     8
 71
     3
 72
    19
 73
    15
 74
     0
 42
0.00000001
 43
0.00000001
 40
0.0
 40
0.0
 40
0.0
 40
0.0
 40
0.0847327446980161
 40
0.1681786536463116
 40
0.2514881976122811
 40
0.3358406713894902
 40
0.4198344941507962
 40
0.5023448759880096
 40
0.5836490197324395
 40
0.6659310052762735
 40
0.7487165252643907
 40
0.8310473361373614
 40
0.9144098067945607
 40
1.0
 40
1.0
 40
1.0
 40
1.0
 10
34.38115276517321
 20
47.08538199850979
 30
0.0
 10
34.38275958880874
 20
47.04062997134992
 30
0.0
 10
34.38594883325764
 20
46.95180556583215
 30
0.0
 10
34.4118840696927
 20
46.82099444319556
 30
0.0
 10
34.45527034957507
 20
46.69541259107684
 30
0.0
 10
34.51385762928427
 20
46.57579620503439
 30
0.0
 10
34.58726384796484
 20
46.46512392699567
 30
0.0
 10
34.67375091464117
 20
46.36645244264191
 30
0.0
 10
34.77239061500409
 20
46.28126663119443
 30
0.0
 10
34.88200711519845
 20
46.21058578563527
 30
0.0
 10
35.00036143311019
 20
46.15442602994019
 30
0.0
 10
35.12561775421877
 20
46.1146270542235
 30
0.0
 10
35.25625844826448
 20
46.08875536182625
 30
0.0
 10
35.34553917941377
 20
46.08618388747141
 30
0.0
 10
35.3907681497886
 20
46.08488119722774
 30
0.0
  0
LINE
  5
FF
330
1F
100
AcDbEntity
  8
0
  6
Continuous
 62
     7
370
    25
100
AcDbLine
 10
37.6567937908
 20
44.8733427357
 30
0.0
 11
37.3426912267
 21
44.8733427357
 31
0.0
  0
LINE
  5
100
330
1F
100
AcDbEntity
  8
0
  6
Continuous
 62
     7
370
    25
100
AcDbLine
 10
37.6567937908
 20
46.2790919344
 30
0.0
 11
37.6567937908
 21
44.8733427357
 31
0.0
  0
LINE
  5
101
330
1F
100
AcDbEntity
  8
0
  6
Continuous
 62
     7
370
    25
100
AcDbLine
 10
37.6567937908
 20
48.3733427357
 30
0.0
 11
37.6567937908
 21
47.9000855242
 31
0.0
  0
LINE
  5
102
330
1F
100
AcDbEntity
  8
0
  6
Continuous
 62
     7
370
    25
100
AcDbLine
 10
37.3426912267
 20
48.3733427357
 30
0.0
 11
37.6567937908
 21
48.3733427357
 31
0.0
  0
LINE
  5
103
330
1F
100
AcDbEntity
  8
0
  6
Continuous
 62
     7
370
    25
100
AcDbLine
 10
37.3426912267
 20
44.8733427357
 30
0.0
 11
37.3426912267
 21
48.3733427357
 31
0.0
  0
LINE
  5
104
330
1F
100
AcDbEntity
  8
0
  6
Continuous
 62
     7
370
    25
100
AcDbLine
 10
32.4067937908
 20
48.3733427357
 30
0.0
 11
32.8555117395
 21
48.3733427357
 31
0.0
  0
LINE
  5
105
330
1F
100
AcDbEntity
  8
0
  6
Continuous
 62
     7
370
    25
100
AcDbLine
 10
32.4067937908
 20
48.0592401716
 30
0.0
 11
32.4067937908
 21
48.3733427357
 31
0.0
  0
LINE
  5
106
330
1F
100
AcDbEntity
  8
0
  6
Continuous
 62
     7
370
    25
100
AcDbLine
 10
32.8555117395
 20
48.0592401716
 30
0.0
 11
32.4067937908
 21
48.0592401716
 31
0.0
  0
LINE
  5
107
330
1F
100
AcDbEntity
  8
0
  6
Continuous
 62
     7
370
    25
100
AcDbLine
 10
32.8555117395
 20
45.815650428
 30
0.0
 11
32.8555117395
 21
48.0592401716
 31
0.0
  0
LINE
  5
108
330
1F
100
AcDbEntity
  8
0
  6
Continuous
 62
     7
370
    25
100
AcDbLine
 10
33.1696143036
 20
45.815650428
 30
0.0
 11
32.8555117395
 21
45.815650428
 31
0.0
  0
LINE
  5
109
330
1F
100
AcDbEntity
  8
0
  6
Continuous
 62
     7
370
    25
100
AcDbLine
 10
33.1696143036
 20
48.0592401716
 30
0.0
 11
33.1696143036
 21
45.815650428
 31
0.0
  0
LINE
  5
10A
330
1F
100
AcDbEntity
  8
0
  6
Continuous
 62
     7
370
    25
100
AcDbLine
 10
33.6183322524
 20
48.0592401716
 30
0.0
 11
33.1696143036
 21
48.0592401716
 31
0.0
  0
LINE
  5
10B
330
1F
100
AcDbEntity
  8
0
  6
Continuous
 62
     7
370
    25
100
AcDbLine
 10
33.6183322524
 20
48.3733427357
 30
0.0
 11
33.6183322524
 21
48.0592401716
 31
0.0
  0
LINE
  5
10C
330
1F
100
AcDbEntity
  8
0
  6
Continuous
 62
     7
370
    25
100
AcDbLine
 10
33.1696143036
 20
48.3733427357
 30
0.0
 11
33.6183322524
 21
48.3733427357
 31
0.0
  0
LINE
  5
10D
330
1F
100
AcDbEntity
  8
0
  6
Continuous
 62
     7
370
    25
100
AcDbLine
 10
33.1696143036
 20
49.4053940177
 30
0.0
 11
33.1696143036
 21
48.3733427357
 31
0.0
  0
LINE
  5
10E
330
1F
100
AcDbEntity
  8
0
  6
Continuous
 62
     7
370
    25
100
AcDbLine
 10
32.8555117395
 20
49.4053940177
 30
0.0
 11
33.1696143036
 21
49.4053940177
 31
0.0
  0
LINE
  5
10F
330
1F
100
AcDbEntity
  8
0
  6
Continuous
 62
     7
370
    25
100
AcDbLine
 10
32.8555117395
 20
48.3733427357
 30
0.0
 11
32.8555117395
 21
49.4053940177
 31
0.0
  0
LINE
  5
110
330
1F
100
AcDbEntity
  8
0
  6
Continuous
 62
     7
370
    25
100
AcDbLine
 10
38.6779891685
 20
88.1244178501
 30
0.0
 11
39.1267071172
 21
88.1244178501
 31
0.0
  0
LINE
  5
111
330
1F
100
AcDbEntity
  8
0
  6
Continuous
 62
     7
370
    25
100
AcDbLine
 10
38.6779891685
 20
87.810315286
 30
0.0
 11
38.6779891685
 21
88.1244178501
 31
0.0
  0
LINE
  5
112
330
1F
100
AcDbEntity
  8
0
  6
Continuous
 62
     7
370
    25
100
AcDbLine
 10
39.1267071172
 20
87.810315286
 30
0.0
 11
38.6779891685
 21
87.810315286
 31
0.0
  0
LINE
  5
113
330
1F
100
AcDbEntity
  8
0
  6
Continuous
 62
     7
370
    25
100
AcDbLine
 10
39.1267071172
 20
85.5667255424
 30
0.0
 11
39.1267071172
 21
87.810315286
 31
0.0
  0
LINE
  5
114
330
1F
100
AcDbEntity
  8
0
  6
Continuous
 62
     7
370
    25
100
AcDbLine
 10
39.4408096813
 20
85.5667255424
 30
0.0
 11
39.1267071172
 21
85.5667255424
 31
0.0
  0
LINE
  5
115
330
1F
100
AcDbEntity
  8
0
  6
Continuous
 62
     7
370
    25
100
AcDbLine
 10
39.4408096813
 20
87.810315286
 30
0.0
 11
39.4408096813
 21
85.5667255424
 31
0.0
  0
LINE
  5
116
330
1F
100
AcDbEntity
  8
0
  6
Continuous
 62
     7
370
    25
100
AcDbLine
 10
39.8895276301
 20
87.810315286
 30
0.0
 11
39.4408096813
 21
87.810315286
 31
0.0
  0
LINE
  5
117
330
1F
100
AcDbEntity
  8
0
  6
Continuous
 62
     7
370
    25
100
AcDbLine
 10
39.8895276301
 20
88.1244178501
 30
0.0
 11
39.8895276301
 21
87.810315286
 31
0.0
  0
LINE
  5
118
330
1F
100
AcDbEntity
  8
0
  6
Continuous
 62
     7
370
    25
100
AcDbLine
 10
39.4408096813
 20
88.1244178501
 30
0.0
 11
39.8895276301
 21
88.1244178501
 31
0.0
  0
LINE
  5
119
330
1F
100
AcDbEntity
  8
0
  6
Continuous
 62
     7
370
    25
100
AcDbLine
 10
39.4408096813
 20
89.1564691321
 30
0.0
 11
39.4408096813
 21
88.1244178501
 31
0.0
  0
LINE
  5
11A
330
1F
100
AcDbEntity
  8
0
  6
Continuous
 62
     7
370
    25
100
AcDbLine
 10
39.1267071172
 20
89.1564691321
 30
0.0
 11
39.4408096813
 21
89.1564691321
 31
0.0
  0
LINE
  5
11B
330
1F
100
AcDbEntity
  8
0
  6
Continuous
 62
     7
370
    25
100
AcDbLine
 10
39.1267071172
 20
88.1244178501
 30
0.0
 11
39.1267071172
 21
89.1564691321
 31
0.0
  0
LINE
  5
11C
330
1F
100
AcDbEntity
  8
0
  6
Continuous
 62
     7
370
    25
100
AcDbLine
 10
36.3446558352
 20
87.6511606385
 30
0.0
 11
36.3446558352
 21
88.1244178501
 31
0.0
  0
LINE
  5
11D
330
1F
100
AcDbEntity
  8
0
  6
Continuous
 62
     7
370
    25
100
AcDbLine
 10
36.6587583993
 20
85.5667255424
 30
0.0
 11
36.3446558352
 21
85.5667255424
 31
0.0
  0
LINE
  5
11E
330
1F
100
AcDbEntity
  8
0
  6
Continuous
 62
     7
370
    25
100
AcDbLine
 10
36.6587583993
 20
88.1244178501
 30
0.0
 11
36.6587583993
 21
85.5667255424
 31
0.0
  0
LINE
  5
11F
330
1F
100
AcDbEntity
  8
0
  6
Continuous
 62
     7
370
    25
100
AcDbLine
 10
36.3446558352
 20
88.1244178501
 30
0.0
 11
36.6587583993
 21
88.1244178501
 31
0.0
  0
LINE
  5
120
330
1F
100
AcDbEntity
  8
0
  6
Continuous
 62
     7
370
    25
100
AcDbLine
 10
29.748501989
 20
86.2419058308
 30
0.0
 11
30.0443753865
 21
86.4192896449
 31
0.0
  0
LINE
  5
121
330
1F
100
AcDbEntity
  8
0
  6
Continuous
 62
     7
370
    25
100
AcDbLine
 10
174.35
 20
84.35
 30
0.0
 11
104.35
 21
84.35
 31
0.0
  0
LINE
  5
122
330
1F
100
AcDbEntity
  8
0
  6
Continuous
 62
     7
370
    25
100
AcDbLine
 10
104.35
 20
14.35
 30
0.0
 11
174.35
 21
14.35
 31
0.0
  0
LINE
  5
123
330
1F
100
AcDbEntity
  8
0
  6
Continuous
 62
     7
370
    25
100
AcDbLine
 10
174.35
 20
14.35
 30
0.0
 11
174.35
 21
84.35
 31
0.0
  0
LINE
  5
124
330
1F
100
AcDbEntity
  8
0
  6
Continuous
 62
     7
370
    25
100
AcDbLine
 10
20.0
 20
112.25
 30
0.0
 11
95.4
 21
112.25
 31
0.0
  0
LINE
  5
125
330
1F
100
AcDbEntity
  8
0
  6
Continuous
 62
     7
370
    25
100
AcDbLine
 10
95.4
 20
112.25
 30
0.0
 11
95.4
 21
136.25
 31
0.0
  0
LINE
  5
126
330
1F
100
AcDbEntity
  8
0
  6
Continuous
 62
     7
370
    25
100
AcDbLine
 10
20.0
 20
136.25
 30
0.0
 11
20.0
 21
112.25
 31
0.0
  0
LINE
  5
127
330
1F
100
AcDbEntity
  8
0
  6
Continuous
 62
     7
370
    25
100
AcDbLine
 10
200.0
 20
150.0
 30
0.0
 11
0.0
 21
150.0
 31
0.0
  0
LINE
  5
128
330
1F
100
AcDbEntity
  8
0
  6
Continuous
 62
     7
370
    25
100
AcDbLine
 10
32.3061942967
 20
88.1244178501
 30
0.0
 11
32.7549122454
 21
88.1244178501
 31
0.0
  0
LINE
  5
129
330
1F
100
AcDbEntity
  8
0
  6
Continuous
 62
     7
370
    25
100
AcDbLine
 10
32.7549122454
 20
85.5667255424
 30
0.0
 11
32.7549122454
 21
87.810315286
 31
0.0
  0
LINE
  5
12A
330
1F
100
AcDbEntity
  8
0
  6
Continuous
 62
     7
370
    25
100
AcDbLine
 10
33.0690148095
 20
85.5667255424
 30
0.0
 11
32.7549122454
 21
85.5667255424
 31
0.0
  0
LINE
  5
12B
330
1F
100
AcDbEntity
  8
0
  6
Continuous
 62
     7
370
    25
100
AcDbLine
 10
33.0690148095
 20
87.810315286
 30
0.0
 11
33.0690148095
 21
85.5667255424
 31
0.0
  0
LINE
  5
12C
330
1F
100
AcDbEntity
  8
0
  6
Continuous
 62
     7
370
    25
100
AcDbLine
 10
33.5177327583
 20
87.810315286
 30
0.0
 11
33.0690148095
 21
87.810315286
 31
0.0
  0
LINE
  5
12D
330
1F
100
AcDbEntity
  8
0
  6
Continuous
 62
     7
370
    25
100
AcDbLine
 10
33.5177327583
 20
88.1244178501
 30
0.0
 11
33.5177327583
 21
87.810315286
 31
0.0
  0
LINE
  5
12E
330
1F
100
AcDbEntity
  8
0
  6
Continuous
 62
     7
370
    25
100
AcDbLine
 10
33.0690148095
 20
88.1244178501
 30
0.0
 11
33.5177327583
 21
88.1244178501
 31
0.0
  0
LINE
  5
12F
330
1F
100
AcDbEntity
  8
0
  6
Continuous
 62
     7
370
    25
100
AcDbLine
 10
33.0690148095
 20
89.1564691321
 30
0.0
 11
33.0690148095
 21
88.1244178501
 31
0.0
  0
LINE
  5
130
330
1F
100
AcDbEntity
  8
0
  6
Continuous
 62
     7
370
    25
100
AcDbLine
 10
32.7549122454
 20
89.1564691321
 30
0.0
 11
33.0690148095
 21
89.1564691321
 31
0.0
  0
LINE
  5
131
330
1F
100
AcDbEntity
  8
0
  6
Continuous
 62
     7
370
    25
100
AcDbLine
 10
32.7549122454
 20
88.1244178501
 30
0.0
 11
32.7549122454
 21
89.1564691321
 31
0.0
  0
LINE
  5
132
330
1F
100
AcDbEntity
  8
0
  6
Continuous
 62
     7
370
    25
100
AcDbLine
 10
37.6010660916
 20
85.5667255424
 30
0.0
 11
37.2869635275
 21
85.5667255424
 31
0.0
  0
LINE
  5
133
330
1F
100
AcDbEntity
  8
0
  6
Continuous
 62
     7
370
    25
100
AcDbLine
 10
38.498501989
 20
88.0816494206
 30
0.0
 11
38.3260260275
 21
87.8096141642
 31
0.0
  0
LINE
  5
134
330
1F
100
AcDbEntity
  8
0
  6
Continuous
 62
     7
370
    25
100
AcDbLine
 10
37.6010660916
 20
88.1244178501
 30
0.0
 11
37.6010660916
 21
87.7479154462
 31
0.0
  0
LINE
  5
135
330
1F
100
AcDbEntity
  8
0
  6
Continuous
 62
     7
370
    25
100
AcDbLine
 10
37.2869635275
 20
88.1244178501
 30
0.0
 11
37.6010660916
 21
88.1244178501
 31
0.0
  0
LINE
  5
136
330
1F
100
AcDbEntity
  8
0
  6
Continuous
 62
     7
370
    25
100
AcDbLine
 10
37.2869635275
 20
85.5667255424
 30
0.0
 11
37.2869635275
 21
88.1244178501
 31
0.0
  0
LINE
  5
137
330
1F
100
AcDbEntity
  8
0
  6
Continuous
 62
     7
370
    25
100
AcDbLine
 10
31.8683322524
 20
48.8129461011
 30
0.0
 11
31.5843779254
 21
48.59770171
 31
0.0
  0
LINE
  5
138
330
1F
100
AcDbEntity
  8
0
  6
Continuous
 62
     7
370
    25
100
AcDbLine
 10
29.8491014831
 20
46.4908307165
 30
0.0
 11
30.1449748806
 21
46.6682145306
 31
0.0
  0
LINE
  5
139
330
1F
100
AcDbEntity
  8
0
  6
Continuous
 62
     7
370
    25
100
AcDbLine
 10
111.7
 20
123.2
 30
0.0
 11
125.0
 21
123.2
 31
0.0
  0
LINE
  5
13A
330
1F
100
AcDbEntity
  8
0
  6
Continuous
 62
     7
370
    25
100
AcDbLine
 10
111.7
 20
142.5
 30
0.0
 11
111.7
 21
123.2
 31
0.0
  0
LINE
  5
13B
330
1F
100
AcDbEntity
  8
0
  6
Continuous
 62
     7
370
    25
100
AcDbLine
 10
125.0
 20
142.5
 30
0.0
 11
111.7
 21
142.5
 31
0.0
  0
LINE
  5
13C
330
1F
100
AcDbEntity
  8
0
  6
Continuous
 62
     7
370
    25
100
AcDbLine
 10
36.3446558352
 20
85.5667255424
 30
0.0
 11
36.3446558352
 21
86.0091333949
 31
0.0
  0
LINE
  5
13D
330
1F
100
AcDbEntity
  8
0
  6
Continuous
 62
     7
370
    25
100
AcDbLine
 10
32.3061942967
 20
87.810315286
 30
0.0
 11
32.3061942967
 21
88.1244178501
 31
0.0
  0
LINE
  5
13E
330
1F
100
AcDbEntity
  8
0
  6
Continuous
 62
     7
370
    25
100
AcDbLine
 10
104.35
 20
84.35
 30
0.0
 11
104.35
 21
14.35
 31
0.0
  0
LINE
  5
13F
330
1F
100
AcDbEntity
  8
0
  6
Continuous
 62
     7
370
    25
100
AcDbLine
 10
0.0
 20
150.0
 30
0.0
 11
0.0
 21
0.0
 31
0.0
  0
LINE
  5
140
330
1F
100
AcDbEntity
  8
0
  6
Continuous
 62
     7
370
    25
100
AcDbLine
 10
31.7677327583
 20
88.5640212155
 30
0.0
 11
31.4837784313
 21
88.3487768244
 31
0.0
  0
LINE
  5
141
330
1F
100
AcDbEntity
  8
0
  6
Continuous
 62
     7
370
    25
100
AcDbLine
 10
200.0
 20
0.0
 30
0.0
 11
200.0
 21
150.0
 31
0.0
  0
LINE
  5
142
330
1F
100
AcDbEntity
  8
0
  6
Continuous
 62
     7
370
    25
100
AcDbLine
 10
125.0
 20
123.2
 30
0.0
 11
125.0
 21
142.5
 31
0.0
  0
LINE
  5
143
330
1F
100
AcDbEntity
  8
0
  6
Continuous
 62
     7
370
    25
100
AcDbLine
 10
32.7549122454
 20
87.810315286
 30
0.0
 11
32.3061942967
 21
87.810315286
 31
0.0
  0
LINE
  5
144
330
1F
100
AcDbEntity
  8
0
  6
Continuous
 62
     7
370
    25
100
AcDbLine
 10
0.0
 20
0.0
 30
0.0
 11
200.0
 21
0.0
 31
0.0
  0
LINE
  5
145
330
1F
100
AcDbEntity
  8
0
  6
Continuous
 62
     7
370
    25
100
AcDbLine
 10
95.4
 20
136.25
 30
0.0
 11
20.0
 21
136.25
 31
0.0
  0
LINE
  5
146
330
1F
100
AcDbEntity
  8
0
  6
Continuous
 62
     7
370
    25
100
AcDbLine
 10
37.6010660916
 20
86.4263008629
 30
0.0
 11
37.6010660916
 21
85.5667255424
 31
0.0
  0
MTEXT
  5
148
330
1F
100
AcDbEntity
  8
0
  6
Continuous
 62
     7
100
AcDbMText
 10
0.0
 20
-1.0195663917
 30
0.0
 40
4.83362
 41
0.0
 71
     1
 72
     1
  1
SOLIDWORKS Educational Product.
  7
SLDTEXTSTYLE0
 73
     1
 44
1.0
  0
MTEXT
  5
149
330
1F
100
AcDbEntity
  8
0
  6
Continuous
 62
     7
100
AcDbMText
 10
0.0
 20
-8.2699963917
 30
0.0
 40
4.83362
 41
0.0
 71
     1
 72
     1
  1
For Instructional Use Only.
  7
SLDTEXTSTYLE0
 73
     1
 44
1.0
  0
ENDSEC
  0
SECTION
  2
OBJECTS
  0
DICTIONARY
  5
C
330
0
100
AcDbDictionary
281
     1
  3
ACAD_GROUP
350
D
  3
ACAD_LAYOUT
350
1A
  3
ACAD_MLINESTYLE
350
17
  3
ACAD_PLOTSETTINGS
350
19
  3
ACAD_PLOTSTYLENAME
350
E
  3
ACAD_SCALELIST
350
47
  3
DWGPROPS
350
14A
  0
DICTIONARY
  5
D
102
{ACAD_REACTORS
330
C
102
}
330
C
100
AcDbDictionary
281
     1
  0
DICTIONARY
  5
1A
102
{ACAD_REACTORS
330
C
102
}
330
C
100
AcDbDictionary
281
     1
  3
Layout1
350
1E
  3
Layout2
350
26
  3
Model
350
22
  0
DICTIONARY
  5
17
102
{ACAD_REACTORS
330
C
102
}
330
C
100
AcDbDictionary
281
     1
  3
Standard
350
18
  0
DICTIONARY
  5
19
102
{ACAD_REACTORS
330
C
102
}
330
C
100
AcDbDictionary
281
     1
  0
ACDBDICTIONARYWDFLT
  5
E
102
{ACAD_REACTORS
330
C
102
}
330
C
100
AcDbDictionary
281
     1
  3
Normal
350
F
100
AcDbDictionaryWithDefault
340
F
  0
DICTIONARY
  5
47
102
{ACAD_REACTORS
330
C
102
}
330
C
100
AcDbDictionary
281
     1
  3
A0
350
48
  3
A1
350
49
  3
A2
350
4A
  3
A3
350
4B
  3
A4
350
4C
  3
A5
350
4D
  3
A6
350
4E
  3
A7
350
4F
  3
A8
350
50
  3
A9
350
51
  3
B0
350
52
  3
B1
350
53
  3
B2
350
54
  3
B3
350
55
  3
B4
350
56
  3
B5
350
57
  3
B6
350
58
  0
XRECORD
  5
14A
102
{ACAD_REACTORS
330
C
102
}
330
C
100
AcDbXrecord
280
     1
  1
DWGPROPS COOKIE
  2

  3

  4

  6

  7

  8
mechb
  9

300
=
301
=
302
=
303
=
304
=
305
=
306
=
307
=
308
=
309
=
 40
0.0
 41
2460628.041060232
 42
2460628.041086204
  1

 90
        0
  0
LAYOUT
  5
1E
102
{ACAD_REACTORS
330
1A
102
}
330
1A
100
AcDbPlotSettings
  1

  2
none_device
  4

  6

 40
0.0
 41
0.0
 42
0.0
 43
0.0
 44
0.0
 45
0.0
 46
0.0
 47
0.0
 48
0.0
 49
0.0
140
0.0
141
0.0
142
1.0
143
1.0
 70
   688
 72
     1
 73
     0
 74
     5
  7

 75
    16
147
1.0
148
0.0
149
0.0
100
AcDbLayout
  1
Layout1
 70
     1
 71
     1
 10
0.0
 20
0.0
 11
420.0
 21
297.0
 12
0.0
 22
0.0
 32
0.0
 14
1.0000000000E+20
 24
1.0000000000E+20
 34
1.0000000000E+20
 15
-1.0000000000E+20
 25
-1.0000000000E+20
 35
-1.0000000000E+20
146
0.0
 13
0.0
 23
0.0
 33
0.0
 16
1.0
 26
0.0
 36
0.0
 17
0.0
 27
1.0
 37
0.0
 76
     0
330
1B
  0
LAYOUT
  5
26
102
{ACAD_REACTORS
330
1A
102
}
330
1A
100
AcDbPlotSettings
  1

  2
none_device
  4

  6

 40
0.0
 41
0.0
 42
0.0
 43
0.0
 44
0.0
 45
0.0
 46
0.0
 47
0.0
 48
0.0
 49
0.0
140
0.0
141
0.0
142
1.0
143
1.0
 70
   688
 72
     1
 73
     0
 74
     5
  7

 75
    16
147
1.0
148
0.0
149
0.0
100
AcDbLayout
  1
Layout2
 70
     1
 71
     2
 10
0.0
 20
0.0
 11
0.0
 21
0.0
 12
0.0
 22
0.0
 32
0.0
 14
0.0
 24
0.0
 34
0.0
 15
0.0
 25
0.0
 35
0.0
146
0.0
 13
0.0
 23
0.0
 33
0.0
 16
1.0
 26
0.0
 36
0.0
 17
0.0
 27
1.0
 37
0.0
 76
     0
330
23
  0
LAYOUT
  5
22
102
{ACAD_REACTORS
330
1A
102
}
330
1A
100
AcDbPlotSettings
  1

  2
none_device
  4
ANSI_A_(11.00_x_8.50_Inches)
  6

 40
6.35
 41
19.05
 42
6.35000508
 43
19.05000254
 44
279.4
 45
215.9
 46
-4.95300254
 47
-14.82725127
 48
0.0
 49
0.0
140
0.0
141
0.0
142
0.05445
143
1.0
 70
  1696
 72
     0
 73
     0
 74
     0
  7

 75
     0
147
0.0179189148
148
-1300.4909072572
149
0.0
100
AcDbLayout
  1
Model
 70
     1
 71
     0
 10
0.0
 20
0.0
 11
420.0
 21
297.0
 12
0.0
 22
0.0
 32
0.0
 14
0.0
 24
0.0
 34
0.0
 15
200.0
 25
150.0
 35
0.0
146
0.0
 13
0.0
 23
0.0
 33
0.0
 16
1.0
 26
0.0
 36
0.0
 17
0.0
 27
1.0
 37
0.0
 76
     0
330
1F
331
29
  0
MLINESTYLE
  5
18
102
{ACAD_REACTORS
330
17
102
}
330
17
100
AcDbMlineStyle
  2
Standard
 70
     0
  3

 62
   256
 51
90.0
 52
90.0
 71
     2
 49
0.5
 62
   256
  6
BYLAYER
 49
-0.5
 62
   256
  6
BYLAYER
  0
ACDBPLACEHOLDER
  5
F
102
{ACAD_REACTORS
330
E
102
}
330
E
  0
SCALE
  5
48
102
{ACAD_REACTORS
330
47
102
}
330
47
100
AcDbScale
 70
     0
300
1:1
140
1.0
141
1.0
290
     1
  0
SCALE
  5
49
102
{ACAD_REACTORS
330
47
102
}
330
47
100
AcDbScale
 70
     0
300
1:2
140
1.0
141
2.0
290
     0
  0
SCALE
  5
4A
102
{ACAD_REACTORS
330
47
102
}
330
47
100
AcDbScale
 70
     0
300
1:4
140
1.0
141
4.0
290
     0
  0
SCALE
  5
4B
102
{ACAD_REACTORS
330
47
102
}
330
47
100
AcDbScale
 70
     0
300
1:5
140
1.0
141
5.0
290
     0
  0
SCALE
  5
4C
102
{ACAD_REACTORS
330
47
102
}
330
47
100
AcDbScale
 70
     0
300
1:8
140
1.0
141
8.0
290
     0
  0
SCALE
  5
4D
102
{ACAD_REACTORS
330
47
102
}
330
47
100
AcDbScale
 70
     0
300
1:10
140
1.0
141
10.0
290
     0
  0
SCALE
  5
4E
102
{ACAD_REACTORS
330
47
102
}
330
47
100
AcDbScale
 70
     0
300
1:16
140
1.0
141
16.0
290
     0
  0
SCALE
  5
4F
102
{ACAD_REACTORS
330
47
102
}
330
47
100
AcDbScale
 70
     0
300
1:20
140
1.0
141
20.0
290
     0
  0
SCALE
  5
50
102
{ACAD_REACTORS
330
47
102
}
330
47
100
AcDbScale
 70
     0
300
1:30
140
1.0
141
30.0
290
     0
  0
SCALE
  5
51
102
{ACAD_REACTORS
330
47
102
}
330
47
100
AcDbScale
 70
     0
300
1:40
140
1.0
141
40.0
290
     0
  0
SCALE
  5
52
102
{ACAD_REACTORS
330
47
102
}
330
47
100
AcDbScale
 70
     0
300
1:50
140
1.0
141
50.0
290
     0
  0
SCALE
  5
53
102
{ACAD_REACTORS
330
47
102
}
330
47
100
AcDbScale
 70
     0
300
1:100
140
1.0
141
100.0
290
     0
  0
SCALE
  5
54
102
{ACAD_REACTORS
330
47
102
}
330
47
100
AcDbScale
 70
     0
300
2:1
140
2.0
141
1.0
290
     0
  0
SCALE
  5
55
102
{ACAD_REACTORS
330
47
102
}
330
47
100
AcDbScale
 70
     0
300
4:1
140
4.0
141
1.0
290
     0
  0
SCALE
  5
56
102
{ACAD_REACTORS
330
47
102
}
330
47
100
AcDbScale
 70
     0
300
8:1
140
8.0
141
1.0
290
     0
  0
SCALE
  5
57
102
{ACAD_REACTORS
330
47
102
}
330
47
100
AcDbScale
 70
     0
300
10:1
140
10.0
141
1.0
290
     0
  0
SCALE
  5
58
102
{ACAD_REACTORS
330
47
102
}
330
47
100
AcDbScale
 70
     0
300
100:1
140
100.0
141
1.0
290
     0
  0
ENDSEC
  0
EOF
