ISO-10303-21;
HEADER;
FILE_DESCRIPTION (( 'STEP AP214' ),
    '1' );
FILE_NAME ('Solenoid mount.STEP',
    '2025-11-14T14:42:53',
    ( '' ),
    ( '' ),
    'SwSTEP 2.0',
    'SolidWorks 2025',
    '' );
FILE_SCHEMA (( 'AUTOMOTIVE_DESIGN' ));
ENDSEC;

DATA;
#1 = DIRECTION ( 'NONE',  ( -0.000000000000000000, 1.000000000000000000, 0.000000000000000000 ) ) ;
#2 = VERTEX_POINT ( 'NONE', #283 ) ;
#3 = CARTESIAN_POINT ( 'NONE',  ( 105.0000000000000284, 18.00000000000001066, 77.50000000000001421 ) ) ;
#4 = ORIENTED_EDGE ( 'NONE', *, *, #930, .T. ) ;
#5 = DIRECTION ( 'NONE',  ( -1.000000000000000000, -0.000000000000000000, -0.000000000000000000 ) ) ;
#6 = DIRECTION ( 'NONE',  ( -1.000000000000000000, 0.000000000000000000, -0.000000000000000000 ) ) ;
#7 = ORIENTED_EDGE ( 'NONE', *, *, #747, .T. ) ;
#8 = EDGE_CURVE ( 'NONE', #526, #449, #718, .T. ) ;
#9 = FACE_OUTER_BOUND ( 'NONE', #801, .T. ) ;
#10 = VECTOR ( 'NONE', #362, 1000.000000000000000 ) ;
#11 = ORIENTED_EDGE ( 'NONE', *, *, #465, .T. ) ;
#12 = DIRECTION ( 'NONE',  ( 0.000000000000000000, 0.000000000000000000, 1.000000000000000000 ) ) ;
#13 = DIRECTION ( 'NONE',  ( -1.000000000000000000, -0.000000000000000000, 0.000000000000000000 ) ) ;
#14 = ORIENTED_EDGE ( 'NONE', *, *, #748, .F. ) ;
#15 = EDGE_CURVE ( 'NONE', #349, #593, #292, .T. ) ;
#16 = CARTESIAN_POINT ( 'NONE',  ( 105.0000000000000284, 15.00000000000000000, 122.5000000000000000 ) ) ;
#17 = ADVANCED_FACE ( 'NONE', ( #424, #513 ), #679, .F. ) ;
#18 = AXIS2_PLACEMENT_3D ( 'NONE', #74, #759, #206 ) ;
#19 = ORIENTED_EDGE ( 'NONE', *, *, #697, .T. ) ;
#20 = CYLINDRICAL_SURFACE ( 'NONE', #456, 3.934999999999994280 ) ;
#21 = DIRECTION ( 'NONE',  ( 0.000000000000000000, -0.000000000000000000, 1.000000000000000000 ) ) ;
#22 = VERTEX_POINT ( 'NONE', #226 ) ;
#23 = DIRECTION ( 'NONE',  ( 0.000000000000000000, 0.000000000000000000, -1.000000000000000000 ) ) ;
#24 = ORIENTED_EDGE ( 'NONE', *, *, #170, .T. ) ;
#25 = DIRECTION ( 'NONE',  ( -1.000000000000000000, 0.000000000000000000, -0.000000000000000000 ) ) ;
#26 = PLANE ( 'NONE',  #687 ) ;
#27 = CARTESIAN_POINT ( 'NONE',  ( 94.99999999999998579, 0.000000000000000000, 122.5000000000000000 ) ) ;
#28 = ORIENTED_EDGE ( 'NONE', *, *, #262, .T. ) ;
#29 = ADVANCED_FACE ( 'NONE', ( #767 ), #472, .F. ) ;
#30 = DIRECTION ( 'NONE',  ( 0.000000000000000000, 0.000000000000000000, -1.000000000000000000 ) ) ;
#31 = CARTESIAN_POINT ( 'NONE',  ( 99.99999999999998579, 15.00000000000000000, 115.8499999999999659 ) ) ;
#32 = VERTEX_POINT ( 'NONE', #836 ) ;
#33 = CARTESIAN_POINT ( 'NONE',  ( 105.0000000000000284, 38.00000000000001421, 89.50000000000001421 ) ) ;
#34 = PLANE ( 'NONE',  #75 ) ;
#35 = EDGE_CURVE ( 'NONE', #215, #593, #453, .T. ) ;
#36 = CARTESIAN_POINT ( 'NONE',  ( 99.99999999999998579, 33.13000000000000966, 110.2849999999999966 ) ) ;
#37 = AXIS2_PLACEMENT_3D ( 'NONE', #843, #13, #313 ) ;
#38 = DIRECTION ( 'NONE',  ( 0.000000000000000000, 0.000000000000000000, -1.000000000000000000 ) ) ;
#39 = DIRECTION ( 'NONE',  ( -1.000000000000000000, 0.000000000000000000, 0.000000000000000000 ) ) ;
#40 = AXIS2_PLACEMENT_3D ( 'NONE', #43, #959, #881 ) ;
#41 = DIRECTION ( 'NONE',  ( 0.000000000000000000, 1.000000000000000000, 0.000000000000000000 ) ) ;
#42 = EDGE_CURVE ( 'NONE', #540, #220, #78, .T. ) ;
#43 = CARTESIAN_POINT ( 'NONE',  ( 105.0000000000000284, 33.13000000000000966, 106.3499999999999943 ) ) ;
#44 = APPLICATION_CONTEXT ( 'automotive_design' ) ;
#45 = VERTEX_POINT ( 'NONE', #378 ) ;
#46 = FACE_BOUND ( 'NONE', #846, .T. ) ;
#47 = FACE_OUTER_BOUND ( 'NONE', #426, .T. ) ;
#48 = LINE ( 'NONE', #348, #857 ) ;
#49 = ORIENTED_EDGE ( 'NONE', *, *, #748, .T. ) ;
#50 = VERTEX_POINT ( 'NONE', #97 ) ;
#51 = AXIS2_PLACEMENT_3D ( 'NONE', #120, #425, #205 ) ;
#52 = CARTESIAN_POINT ( 'NONE',  ( 99.99999999999998579, 22.00000000000001421, 93.64999999999999147 ) ) ;
#53 = DIRECTION ( 'NONE',  ( 0.000000000000000000, 0.000000000000000000, 1.000000000000000000 ) ) ;
#54 = SURFACE_STYLE_FILL_AREA ( #983 ) ;
#55 = ORIENTED_EDGE ( 'NONE', *, *, #604, .F. ) ;
#56 = AXIS2_PLACEMENT_3D ( 'NONE', #450, #438, #671 ) ;
#57 = FACE_OUTER_BOUND ( 'NONE', #510, .T. ) ;
#58 = ORIENTED_EDGE ( 'NONE', *, *, #907, .T. ) ;
#59 = VECTOR ( 'NONE', #574, 1000.000000000000000 ) ;
#60 = VERTEX_POINT ( 'NONE', #157 ) ;
#61 = PRESENTATION_STYLE_ASSIGNMENT (( #279 ) ) ;
#62 = EDGE_CURVE ( 'NONE', #616, #903, #464, .T. ) ;
#63 = CARTESIAN_POINT ( 'NONE',  ( 105.0000000000000284, 18.00000000000001066, 79.50000000000001421 ) ) ;
#64 = EDGE_CURVE ( 'NONE', #547, #45, #117, .T. ) ;
#65 = CIRCLE ( 'NONE', #445, 2.000000000000001776 ) ;
#66 = ORIENTED_EDGE ( 'NONE', *, *, #894, .F. ) ;
#67 = ORIENTED_EDGE ( 'NONE', *, *, #683, .T. ) ;
#68 = CARTESIAN_POINT ( 'NONE',  ( 94.99999999999998579, 40.00000000000001421, 89.50000000000001421 ) ) ;
#69 = VERTEX_POINT ( 'NONE', #932 ) ;
#70 = LINE ( 'NONE', #3, #661 ) ;
#71 = EDGE_LOOP ( 'NONE', ( #514, #461, #823, #531 ) ) ;
#72 = DIRECTION ( 'NONE',  ( 0.000000000000000000, -1.000000000000000000, 0.000000000000000000 ) ) ;
#73 = ORIENTED_EDGE ( 'NONE', *, *, #394, .F. ) ;
#74 = CARTESIAN_POINT ( 'NONE',  ( 105.0000000000000284, 0.000000000000000000, 122.5000000000000000 ) ) ;
#75 = AXIS2_PLACEMENT_3D ( 'NONE', #644, #336, #724 ) ;
#76 = VERTEX_POINT ( 'NONE', #523 ) ;
#77 = ADVANCED_FACE ( 'NONE', ( #306 ), #20, .F. ) ;
#78 = LINE ( 'NONE', #398, #849 ) ;
#79 = FACE_OUTER_BOUND ( 'NONE', #217, .T. ) ;
#80 = ORIENTED_EDGE ( 'NONE', *, *, #894, .T. ) ;
#81 = FACE_OUTER_BOUND ( 'NONE', #916, .T. ) ;
#82 = ORIENTED_EDGE ( 'NONE', *, *, #556, .F. ) ;
#83 = DIRECTION ( 'NONE',  ( -1.000000000000000000, -0.000000000000000000, -0.000000000000000000 ) ) ;
#84 = EDGE_CURVE ( 'NONE', #664, #76, #419, .T. ) ;
#85 = LINE ( 'NONE', #384, #485 ) ;
#86 = ORIENTED_EDGE ( 'NONE', *, *, #170, .F. ) ;
#87 = ADVANCED_FACE ( 'NONE', ( #232 ), #620, .F. ) ;
#88 = CARTESIAN_POINT ( 'NONE',  ( 105.0000000000000284, 15.00000000000000000, 77.50000000000001421 ) ) ;
#89 = AXIS2_PLACEMENT_3D ( 'NONE', #779, #479, #256 ) ;
#90 = ORIENTED_EDGE ( 'NONE', *, *, #62, .F. ) ;
#91 = DIRECTION ( 'NONE',  ( 0.000000000000000000, 0.000000000000000000, 1.000000000000000000 ) ) ;
#92 = DIRECTION ( 'NONE',  ( 0.000000000000000000, 0.000000000000000000, -1.000000000000000000 ) ) ;
#93 = EDGE_LOOP ( 'NONE', ( #372, #820, #602, #738 ) ) ;
#94 = PLANE ( 'NONE',  #658 ) ;
#95 = VECTOR ( 'NONE', #520, 1000.000000000000000 ) ;
#96 = ORIENTED_EDGE ( 'NONE', *, *, #714, .F. ) ;
#97 = CARTESIAN_POINT ( 'NONE',  ( 105.0000000000000284, 20.00000000000000355, 85.50000000000000000 ) ) ;
#98 = CARTESIAN_POINT ( 'NONE',  ( 105.0000000000000284, 22.00000000000001421, 91.42499999999999716 ) ) ;
#99 = LINE ( 'NONE', #27, #905 ) ;
#100 = CIRCLE ( 'NONE', #189, 2.000000000000001776 ) ;
#101 = PRODUCT_DEFINITION_CONTEXT ( 'detailed design', #266, 'design' ) ;
#102 = ORIENTED_EDGE ( 'NONE', *, *, #245, .F. ) ;
#103 = FACE_BOUND ( 'NONE', #296, .T. ) ;
#104 = CARTESIAN_POINT ( 'NONE',  ( 99.99999999999998579, 33.13000000000000966, 106.3499999999999943 ) ) ;
#105 = ORIENTED_EDGE ( 'NONE', *, *, #852, .F. ) ;
#106 = AXIS2_PLACEMENT_3D ( 'NONE', #350, #656, #968 ) ;
#107 = DIRECTION ( 'NONE',  ( 0.000000000000000000, 0.000000000000000000, -1.000000000000000000 ) ) ;
#108 = CARTESIAN_POINT ( 'NONE',  ( 94.99999999999998579, 38.00000000000001421, 110.5000000000000000 ) ) ;
#109 = CARTESIAN_POINT ( 'NONE',  ( 99.99999999999998579, 33.13000000000000966, 106.3499999999999943 ) ) ;
#110 = CIRCLE ( 'NONE', #276, 2.225000000000004974 ) ;
#111 = ADVANCED_FACE ( 'NONE', ( #383 ), #529, .F. ) ;
#112 = CARTESIAN_POINT ( 'NONE',  ( 105.0000000000000284, 20.00000000000000711, 79.50000000000001421 ) ) ;
#113 = PLANE ( 'NONE',  #741 ) ;
#114 = ADVANCED_FACE ( 'NONE', ( #174 ), #606, .F. ) ;
#115 = DIRECTION ( 'NONE',  ( -1.000000000000000000, 0.000000000000000000, 0.000000000000000000 ) ) ;
#116 = CIRCLE ( 'NONE', #129, 2.000000000000001776 ) ;
#117 = CIRCLE ( 'NONE', #855, 1.649999999999998579 ) ;
#118 = CARTESIAN_POINT ( 'NONE',  ( 105.0000000000000284, 18.00000000000000355, 122.5000000000000000 ) ) ;
#119 = AXIS2_PLACEMENT_3D ( 'NONE', #109, #277, #198 ) ;
#120 = CARTESIAN_POINT ( 'NONE',  ( 99.99999999999998579, 15.00000000000000000, 82.50000000000004263 ) ) ;
#121 = CARTESIAN_POINT ( 'NONE',  ( 99.99999999999998579, 15.00000000000000000, 80.85000000000005116 ) ) ;
#122 = EDGE_CURVE ( 'NONE', #32, #817, #499, .T. ) ;
#123 = DIRECTION ( 'NONE',  ( 0.000000000000000000, 0.000000000000000000, 1.000000000000000000 ) ) ;
#124 = DIRECTION ( 'NONE',  ( 0.000000000000000000, 0.000000000000000000, -1.000000000000000000 ) ) ;
#125 = FACE_BOUND ( 'NONE', #734, .T. ) ;
#126 = ORIENTED_EDGE ( 'NONE', *, *, #735, .T. ) ;
#127 = CYLINDRICAL_SURFACE ( 'NONE', #565, 1.649999999999998579 ) ;
#128 = EDGE_LOOP ( 'NONE', ( #452, #624 ) ) ;
#129 = AXIS2_PLACEMENT_3D ( 'NONE', #483, #783, #947 ) ;
#130 = CARTESIAN_POINT ( 'NONE',  ( 105.0000000000000284, 22.00000000000000000, 114.5000000000000000 ) ) ;
#131 = CIRCLE ( 'NONE', #651, 2.000000000000001776 ) ;
#132 = DIRECTION ( 'NONE',  ( -1.000000000000000000, -0.000000000000000000, -0.000000000000000000 ) ) ;
#133 = ORIENTED_EDGE ( 'NONE', *, *, #551, .F. ) ;
#134 = LINE ( 'NONE', #739, #10 ) ;
#135 = ORIENTED_EDGE ( 'NONE', *, *, #954, .T. ) ;
#136 = ADVANCED_FACE ( 'NONE', ( #842 ), #391, .F. ) ;
#137 = VECTOR ( 'NONE', #978, 1000.000000000000000 ) ;
#138 = DIRECTION ( 'NONE',  ( 0.000000000000000000, 0.000000000000000000, 1.000000000000000000 ) ) ;
#139 = ORIENTED_EDGE ( 'NONE', *, *, #556, .T. ) ;
#140 = CIRCLE ( 'NONE', #821, 2.000000000000001776 ) ;
#141 = ORIENTED_EDGE ( 'NONE', *, *, #596, .T. ) ;
#142 = FACE_BOUND ( 'NONE', #467, .T. ) ;
#143 = ORIENTED_EDGE ( 'NONE', *, *, #35, .T. ) ;
#144 = DIRECTION ( 'NONE',  ( 0.000000000000000000, 1.000000000000000000, 0.000000000000000000 ) ) ;
#145 = ORIENTED_EDGE ( 'NONE', *, *, #827, .T. ) ;
#146 = CARTESIAN_POINT ( 'NONE',  ( 94.99999999999998579, 22.00000000000000355, 87.50000000000001421 ) ) ;
#147 = ORIENTED_EDGE ( 'NONE', *, *, #714, .T. ) ;
#148 = CYLINDRICAL_SURFACE ( 'NONE', #476, 2.000000000000001776 ) ;
#149 = ADVANCED_FACE ( 'NONE', ( #570, #272 ), #34, .F. ) ;
#150 = ORIENTED_EDGE ( 'NONE', *, *, #287, .T. ) ;
#151 = CARTESIAN_POINT ( 'NONE',  ( 99.99999999999998579, 22.00000000000001421, 93.64999999999999147 ) ) ;
#152 = CIRCLE ( 'NONE', #409, 2.225000000000004974 ) ;
#153 = DIRECTION ( 'NONE',  ( -1.000000000000000000, 0.000000000000000000, 0.000000000000000000 ) ) ;
#154 = ORIENTED_EDGE ( 'NONE', *, *, #837, .F. ) ;
#155 = CARTESIAN_POINT ( 'NONE',  ( 105.0000000000000284, 33.13000000000000966, 104.1250000000000000 ) ) ;
#156 = EDGE_LOOP ( 'NONE', ( #814, #754, #344, #589 ) ) ;
#157 = CARTESIAN_POINT ( 'NONE',  ( 105.0000000000000284, 15.00000000000000000, 77.50000000000001421 ) ) ;
#158 = DIRECTION ( 'NONE',  ( 0.000000000000000000, 0.000000000000000000, 1.000000000000000000 ) ) ;
#159 = ORIENTED_EDGE ( 'NONE', *, *, #612, .F. ) ;
#160 = DIRECTION ( 'NONE',  ( 0.000000000000000000, 0.000000000000000000, -1.000000000000000000 ) ) ;
#161 = ORIENTED_EDGE ( 'NONE', *, *, #213, .F. ) ;
#162 = CARTESIAN_POINT ( 'NONE',  ( 94.99999999999998579, 38.00000000000001421, 89.50000000000001421 ) ) ;
#163 = CARTESIAN_POINT ( 'NONE',  ( 94.99999999999998579, 18.00000000000000355, 122.5000000000000000 ) ) ;
#164 = EDGE_LOOP ( 'NONE', ( #731, #598 ) ) ;
#165 = CARTESIAN_POINT ( 'NONE',  ( 105.0000000000000284, 33.13000000000000966, 108.5750000000000028 ) ) ;
#166 = AXIS2_PLACEMENT_3D ( 'NONE', #694, #1, #21 ) ;
#167 = ORIENTED_EDGE ( 'NONE', *, *, #680, .T. ) ;
#168 = DIRECTION ( 'NONE',  ( 1.000000000000000000, -0.000000000000000000, 0.000000000000000000 ) ) ;
#169 = PLANE ( 'NONE',  #263 ) ;
#170 = EDGE_CURVE ( 'NONE', #660, #818, #755, .T. ) ;
#171 = EDGE_CURVE ( 'NONE', #613, #535, #629, .T. ) ;
#172 = LINE ( 'NONE', #474, #607 ) ;
#173 = VERTEX_POINT ( 'NONE', #487 ) ;
#174 = FACE_OUTER_BOUND ( 'NONE', #156, .T. ) ;
#175 = DIRECTION ( 'NONE',  ( -1.000000000000000000, 0.000000000000000000, -0.000000000000000000 ) ) ;
#176 = DIRECTION ( 'NONE',  ( 0.000000000000000000, -1.000000000000000000, 0.000000000000000000 ) ) ;
#177 = LINE ( 'NONE', #88, #573 ) ;
#178 = ORIENTED_EDGE ( 'NONE', *, *, #790, .F. ) ;
#179 = CARTESIAN_POINT ( 'NONE',  ( 94.99999999999998579, 15.00000000000000000, 122.5000000000000000 ) ) ;
#180 = LINE ( 'NONE', #389, #252 ) ;
#181 = VECTOR ( 'NONE', #460, 1000.000000000000000 ) ;
#182 = LINE ( 'NONE', #858, #583 ) ;
#183 = DIRECTION ( 'NONE',  ( 1.000000000000000000, 0.000000000000000000, 0.000000000000000000 ) ) ;
#184 = CARTESIAN_POINT ( 'NONE',  ( 94.99999999999998579, 20.00000000000000000, 120.5000000000000000 ) ) ;
#185 = LINE ( 'NONE', #788, #59 ) ;
#186 = EDGE_CURVE ( 'NONE', #571, #725, #590, .T. ) ;
#187 = VECTOR ( 'NONE', #690, 1000.000000000000000 ) ;
#188 = DIRECTION ( 'NONE',  ( -0.000000000000000000, 1.000000000000000000, 0.000000000000000000 ) ) ;
#189 = AXIS2_PLACEMENT_3D ( 'NONE', #498, #489, #427 ) ;
#190 =( NAMED_UNIT ( * ) PLANE_ANGLE_UNIT ( ) SI_UNIT ( $, .RADIAN. ) );
#191 = VECTOR ( 'NONE', #491, 1000.000000000000000 ) ;
#192 = DIRECTION ( 'NONE',  ( 0.000000000000000000, 1.000000000000000000, 0.000000000000000000 ) ) ;
#193 = FACE_OUTER_BOUND ( 'NONE', #258, .T. ) ;
#194 = EDGE_CURVE ( 'NONE', #854, #50, #48, .T. ) ;
#195 = EDGE_CURVE ( 'NONE', #390, #744, #674, .T. ) ;
#196 = DIRECTION ( 'NONE',  ( 0.000000000000000000, 1.000000000000000000, 0.000000000000000000 ) ) ;
#197 = AXIS2_PLACEMENT_3D ( 'NONE', #539, #610, #315 ) ;
#198 = DIRECTION ( 'NONE',  ( 0.000000000000000000, 0.000000000000000000, -1.000000000000000000 ) ) ;
#199 = CIRCLE ( 'NONE', #874, 1.649999999999998579 ) ;
#200 = ORIENTED_EDGE ( 'NONE', *, *, #747, .F. ) ;
#201 = CARTESIAN_POINT ( 'NONE',  ( 99.99999999999998579, 22.00000000000001421, 91.42499999999999716 ) ) ;
#202 = DIRECTION ( 'NONE',  ( 0.000000000000000000, -0.000000000000000000, 1.000000000000000000 ) ) ;
#203 = EDGE_CURVE ( 'NONE', #669, #385, #199, .T. ) ;
#204 = ORIENTED_EDGE ( 'NONE', *, *, #921, .T. ) ;
#205 = DIRECTION ( 'NONE',  ( 0.000000000000000000, 0.000000000000000000, 1.000000000000000000 ) ) ;
#206 = DIRECTION ( 'NONE',  ( 1.000000000000000000, 0.000000000000000000, -0.000000000000000000 ) ) ;
#207 = EDGE_CURVE ( 'NONE', #382, #50, #411, .T. ) ;
#208 = ORIENTED_EDGE ( 'NONE', *, *, #356, .T. ) ;
#209 = CIRCLE ( 'NONE', #666, 1.649999999999998579 ) ;
#210 = DIRECTION ( 'NONE',  ( 0.000000000000000000, -0.000000000000000000, 1.000000000000000000 ) ) ;
#211 = VERTEX_POINT ( 'NONE', #184 ) ;
#212 = LINE ( 'NONE', #742, #693 ) ;
#213 = EDGE_CURVE ( 'NONE', #854, #664, #787, .T. ) ;
#214 = ORIENTED_EDGE ( 'NONE', *, *, #611, .T. ) ;
#215 = VERTEX_POINT ( 'NONE', #561 ) ;
#216 = PLANE ( 'NONE',  #868 ) ;
#217 = EDGE_LOOP ( 'NONE', ( #579, #889, #443, #314 ) ) ;
#218 = CIRCLE ( 'NONE', #737, 3.934999999999994280 ) ;
#219 = CARTESIAN_POINT ( 'NONE',  ( 99.99999999999998579, 22.00000000000001421, 97.58499999999999375 ) ) ;
#220 = VERTEX_POINT ( 'NONE', #275 ) ;
#221 = VECTOR ( 'NONE', #192, 1000.000000000000000 ) ;
#222 = LINE ( 'NONE', #146, #784 ) ;
#223 = EDGE_CURVE ( 'NONE', #586, #839, #412, .T. ) ;
#224 = PLANE ( 'NONE',  #18 ) ;
#225 = EDGE_LOOP ( 'NONE', ( #962, #143, #553, #976 ) ) ;
#226 = CARTESIAN_POINT ( 'NONE',  ( 105.0000000000000284, 22.00000000000000355, 87.50000000000001421 ) ) ;
#227 = DIRECTION ( 'NONE',  ( -1.000000000000000000, -0.000000000000000000, -0.000000000000000000 ) ) ;
#228 = ORIENTED_EDGE ( 'NONE', *, *, #697, .F. ) ;
#229 =( GEOMETRIC_REPRESENTATION_CONTEXT ( 3 ) GLOBAL_UNCERTAINTY_ASSIGNED_CONTEXT ( ( #281 ) ) GLOBAL_UNIT_ASSIGNED_CONTEXT ( ( #819, #896, #884 ) ) REPRESENTATION_CONTEXT ( 'NONE', 'WORKASPACE' ) );
#230 = CYLINDRICAL_SURFACE ( 'NONE', #56, 2.000000000000001776 ) ;
#231 = ORIENTED_EDGE ( 'NONE', *, *, #84, .T. ) ;
#232 = FACE_OUTER_BOUND ( 'NONE', #71, .T. ) ;
#233 = AXIS2_PLACEMENT_3D ( 'NONE', #381, #772, #684 ) ;
#234 = CARTESIAN_POINT ( 'NONE',  ( 105.0000000000000284, 22.00000000000001421, 93.64999999999999147 ) ) ;
#235 = EDGE_LOOP ( 'NONE', ( #977, #969, #538, #895 ) ) ;
#236 = CARTESIAN_POINT ( 'NONE',  ( 99.99999999999998579, 40.00100000000001899, 115.8499999999999659 ) ) ;
#237 = ORIENTED_EDGE ( 'NONE', *, *, #878, .T. ) ;
#238 = DIRECTION ( 'NONE',  ( -1.000000000000000000, 0.000000000000000000, 0.000000000000000000 ) ) ;
#239 = DIRECTION ( 'NONE',  ( -1.000000000000000000, -0.000000000000000000, 0.000000000000000000 ) ) ;
#240 = VERTEX_POINT ( 'NONE', #121 ) ;
#241 = DIRECTION ( 'NONE',  ( 0.000000000000000000, 0.000000000000000000, -1.000000000000000000 ) ) ;
#242 = ORIENTED_EDGE ( 'NONE', *, *, #970, .T. ) ;
#243 = ADVANCED_FACE ( 'NONE', ( #569 ), #715, .F. ) ;
#244 = DIRECTION ( 'NONE',  ( 0.000000000000000000, 1.000000000000000000, 0.000000000000000000 ) ) ;
#245 = EDGE_CURVE ( 'NONE', #649, #744, #964, .T. ) ;
#246 = DIRECTION ( 'NONE',  ( 0.000000000000000000, -1.000000000000000000, -3.469446951953616161E-16 ) ) ;
#247 = ORIENTED_EDGE ( 'NONE', *, *, #634, .T. ) ;
#248 = CARTESIAN_POINT ( 'NONE',  ( 105.0000000000000284, 22.00000000000000000, 112.5000000000000000 ) ) ;
#249 = VERTEX_POINT ( 'NONE', #888 ) ;
#250 = CARTESIAN_POINT ( 'NONE',  ( 99.99999999999998579, 40.00100000000001899, 82.50000000000004263 ) ) ;
#251 = CARTESIAN_POINT ( 'NONE',  ( 105.0000000000000284, 22.00000000000000355, 85.50000000000000000 ) ) ;
#252 = VECTOR ( 'NONE', #484, 1000.000000000000000 ) ;
#253 = CARTESIAN_POINT ( 'NONE',  ( 94.99999999999998579, 22.00000000000000000, 112.5000000000000000 ) ) ;
#254 = AXIS2_PLACEMENT_3D ( 'NONE', #937, #83, #12 ) ;
#255 = ORIENTED_EDGE ( 'NONE', *, *, #356, .F. ) ;
#256 = DIRECTION ( 'NONE',  ( 0.000000000000000000, 0.000000000000000000, -1.000000000000000000 ) ) ;
#257 = CYLINDRICAL_SURFACE ( 'NONE', #672, 2.225000000000004974 ) ;
#258 = EDGE_LOOP ( 'NONE', ( #237, #58, #967, #328, #700, #135, #844, #647, #102, #126, #931, #380, #812, #139 ) ) ;
#259 = DIRECTION ( 'NONE',  ( 0.000000000000000000, 0.000000000000000000, -1.000000000000000000 ) ) ;
#260 = CARTESIAN_POINT ( 'NONE',  ( 105.0000000000000284, 20.00000000000000355, 85.50000000000000000 ) ) ;
#261 = PLANE ( 'NONE',  #321 ) ;
#262 = EDGE_CURVE ( 'NONE', #390, #885, #185, .T. ) ;
#263 = AXIS2_PLACEMENT_3D ( 'NONE', #850, #158, #554 ) ;
#264 = AXIS2_PLACEMENT_3D ( 'NONE', #802, #580, #496 ) ;
#265 = DIRECTION ( 'NONE',  ( -1.000000000000000000, 0.000000000000000000, 0.000000000000000000 ) ) ;
#266 = APPLICATION_CONTEXT ( 'automotive_design' ) ;
#267 = CIRCLE ( 'NONE', #511, 2.000000000000001776 ) ;
#268 = CARTESIAN_POINT ( 'NONE',  ( 99.99999999999998579, 40.00100000000001899, 119.1499999999999631 ) ) ;
#269 = DIRECTION ( 'NONE',  ( 0.000000000000000000, 0.000000000000000000, -1.000000000000000000 ) ) ;
#270 = ADVANCED_FACE ( 'NONE', ( #47 ), #127, .F. ) ;
#271 = DIRECTION ( 'NONE',  ( -1.000000000000000000, 0.000000000000000000, 0.000000000000000000 ) ) ;
#272 = FACE_OUTER_BOUND ( 'NONE', #458, .T. ) ;
#273 = ORIENTED_EDGE ( 'NONE', *, *, #203, .F. ) ;
#274 = EDGE_LOOP ( 'NONE', ( #825, #7, #609, #749 ) ) ;
#275 = CARTESIAN_POINT ( 'NONE',  ( 94.99999999999998579, 33.13000000000000966, 102.4150000000000063 ) ) ;
#276 = AXIS2_PLACEMENT_3D ( 'NONE', #327, #395, #706 ) ;
#277 = DIRECTION ( 'NONE',  ( 1.000000000000000000, -0.000000000000000000, 0.000000000000000000 ) ) ;
#278 = ORIENTED_EDGE ( 'NONE', *, *, #627, .T. ) ;
#279 = SURFACE_STYLE_USAGE ( .BOTH. , #354 ) ;
#280 = VERTEX_POINT ( 'NONE', #36 ) ;
#281 = UNCERTAINTY_MEASURE_WITH_UNIT (LENGTH_MEASURE( 1.000000000000000082E-05 ), #819, 'distance_accuracy_value', 'NONE');
#282 = LINE ( 'NONE', #155, #637 ) ;
#283 = CARTESIAN_POINT ( 'NONE',  ( 105.0000000000000284, 22.00000000000001421, 91.42499999999999716 ) ) ;
#284 = FACE_BOUND ( 'NONE', #704, .T. ) ;
#285 = ORIENTED_EDGE ( 'NONE', *, *, #646, .F. ) ;
#286 = LINE ( 'NONE', #582, #434 ) ;
#287 = EDGE_CURVE ( 'NONE', #482, #382, #100, .T. ) ;
#288 = ADVANCED_FACE ( 'NONE', ( #873 ), #113, .F. ) ;
#289 = ORIENTED_EDGE ( 'NONE', *, *, #827, .F. ) ;
#290 = ORIENTED_EDGE ( 'NONE', *, *, #223, .T. ) ;
#291 = PLANE ( 'NONE',  #915 ) ;
#292 = CIRCLE ( 'NONE', #794, 3.934999999999994280 ) ;
#293 = DIRECTION ( 'NONE',  ( -0.000000000000000000, 1.000000000000000000, 0.000000000000000000 ) ) ;
#294 = ORIENTED_EDGE ( 'NONE', *, *, #364, .T. ) ;
#295 = CARTESIAN_POINT ( 'NONE',  ( 105.0000000000000284, 38.00000000000001421, 112.5000000000000000 ) ) ;
#296 = EDGE_LOOP ( 'NONE', ( #167, #942 ) ) ;
#297 = AXIS2_PLACEMENT_3D ( 'NONE', #343, #800, #123 ) ;
#298 = CARTESIAN_POINT ( 'NONE',  ( 99.99999999999998579, 22.00000000000001421, 93.64999999999999147 ) ) ;
#299 = ORIENTED_EDGE ( 'NONE', *, *, #8, .F. ) ;
#300 = ADVANCED_FACE ( 'NONE', ( #422, #636, #727 ), #261, .F. ) ;
#301 = CYLINDRICAL_SURFACE ( 'NONE', #387, 2.225000000000004974 ) ;
#302 = ORIENTED_EDGE ( 'NONE', *, *, #62, .T. ) ;
#303 = ADVANCED_FACE ( 'NONE', ( #503 ), #352, .T. ) ;
#304 = DIRECTION ( 'NONE',  ( 0.000000000000000000, 0.000000000000000000, 1.000000000000000000 ) ) ;
#305 = ORIENTED_EDGE ( 'NONE', *, *, #981, .F. ) ;
#306 = FACE_OUTER_BOUND ( 'NONE', #913, .T. ) ;
#307 = LINE ( 'NONE', #473, #416 ) ;
#308 = ORIENTED_EDGE ( 'NONE', *, *, #551, .T. ) ;
#309 = VECTOR ( 'NONE', #890, 1000.000000000000000 ) ;
#310 = CARTESIAN_POINT ( 'NONE',  ( 94.99999999999998579, 33.13000000000000966, 106.3499999999999943 ) ) ;
#311 = ORIENTED_EDGE ( 'NONE', *, *, #84, .F. ) ;
#312 = DIRECTION ( 'NONE',  ( 0.000000000000000000, 0.000000000000000000, -1.000000000000000000 ) ) ;
#313 = DIRECTION ( 'NONE',  ( 0.000000000000000000, 0.000000000000000000, 1.000000000000000000 ) ) ;
#314 = ORIENTED_EDGE ( 'NONE', *, *, #186, .F. ) ;
#315 = DIRECTION ( 'NONE',  ( 0.000000000000000000, 0.000000000000000000, -1.000000000000000000 ) ) ;
#316 = AXIS2_PLACEMENT_3D ( 'NONE', #298, #665, #833 ) ;
#317 = ORIENTED_EDGE ( 'NONE', *, *, #533, .F. ) ;
#318 = DIRECTION ( 'NONE',  ( 0.000000000000000000, 0.000000000000000000, 1.000000000000000000 ) ) ;
#319 = DIRECTION ( 'NONE',  ( 0.000000000000000000, 0.000000000000000000, 1.000000000000000000 ) ) ;
#320 = ORIENTED_EDGE ( 'NONE', *, *, #683, .F. ) ;
#321 = AXIS2_PLACEMENT_3D ( 'NONE', #956, #188, #202 ) ;
#322 = DIRECTION ( 'NONE',  ( 0.000000000000000000, 0.000000000000000000, 1.000000000000000000 ) ) ;
#323 = ORIENTED_EDGE ( 'NONE', *, *, #740, .T. ) ;
#324 = DIRECTION ( 'NONE',  ( -1.000000000000000000, 0.000000000000000000, 0.000000000000000000 ) ) ;
#325 = AXIS2_PLACEMENT_3D ( 'NONE', #791, #486, #183 ) ;
#326 = DIRECTION ( 'NONE',  ( 0.000000000000000000, 0.000000000000000000, -1.000000000000000000 ) ) ;
#327 = CARTESIAN_POINT ( 'NONE',  ( 105.0000000000000284, 22.00000000000001421, 93.64999999999999147 ) ) ;
#328 = ORIENTED_EDGE ( 'NONE', *, *, #929, .T. ) ;
#329 = CARTESIAN_POINT ( 'NONE',  ( 94.99999999999998579, 0.000000000000000000, 0.000000000000000000 ) ) ;
#330 = CIRCLE ( 'NONE', #625, 2.225000000000004974 ) ;
#331 = CARTESIAN_POINT ( 'NONE',  ( 105.0000000000000284, 22.00000000000001421, 93.64999999999999147 ) ) ;
#332 = AXIS2_PLACEMENT_3D ( 'NONE', #423, #632, #559 ) ;
#333 = ORIENTED_EDGE ( 'NONE', *, *, #171, .F. ) ;
#334 = DIRECTION ( 'NONE',  ( 1.000000000000000000, -0.000000000000000000, 0.000000000000000000 ) ) ;
#335 = EDGE_CURVE ( 'NONE', #69, #360, #140, .T. ) ;
#336 = DIRECTION ( 'NONE',  ( 0.000000000000000000, -1.000000000000000000, -3.469446951953616161E-16 ) ) ;
#337 = CARTESIAN_POINT ( 'NONE',  ( 105.0000000000000284, 0.000000000000000000, 77.50000000000001421 ) ) ;
#338 = CIRCLE ( 'NONE', #89, 3.934999999999994280 ) ;
#339 = CARTESIAN_POINT ( 'NONE',  ( 99.99999999999998579, 22.00000000000001421, 93.64999999999999147 ) ) ;
#340 = EDGE_CURVE ( 'NONE', #280, #504, #342, .T. ) ;
#341 = VECTOR ( 'NONE', #23, 1000.000000000000000 ) ;
#342 = LINE ( 'NONE', #870, #400 ) ;
#343 = CARTESIAN_POINT ( 'NONE',  ( 99.99999999999998579, 22.00000000000001421, 93.64999999999999147 ) ) ;
#344 = ORIENTED_EDGE ( 'NONE', *, *, #680, .F. ) ;
#345 = LINE ( 'NONE', #508, #309 ) ;
#346 = CARTESIAN_POINT ( 'NONE',  ( 105.0000000000000284, 0.000000000000000000, 112.5000000000000000 ) ) ;
#347 = CIRCLE ( 'NONE', #963, 3.934999999999994280 ) ;
#348 = CARTESIAN_POINT ( 'NONE',  ( 105.0000000000000284, 20.00000000000003553, 6.938893903907244155E-15 ) ) ;
#349 = VERTEX_POINT ( 'NONE', #415 ) ;
#350 = CARTESIAN_POINT ( 'NONE',  ( 99.99999999999998579, 15.00000000000000000, 117.4999999999999716 ) ) ;
#351 = ORIENTED_EDGE ( 'NONE', *, *, #542, .T. ) ;
#352 = CYLINDRICAL_SURFACE ( 'NONE', #699, 2.000000000000001776 ) ;
#353 = CARTESIAN_POINT ( 'NONE',  ( 94.99999999999998579, 22.00000000000001421, 93.64999999999999147 ) ) ;
#354 = SURFACE_SIDE_STYLE ('',( #54 ) ) ;
#355 = VERTEX_POINT ( 'NONE', #719 ) ;
#356 = EDGE_CURVE ( 'NONE', #818, #660, #957, .T. ) ;
#357 = EDGE_CURVE ( 'NONE', #249, #76, #566, .T. ) ;
#358 = DIRECTION ( 'NONE',  ( -1.000000000000000000, -0.000000000000000000, 0.000000000000000000 ) ) ;
#359 = VECTOR ( 'NONE', #41, 1000.000000000000000 ) ;
#360 = VERTEX_POINT ( 'NONE', #118 ) ;
#361 = VERTEX_POINT ( 'NONE', #418 ) ;
#362 = DIRECTION ( 'NONE',  ( -1.000000000000000000, -0.000000000000000000, 0.000000000000000000 ) ) ;
#363 = DIRECTION ( 'NONE',  ( 0.000000000000000000, -1.000000000000000000, 0.000000000000000000 ) ) ;
#364 = EDGE_CURVE ( 'NONE', #368, #349, #721, .T. ) ;
#365 = ORIENTED_EDGE ( 'NONE', *, *, #186, .T. ) ;
#366 = ORIENTED_EDGE ( 'NONE', *, *, #975, .T. ) ;
#367 = DIRECTION ( 'NONE',  ( -1.000000000000000000, -0.000000000000000000, 0.000000000000000000 ) ) ;
#368 = VERTEX_POINT ( 'NONE', #219 ) ;
#369 = CARTESIAN_POINT ( 'NONE',  ( 94.99999999999998579, 40.00000000000001421, 110.5000000000000000 ) ) ;
#370 = AXIS2_PLACEMENT_3D ( 'NONE', #310, #617, #935 ) ;
#371 = EDGE_CURVE ( 'NONE', #76, #173, #70, .T. ) ;
#372 = ORIENTED_EDGE ( 'NONE', *, *, #975, .F. ) ;
#373 = LINE ( 'NONE', #750, #388 ) ;
#374 = ORIENTED_EDGE ( 'NONE', *, *, #213, .T. ) ;
#375 = AXIS2_PLACEMENT_3D ( 'NONE', #728, #712, #653 ) ;
#376 = CARTESIAN_POINT ( 'NONE',  ( 94.99999999999998579, 33.13000000000000966, 110.2849999999999966 ) ) ;
#377 = VERTEX_POINT ( 'NONE', #369 ) ;
#378 = CARTESIAN_POINT ( 'NONE',  ( 99.99999999999998579, 15.00000000000000000, 119.1499999999999631 ) ) ;
#379 = CARTESIAN_POINT ( 'NONE',  ( 105.0000000000000284, 33.13000000000000966, 106.3499999999999943 ) ) ;
#380 = ORIENTED_EDGE ( 'NONE', *, *, #335, .T. ) ;
#381 = CARTESIAN_POINT ( 'NONE',  ( 105.0000000000000284, 22.00000000000000355, 85.50000000000000000 ) ) ;
#382 = VERTEX_POINT ( 'NONE', #736 ) ;
#383 = FACE_OUTER_BOUND ( 'NONE', #93, .T. ) ;
#384 = CARTESIAN_POINT ( 'NONE',  ( 105.0000000000000284, 20.00000000000000000, 120.5000000000000000 ) ) ;
#385 = VERTEX_POINT ( 'NONE', #815 ) ;
#386 = ADVANCED_FACE ( 'NONE', ( #81 ), #148, .T. ) ;
#387 = AXIS2_PLACEMENT_3D ( 'NONE', #379, #227, #319 ) ;
#388 = VECTOR ( 'NONE', #525, 1000.000000000000000 ) ;
#389 = CARTESIAN_POINT ( 'NONE',  ( 105.0000000000000284, 22.00000000000000000, 112.5000000000000000 ) ) ;
#390 = VERTEX_POINT ( 'NONE', #506 ) ;
#391 = CYLINDRICAL_SURFACE ( 'NONE', #297, 3.934999999999994280 ) ;
#392 = CARTESIAN_POINT ( 'NONE',  ( 99.99999999999998579, 20.00000000000000711, 82.50000000000004263 ) ) ;
#393 = ORIENTED_EDGE ( 'NONE', *, *, #357, .F. ) ;
#394 = EDGE_CURVE ( 'NONE', #377, #390, #826, .T. ) ;
#395 = DIRECTION ( 'NONE',  ( 1.000000000000000000, -0.000000000000000000, 0.000000000000000000 ) ) ;
#396 = VECTOR ( 'NONE', #358, 1000.000000000000000 ) ;
#397 = EDGE_LOOP ( 'NONE', ( #667, #676, #778, #200 ) ) ;
#398 = CARTESIAN_POINT ( 'NONE',  ( 99.99999999999998579, 33.13000000000000966, 102.4150000000000063 ) ) ;
#399 = CARTESIAN_POINT ( 'NONE',  ( 99.99999999999998579, 22.00000000000001421, 95.87500000000000000 ) ) ;
#400 = VECTOR ( 'NONE', #115, 1000.000000000000000 ) ;
#401 = DIRECTION ( 'NONE',  ( 0.000000000000000000, 0.000000000000000000, 1.000000000000000000 ) ) ;
#402 = VERTEX_POINT ( 'NONE', #597 ) ;
#403 =( GEOMETRIC_REPRESENTATION_CONTEXT ( 3 ) GLOBAL_UNCERTAINTY_ASSIGNED_CONTEXT ( ( #641 ) ) GLOBAL_UNIT_ASSIGNED_CONTEXT ( ( #711, #190, #480 ) ) REPRESENTATION_CONTEXT ( 'NONE', 'WORKASPACE' ) );
#404 = FACE_OUTER_BOUND ( 'NONE', #575, .T. ) ;
#405 = SHAPE_DEFINITION_REPRESENTATION ( #545, #549 ) ;
#406 = DIRECTION ( 'NONE',  ( 0.000000000000000000, 0.000000000000000000, -1.000000000000000000 ) ) ;
#407 = ORIENTED_EDGE ( 'NONE', *, *, #428, .T. ) ;
#408 = DIRECTION ( 'NONE',  ( 1.000000000000000000, 0.000000000000000000, -0.000000000000000000 ) ) ;
#409 = AXIS2_PLACEMENT_3D ( 'NONE', #940, #462, #241 ) ;
#410 = CARTESIAN_POINT ( 'NONE',  ( 99.99999999999998579, 40.00100000000001899, 80.85000000000005116 ) ) ;
#411 = LINE ( 'NONE', #260, #439 ) ;
#412 = LINE ( 'NONE', #880, #789 ) ;
#413 = ADVANCED_FACE ( 'NONE', ( #57 ), #230, .T. ) ;
#414 = EDGE_CURVE ( 'NONE', #368, #215, #218, .T. ) ;
#415 = CARTESIAN_POINT ( 'NONE',  ( 94.99999999999998579, 22.00000000000001421, 97.58499999999999375 ) ) ;
#416 = VECTOR ( 'NONE', #454, 1000.000000000000000 ) ;
#417 = AXIS2_PLACEMENT_3D ( 'NONE', #250, #459, #830 ) ;
#418 = CARTESIAN_POINT ( 'NONE',  ( 105.0000000000000284, 22.00000000000001421, 95.87500000000000000 ) ) ;
#419 = CIRCLE ( 'NONE', #477, 2.000000000000001776 ) ;
#420 = DIRECTION ( 'NONE',  ( 0.000000000000000000, -1.000000000000000000, -3.469446951953616161E-16 ) ) ;
#421 = FACE_OUTER_BOUND ( 'NONE', #832, .T. ) ;
#422 = FACE_BOUND ( 'NONE', #128, .T. ) ;
#423 = CARTESIAN_POINT ( 'NONE',  ( 99.99999999999998579, 22.00000000000001421, 93.64999999999999147 ) ) ;
#424 = FACE_BOUND ( 'NONE', #861, .T. ) ;
#425 = DIRECTION ( 'NONE',  ( 0.000000000000000000, 1.000000000000000000, 0.000000000000000000 ) ) ;
#426 = EDGE_LOOP ( 'NONE', ( #619, #366, #581, #478 ) ) ;
#427 = DIRECTION ( 'NONE',  ( 0.000000000000000000, 0.000000000000000000, -1.000000000000000000 ) ) ;
#428 = EDGE_CURVE ( 'NONE', #215, #368, #872, .T. ) ;
#429 = AXIS2_PLACEMENT_3D ( 'NONE', #601, #6, #466 ) ;
#430 = EDGE_CURVE ( 'NONE', #613, #725, #509, .T. ) ;
#431 = ORIENTED_EDGE ( 'NONE', *, *, #534, .T. ) ;
#432 = DIRECTION ( 'NONE',  ( -1.000000000000000000, 0.000000000000000000, -0.000000000000000000 ) ) ;
#433 = CARTESIAN_POINT ( 'NONE',  ( 99.99999999999998579, 20.00000000000000000, 117.4999999999999716 ) ) ;
#434 = VECTOR ( 'NONE', #144, 1000.000000000000000 ) ;
#435 = EDGE_CURVE ( 'NONE', #535, #571, #282, .T. ) ;
#436 = CARTESIAN_POINT ( 'NONE',  ( 94.99999999999998579, 20.00000000000000711, 79.50000000000001421 ) ) ;
#437 = ORIENTED_EDGE ( 'NONE', *, *, #357, .T. ) ;
#438 = DIRECTION ( 'NONE',  ( -1.000000000000000000, -0.000000000000000000, 0.000000000000000000 ) ) ;
#439 = VECTOR ( 'NONE', #869, 1000.000000000000000 ) ;
#440 = ORIENTED_EDGE ( 'NONE', *, *, #837, .T. ) ;
#441 = ORIENTED_EDGE ( 'NONE', *, *, #722, .T. ) ;
#442 = PLANE ( 'NONE',  #264 ) ;
#443 = ORIENTED_EDGE ( 'NONE', *, *, #430, .T. ) ;
#444 = LINE ( 'NONE', #677, #137 ) ;
#445 = AXIS2_PLACEMENT_3D ( 'NONE', #33, #558, #785 ) ;
#446 = EDGE_CURVE ( 'NONE', #355, #240, #816, .T. ) ;
#447 = ORIENTED_EDGE ( 'NONE', *, *, #207, .T. ) ;
#448 = CARTESIAN_POINT ( 'NONE',  ( 99.99999999999998579, 40.00100000000001899, 82.50000000000004263 ) ) ;
#449 = VERTEX_POINT ( 'NONE', #984 ) ;
#450 = CARTESIAN_POINT ( 'NONE',  ( 105.0000000000000284, 18.00000000000000355, 120.5000000000000000 ) ) ;
#451 = MECHANICAL_DESIGN_GEOMETRIC_PRESENTATION_REPRESENTATION (  '', ( #882 ), #229 ) ;
#452 = ORIENTED_EDGE ( 'NONE', *, *, #64, .T. ) ;
#453 = LINE ( 'NONE', #756, #769 ) ;
#454 = DIRECTION ( 'NONE',  ( 0.000000000000000000, 0.000000000000000000, -1.000000000000000000 ) ) ;
#455 = ORIENTED_EDGE ( 'NONE', *, *, #512, .F. ) ;
#456 = AXIS2_PLACEMENT_3D ( 'NONE', #599, #324, #761 ) ;
#457 = LINE ( 'NONE', #910, #396 ) ;
#458 = EDGE_LOOP ( 'NONE', ( #936, #447, #654, #374 ) ) ;
#459 = DIRECTION ( 'NONE',  ( 0.000000000000000000, -1.000000000000000000, 0.000000000000000000 ) ) ;
#460 = DIRECTION ( 'NONE',  ( -1.000000000000000000, -0.000000000000000000, -0.000000000000000000 ) ) ;
#461 = ORIENTED_EDGE ( 'NONE', *, *, #435, .T. ) ;
#462 = DIRECTION ( 'NONE',  ( 1.000000000000000000, -0.000000000000000000, 0.000000000000000000 ) ) ;
#463 = EDGE_LOOP ( 'NONE', ( #751, #407, #294, #66 ) ) ;
#464 = LINE ( 'NONE', #701, #980 ) ;
#465 = EDGE_CURVE ( 'NONE', #982, #528, #457, .T. ) ;
#466 = DIRECTION ( 'NONE',  ( 0.000000000000000000, 0.000000000000000000, -1.000000000000000000 ) ) ;
#467 = EDGE_LOOP ( 'NONE', ( #455, #299 ) ) ;
#468 = EDGE_CURVE ( 'NONE', #22, #402, #286, .T. ) ;
#469 = VECTOR ( 'NONE', #107, 1000.000000000000000 ) ;
#470 = CYLINDRICAL_SURFACE ( 'NONE', #233, 2.000000000000001776 ) ;
#471 = ORIENTED_EDGE ( 'NONE', *, *, #930, .F. ) ;
#472 = CYLINDRICAL_SURFACE ( 'NONE', #417, 1.649999999999998579 ) ;
#473 = CARTESIAN_POINT ( 'NONE',  ( 94.99999999999998579, 20.00000000000000000, 0.000000000000000000 ) ) ;
#475 = ADVANCED_FACE ( 'NONE', ( #752 ), #224, .T. ) ;
#474 = CARTESIAN_POINT ( 'NONE',  ( 105.0000000000000284, 15.00000000000000000, 0.000000000000000000 ) ) ;
#476 = AXIS2_PLACEMENT_3D ( 'NONE', #63, #822, #304 ) ;
#477 = AXIS2_PLACEMENT_3D ( 'NONE', #847, #25, #917 ) ;
#478 = ORIENTED_EDGE ( 'NONE', *, *, #564, .F. ) ;
#479 = DIRECTION ( 'NONE',  ( 1.000000000000000000, -0.000000000000000000, 0.000000000000000000 ) ) ;
#480 =( NAMED_UNIT ( * ) SI_UNIT ( $, .STERADIAN. ) SOLID_ANGLE_UNIT ( ) );
#481 = DIRECTION ( 'NONE',  ( -1.000000000000000000, -0.000000000000000000, -0.000000000000000000 ) ) ;
#482 = VERTEX_POINT ( 'NONE', #807 ) ;
#483 = CARTESIAN_POINT ( 'NONE',  ( 105.0000000000000284, 18.00000000000001066, 79.50000000000001421 ) ) ;
#484 = DIRECTION ( 'NONE',  ( 1.000000000000000000, -0.000000000000000000, -0.000000000000000000 ) ) ;
#485 = VECTOR ( 'NONE', #912, 1000.000000000000000 ) ;
#486 = DIRECTION ( 'NONE',  ( 0.000000000000000000, 0.000000000000000000, 1.000000000000000000 ) ) ;
#487 = CARTESIAN_POINT ( 'NONE',  ( 105.0000000000000284, 18.00000000000001066, 77.50000000000001421 ) ) ;
#488 = VECTOR ( 'NONE', #904, 1000.000000000000000 ) ;
#489 = DIRECTION ( 'NONE',  ( 1.000000000000000000, -0.000000000000000000, 0.000000000000000000 ) ) ;
#490 = AXIS2_PLACEMENT_3D ( 'NONE', #52, #39, #795 ) ;
#491 = DIRECTION ( 'NONE',  ( 0.000000000000000000, -1.000000000000000000, 0.000000000000000000 ) ) ;
#492 = CARTESIAN_POINT ( 'NONE',  ( 105.0000000000000284, 38.00000000000001421, 89.50000000000001421 ) ) ;
#493 = CIRCLE ( 'NONE', #567, 2.000000000000001776 ) ;
#494 = DIRECTION ( 'NONE',  ( -1.000000000000000000, 0.000000000000000000, -0.000000000000000000 ) ) ;
#495 = DIRECTION ( 'NONE',  ( 0.000000000000000000, 0.000000000000000000, -1.000000000000000000 ) ) ;
#496 = DIRECTION ( 'NONE',  ( 0.000000000000000000, 0.000000000000000000, -1.000000000000000000 ) ) ;
#497 = PRESENTATION_LAYER_ASSIGNMENT (  '', '', ( #882 ) ) ;
#498 = CARTESIAN_POINT ( 'NONE',  ( 94.99999999999998579, 22.00000000000000355, 85.50000000000000000 ) ) ;
#499 = CIRCLE ( 'NONE', #798, 2.000000000000001776 ) ;
#500 = DIRECTION ( 'NONE',  ( 0.000000000000000000, -3.469446951953616161E-16, 1.000000000000000000 ) ) ;
#501 = ORIENTED_EDGE ( 'NONE', *, *, #970, .F. ) ;
#502 = DIRECTION ( 'NONE',  ( 0.000000000000000000, 0.000000000000000000, -1.000000000000000000 ) ) ;
#503 = FACE_OUTER_BOUND ( 'NONE', #235, .T. ) ;
#504 = VERTEX_POINT ( 'NONE', #376 ) ;
#505 = DIRECTION ( 'NONE',  ( -0.000000000000000000, 1.000000000000000000, 0.000000000000000000 ) ) ;
#506 = CARTESIAN_POINT ( 'NONE',  ( 105.0000000000000284, 40.00000000000001421, 110.5000000000000000 ) ) ;
#507 = EDGE_LOOP ( 'NONE', ( #835, #73, #501, #96 ) ) ;
#508 = CARTESIAN_POINT ( 'NONE',  ( 105.0000000000000284, 38.00000000000001421, 87.50000000000001421 ) ) ;
#509 = LINE ( 'NONE', #971, #488 ) ;
#510 = EDGE_LOOP ( 'NONE', ( #760, #14, #673, #105 ) ) ;
#511 = AXIS2_PLACEMENT_3D ( 'NONE', #746, #588, #859 ) ;
#512 = EDGE_CURVE ( 'NONE', #449, #526, #955, .T. ) ;
#513 = FACE_OUTER_BOUND ( 'NONE', #923, .T. ) ;
#514 = ORIENTED_EDGE ( 'NONE', *, *, #171, .T. ) ;
#515 = DIRECTION ( 'NONE',  ( 1.000000000000000000, -0.000000000000000000, -0.000000000000000000 ) ) ;
#516 = AXIS2_PLACEMENT_3D ( 'NONE', #339, #638, #269 ) ;
#517 = ORIENTED_EDGE ( 'NONE', *, *, #394, .T. ) ;
#518 = FACE_OUTER_BOUND ( 'NONE', #960, .T. ) ;
#519 = EDGE_CURVE ( 'NONE', #664, #382, #444, .T. ) ;
#520 = DIRECTION ( 'NONE',  ( 1.000000000000000000, 0.000000000000000000, -0.000000000000000000 ) ) ;
#521 = PRODUCT_DEFINITION_FORMATION_WITH_SPECIFIED_SOURCE ( 'ANY', '', #698, .NOT_KNOWN. ) ;
#522 = ORIENTED_EDGE ( 'NONE', *, *, #533, .T. ) ;
#523 = CARTESIAN_POINT ( 'NONE',  ( 94.99999999999998579, 18.00000000000001066, 77.50000000000001421 ) ) ;
#524 = VECTOR ( 'NONE', #973, 1000.000000000000000 ) ;
#525 = DIRECTION ( 'NONE',  ( 0.000000000000000000, 1.000000000000000000, 0.000000000000000000 ) ) ;
#526 = VERTEX_POINT ( 'NONE', #662 ) ;
#527 = DIRECTION ( 'NONE',  ( 0.000000000000000000, 0.000000000000000000, -1.000000000000000000 ) ) ;
#528 = VERTEX_POINT ( 'NONE', #898 ) ;
#529 = CYLINDRICAL_SURFACE ( 'NONE', #887, 1.649999999999998579 ) ;
#530 = DIRECTION ( 'NONE',  ( -1.000000000000000000, -0.000000000000000000, -0.000000000000000000 ) ) ;
#531 = ORIENTED_EDGE ( 'NONE', *, *, #430, .F. ) ;
#532 = CARTESIAN_POINT ( 'NONE',  ( 99.99999999999998579, 33.13000000000000966, 102.4150000000000063 ) ) ;
#533 = EDGE_CURVE ( 'NONE', #385, #355, #212, .T. ) ;
#534 = EDGE_CURVE ( 'NONE', #528, #586, #267, .T. ) ;
#535 = VERTEX_POINT ( 'NONE', #623 ) ;
#536 = DIRECTION ( 'NONE',  ( 0.000000000000000000, 0.000000000000000000, -1.000000000000000000 ) ) ;
#537 = CYLINDRICAL_SURFACE ( 'NONE', #37, 2.000000000000001776 ) ;
#538 = ORIENTED_EDGE ( 'NONE', *, *, #122, .F. ) ;
#539 = CARTESIAN_POINT ( 'NONE',  ( 99.99999999999998579, 33.13000000000000966, 106.3499999999999943 ) ) ;
#540 = VERTEX_POINT ( 'NONE', #532 ) ;
#541 = DIRECTION ( 'NONE',  ( 0.000000000000000000, 0.000000000000000000, -1.000000000000000000 ) ) ;
#542 = EDGE_CURVE ( 'NONE', #377, #32, #853, .T. ) ;
#543 = FACE_OUTER_BOUND ( 'NONE', #274, .T. ) ;
#544 = ORIENTED_EDGE ( 'NONE', *, *, #519, .F. ) ;
#545 = PRODUCT_DEFINITION_SHAPE ( 'NONE', 'NONE',  #860 ) ;
#546 = CARTESIAN_POINT ( 'NONE',  ( 105.0000000000000284, 22.00000000000001421, 93.64999999999999147 ) ) ;
#547 = VERTEX_POINT ( 'NONE', #31 ) ;
#548 = DIRECTION ( 'NONE',  ( 0.000000000000000000, -1.000000000000000000, 0.000000000000000000 ) ) ;
#549 = ADVANCED_BREP_SHAPE_REPRESENTATION ( 'Solenoid mount', ( #652, #325 ), #403 ) ;
#550 = LINE ( 'NONE', #622, #469 ) ;
#551 = EDGE_CURVE ( 'NONE', #903, #841, #99, .T. ) ;
#552 = DIRECTION ( 'NONE',  ( 0.000000000000000000, 0.000000000000000000, -1.000000000000000000 ) ) ;
#553 = ORIENTED_EDGE ( 'NONE', *, *, #15, .F. ) ;
#554 = DIRECTION ( 'NONE',  ( 1.000000000000000000, 0.000000000000000000, -0.000000000000000000 ) ) ;
#555 = CARTESIAN_POINT ( 'NONE',  ( 105.0000000000000284, 20.00000000000000000, 0.000000000000000000 ) ) ;
#556 = EDGE_CURVE ( 'NONE', #616, #60, #172, .T. ) ;
#557 = EDGE_LOOP ( 'NONE', ( #4, #159, #82, #302 ) ) ;
#558 = DIRECTION ( 'NONE',  ( 1.000000000000000000, -0.000000000000000000, 0.000000000000000000 ) ) ;
#559 = DIRECTION ( 'NONE',  ( 0.000000000000000000, 0.000000000000000000, -1.000000000000000000 ) ) ;
#560 = VECTOR ( 'NONE', #367, 1000.000000000000000 ) ;
#561 = CARTESIAN_POINT ( 'NONE',  ( 99.99999999999998579, 22.00000000000001421, 89.71500000000000341 ) ) ;
#562 = AXIS2_PLACEMENT_3D ( 'NONE', #433, #293, #138 ) ;
#563 = DIRECTION ( 'NONE',  ( 0.000000000000000000, 0.000000000000000000, -1.000000000000000000 ) ) ;
#564 = EDGE_CURVE ( 'NONE', #449, #547, #603, .T. ) ;
#565 = AXIS2_PLACEMENT_3D ( 'NONE', #799, #650, #563 ) ;
#566 = LINE ( 'NONE', #877, #221 ) ;
#567 = AXIS2_PLACEMENT_3D ( 'NONE', #108, #494, #38 ) ;
#568 = CARTESIAN_POINT ( 'NONE',  ( 99.99999999999998579, 20.00000000000000711, 80.85000000000005116 ) ) ;
#569 = FACE_OUTER_BOUND ( 'NONE', #463, .T. ) ;
#570 = FACE_BOUND ( 'NONE', #909, .T. ) ;
#571 = VERTEX_POINT ( 'NONE', #845 ) ;
#572 = ORIENTED_EDGE ( 'NONE', *, *, #446, .T. ) ;
#573 = VECTOR ( 'NONE', #481, 1000.000000000000000 ) ;
#574 = DIRECTION ( 'NONE',  ( 0.000000000000000000, 0.000000000000000000, -1.000000000000000000 ) ) ;
#575 = EDGE_LOOP ( 'NONE', ( #829, #763, #946, #891 ) ) ;
#576 = ORIENTED_EDGE ( 'NONE', *, *, #611, .F. ) ;
#577 = DIRECTION ( 'NONE',  ( 0.000000000000000000, 1.000000000000000000, 0.000000000000000000 ) ) ;
#578 = EDGE_CURVE ( 'NONE', #725, #571, #966, .T. ) ;
#579 = ORIENTED_EDGE ( 'NONE', *, *, #435, .F. ) ;
#580 = DIRECTION ( 'NONE',  ( 1.000000000000000000, -0.000000000000000000, 0.000000000000000000 ) ) ;
#581 = ORIENTED_EDGE ( 'NONE', *, *, #64, .F. ) ;
#582 = CARTESIAN_POINT ( 'NONE',  ( 105.0000000000000284, 0.000000000000000000, 87.50000000000001421 ) ) ;
#583 = VECTOR ( 'NONE', #626, 1000.000000000000000 ) ;
#584 = ADVANCED_FACE ( 'NONE', ( #781 ), #257, .F. ) ;
#585 = EDGE_LOOP ( 'NONE', ( #595, #657, #133, #90 ) ) ;
#586 = VERTEX_POINT ( 'NONE', #253 ) ;
#587 = FACE_OUTER_BOUND ( 'NONE', #164, .T. ) ;
#588 = DIRECTION ( 'NONE',  ( 1.000000000000000000, -0.000000000000000000, 0.000000000000000000 ) ) ;
#589 = ORIENTED_EDGE ( 'NONE', *, *, #340, .F. ) ;
#590 = CIRCLE ( 'NONE', #119, 2.225000000000004974 ) ;
#591 = CARTESIAN_POINT ( 'NONE',  ( 94.99999999999998579, 38.00000000000001421, 87.50000000000001421 ) ) ;
#592 = CARTESIAN_POINT ( 'NONE',  ( 99.99999999999998579, 15.00000000000000000, 82.50000000000004263 ) ) ;
#593 = VERTEX_POINT ( 'NONE', #703 ) ;
#594 = DIRECTION ( 'NONE',  ( 0.000000000000000000, 0.000000000000000000, -1.000000000000000000 ) ) ;
#595 = ORIENTED_EDGE ( 'NONE', *, *, #938, .T. ) ;
#596 = EDGE_CURVE ( 'NONE', #361, #2, #110, .T. ) ;
#597 = CARTESIAN_POINT ( 'NONE',  ( 105.0000000000000284, 38.00000000000001421, 87.50000000000001421 ) ) ;
#598 = ORIENTED_EDGE ( 'NONE', *, *, #921, .F. ) ;
#599 = CARTESIAN_POINT ( 'NONE',  ( 99.99999999999998579, 33.13000000000000966, 106.3499999999999943 ) ) ;
#600 = CIRCLE ( 'NONE', #106, 1.649999999999998579 ) ;
#601 = CARTESIAN_POINT ( 'NONE',  ( 94.99999999999998579, 18.00000000000000355, 120.5000000000000000 ) ) ;
#602 = ORIENTED_EDGE ( 'NONE', *, *, #564, .T. ) ;
#603 = LINE ( 'NONE', #236, #187 ) ;
#604 = EDGE_CURVE ( 'NONE', #535, #613, #152, .T. ) ;
#605 = ORIENTED_EDGE ( 'NONE', *, *, #790, .T. ) ;
#606 = CYLINDRICAL_SURFACE ( 'NONE', #943, 3.934999999999994280 ) ;
#607 = VECTOR ( 'NONE', #160, 1000.000000000000000 ) ;
#608 = DIRECTION ( 'NONE',  ( 0.000000000000000000, 1.000000000000000000, 0.000000000000000000 ) ) ;
#609 = ORIENTED_EDGE ( 'NONE', *, *, #764, .T. ) ;
#610 = DIRECTION ( 'NONE',  ( 1.000000000000000000, -0.000000000000000000, 0.000000000000000000 ) ) ;
#611 = EDGE_CURVE ( 'NONE', #2, #361, #330, .T. ) ;
#612 = EDGE_CURVE ( 'NONE', #60, #249, #177, .T. ) ;
#613 = VERTEX_POINT ( 'NONE', #165 ) ;
#614 = CARTESIAN_POINT ( 'NONE',  ( 99.99999999999998579, 15.00000000000000000, 117.4999999999999716 ) ) ;
#615 = LINE ( 'NONE', #681, #716 ) ;
#616 = VERTEX_POINT ( 'NONE', #16 ) ;
#617 = DIRECTION ( 'NONE',  ( 1.000000000000000000, -0.000000000000000000, 0.000000000000000000 ) ) ;
#618 = VECTOR ( 'NONE', #176, 1000.000000000000000 ) ;
#619 = ORIENTED_EDGE ( 'NONE', *, *, #512, .T. ) ;
#620 = CYLINDRICAL_SURFACE ( 'NONE', #254, 2.225000000000004974 ) ;
#621 = EDGE_CURVE ( 'NONE', #280, #540, #708, .T. ) ;
#622 = CARTESIAN_POINT ( 'NONE',  ( 94.99999999999998579, 15.00000000000000000, 0.000000000000000000 ) ) ;
#623 = CARTESIAN_POINT ( 'NONE',  ( 105.0000000000000284, 33.13000000000000966, 104.1250000000000000 ) ) ;
#624 = ORIENTED_EDGE ( 'NONE', *, *, #723, .T. ) ;
#625 = AXIS2_PLACEMENT_3D ( 'NONE', #546, #628, #552 ) ;
#626 = DIRECTION ( 'NONE',  ( 0.000000000000000000, 1.000000000000000000, 0.000000000000000000 ) ) ;
#627 = EDGE_CURVE ( 'NONE', #69, #982, #945, .T. ) ;
#628 = DIRECTION ( 'NONE',  ( 1.000000000000000000, -0.000000000000000000, 0.000000000000000000 ) ) ;
#629 = CIRCLE ( 'NONE', #40, 2.225000000000004974 ) ;
#630 = ORIENTED_EDGE ( 'NONE', *, *, #371, .F. ) ;
#631 = FACE_OUTER_BOUND ( 'NONE', #782, .T. ) ;
#632 = DIRECTION ( 'NONE',  ( 1.000000000000000000, -0.000000000000000000, 0.000000000000000000 ) ) ;
#633 = CIRCLE ( 'NONE', #899, 2.000000000000001776 ) ;
#634 = EDGE_CURVE ( 'NONE', #586, #649, #180, .T. ) ;
#635 = AXIS2_PLACEMENT_3D ( 'NONE', #901, #733, #53 ) ;
#636 = FACE_BOUND ( 'NONE', #691, .T. ) ;
#637 = VECTOR ( 'NONE', #132, 1000.000000000000000 ) ;
#638 = DIRECTION ( 'NONE',  ( 1.000000000000000000, -0.000000000000000000, 0.000000000000000000 ) ) ;
#639 = ADVANCED_FACE ( 'NONE', ( #786 ), #470, .F. ) ;
#640 = VECTOR ( 'NONE', #271, 1000.000000000000000 ) ;
#641 = UNCERTAINTY_MEASURE_WITH_UNIT (LENGTH_MEASURE( 1.000000000000000082E-05 ), #711, 'distance_accuracy_value', 'NONE');
#642 = DIRECTION ( 'NONE',  ( 1.000000000000000000, 0.000000000000000000, -0.000000000000000000 ) ) ;
#643 = ADVANCED_FACE ( 'NONE', ( #9 ), #94, .T. ) ;
#644 = CARTESIAN_POINT ( 'NONE',  ( 105.0000000000000284, 20.00000000000003553, 6.938893903907244155E-15 ) ) ;
#645 = AXIS2_PLACEMENT_3D ( 'NONE', #705, #408, #710 ) ;
#646 = EDGE_CURVE ( 'NONE', #220, #504, #796, .T. ) ;
#647 = ORIENTED_EDGE ( 'NONE', *, *, #195, .T. ) ;
#648 = DIRECTION ( 'NONE',  ( 1.000000000000000000, -0.000000000000000000, 0.000000000000000000 ) ) ;
#649 = VERTEX_POINT ( 'NONE', #248 ) ;
#650 = DIRECTION ( 'NONE',  ( 0.000000000000000000, -1.000000000000000000, 0.000000000000000000 ) ) ;
#651 = AXIS2_PLACEMENT_3D ( 'NONE', #130, #432, #762 ) ;
#652 = MANIFOLD_SOLID_BREP ( 'Fillet2', #668 ) ;
#653 = DIRECTION ( 'NONE',  ( 0.000000000000000000, 0.000000000000000000, -1.000000000000000000 ) ) ;
#654 = ORIENTED_EDGE ( 'NONE', *, *, #194, .F. ) ;
#655 = ADVANCED_FACE ( 'NONE', ( #142, #421 ), #216, .T. ) ;
#656 = DIRECTION ( 'NONE',  ( 0.000000000000000000, 1.000000000000000000, 0.000000000000000000 ) ) ;
#657 = ORIENTED_EDGE ( 'NONE', *, *, #852, .T. ) ;
#658 = AXIS2_PLACEMENT_3D ( 'NONE', #696, #322, #920 ) ;
#659 = DIRECTION ( 'NONE',  ( 1.000000000000000000, -0.000000000000000000, 0.000000000000000000 ) ) ;
#660 = VERTEX_POINT ( 'NONE', #201 ) ;
#661 = VECTOR ( 'NONE', #515, 1000.000000000000000 ) ;
#662 = CARTESIAN_POINT ( 'NONE',  ( 99.99999999999998579, 20.00000000000000000, 119.1499999999999631 ) ) ;
#663 = ORIENTED_EDGE ( 'NONE', *, *, #612, .T. ) ;
#664 = VERTEX_POINT ( 'NONE', #436 ) ;
#665 = DIRECTION ( 'NONE',  ( 1.000000000000000000, -0.000000000000000000, 0.000000000000000000 ) ) ;
#666 = AXIS2_PLACEMENT_3D ( 'NONE', #392, #246, #92 ) ;
#667 = ORIENTED_EDGE ( 'NONE', *, *, #929, .F. ) ;
#668 = CLOSED_SHELL ( 'NONE', ( #136, #114, #29, #270, #886, #87, #475, #300, #288, #149, #893, #865, #643, #875, #655, #584, #709, #922, #111, #811, #77, #717, #243, #17, #639, #953, #386, #303, #866, #413 ) ) ;
#669 = VERTEX_POINT ( 'NONE', #568 ) ;
#670 = CARTESIAN_POINT ( 'NONE',  ( 105.0000000000000284, 20.00000000000000000, 0.000000000000000000 ) ) ;
#671 = DIRECTION ( 'NONE',  ( 0.000000000000000000, 0.000000000000000000, 1.000000000000000000 ) ) ;
#672 = AXIS2_PLACEMENT_3D ( 'NONE', #331, #927, #401 ) ;
#673 = ORIENTED_EDGE ( 'NONE', *, *, #740, .F. ) ;
#674 = CIRCLE ( 'NONE', #375, 2.000000000000001776 ) ;
#675 = FACE_OUTER_BOUND ( 'NONE', #919, .T. ) ;
#676 = ORIENTED_EDGE ( 'NONE', *, *, #207, .F. ) ;
#677 = CARTESIAN_POINT ( 'NONE',  ( 94.99999999999998579, 20.00000000000003553, 6.938893903907244155E-15 ) ) ;
#678 = ORIENTED_EDGE ( 'NONE', *, *, #981, .T. ) ;
#679 = PLANE ( 'NONE',  #810 ) ;
#680 = EDGE_CURVE ( 'NONE', #504, #220, #347, .T. ) ;
#681 = CARTESIAN_POINT ( 'NONE',  ( 105.0000000000000284, 0.000000000000000000, 77.50000000000001421 ) ) ;
#682 = ORIENTED_EDGE ( 'NONE', *, *, #340, .T. ) ;
#683 = EDGE_CURVE ( 'NONE', #361, #818, #813, .T. ) ;
#684 = DIRECTION ( 'NONE',  ( 0.000000000000000000, 0.000000000000000000, -1.000000000000000000 ) ) ;
#685 = ORIENTED_EDGE ( 'NONE', *, *, #371, .T. ) ;
#686 = CARTESIAN_POINT ( 'NONE',  ( 99.99999999999998579, 40.00100000000001899, 117.4999999999999716 ) ) ;
#687 = AXIS2_PLACEMENT_3D ( 'NONE', #329, #334, #259 ) ;
#688 = PLANE ( 'NONE',  #166 ) ;
#689 = ORIENTED_EDGE ( 'NONE', *, *, #428, .F. ) ;
#690 = DIRECTION ( 'NONE',  ( 0.000000000000000000, -1.000000000000000000, 0.000000000000000000 ) ) ;
#691 = EDGE_LOOP ( 'NONE', ( #19, #572 ) ) ;
#692 = DIRECTION ( 'NONE',  ( -1.000000000000000000, 0.000000000000000000, 0.000000000000000000 ) ) ;
#693 = VECTOR ( 'NONE', #363, 1000.000000000000000 ) ;
#694 = CARTESIAN_POINT ( 'NONE',  ( 105.0000000000000284, 40.00000000000001421, 0.000000000000000000 ) ) ;
#695 = ORIENTED_EDGE ( 'NONE', *, *, #764, .F. ) ;
#696 = CARTESIAN_POINT ( 'NONE',  ( 105.0000000000000284, 0.000000000000000000, 112.5000000000000000 ) ) ;
#697 = EDGE_CURVE ( 'NONE', #240, #355, #828, .T. ) ;
#698 = PRODUCT ( 'Solenoid mount', 'Solenoid mount', '', ( #780 ) ) ;
#699 = AXIS2_PLACEMENT_3D ( 'NONE', #492, #642, #495 ) ;
#700 = ORIENTED_EDGE ( 'NONE', *, *, #468, .T. ) ;
#701 = CARTESIAN_POINT ( 'NONE',  ( 105.0000000000000284, 15.00000000000000000, 122.5000000000000000 ) ) ;
#702 = CARTESIAN_POINT ( 'NONE',  ( 94.99999999999998579, 38.00000000000001421, 112.5000000000000000 ) ) ;
#703 = CARTESIAN_POINT ( 'NONE',  ( 94.99999999999998579, 22.00000000000001421, 89.71500000000000341 ) ) ;
#704 = EDGE_LOOP ( 'NONE', ( #333, #55 ) ) ;
#705 = CARTESIAN_POINT ( 'NONE',  ( 105.0000000000000284, 22.00000000000000000, 114.5000000000000000 ) ) ;
#706 = DIRECTION ( 'NONE',  ( 0.000000000000000000, 0.000000000000000000, -1.000000000000000000 ) ) ;
#707 = ORIENTED_EDGE ( 'NONE', *, *, #878, .F. ) ;
#708 = CIRCLE ( 'NONE', #834, 3.934999999999994280 ) ;
#709 = ADVANCED_FACE ( 'NONE', ( #193, #284, #46 ), #442, .T. ) ;
#710 = DIRECTION ( 'NONE',  ( 0.000000000000000000, 0.000000000000000000, -1.000000000000000000 ) ) ;
#711 =( LENGTH_UNIT ( ) NAMED_UNIT ( * ) SI_UNIT ( .MILLI., .METRE. ) );
#712 = DIRECTION ( 'NONE',  ( 1.000000000000000000, -0.000000000000000000, 0.000000000000000000 ) ) ;
#713 = EDGE_CURVE ( 'NONE', #817, #402, #345, .T. ) ;
#714 = EDGE_CURVE ( 'NONE', #744, #839, #134, .T. ) ;
#715 = CYLINDRICAL_SURFACE ( 'NONE', #490, 3.934999999999994280 ) ;
#716 = VECTOR ( 'NONE', #608, 1000.000000000000000 ) ;
#717 = ADVANCED_FACE ( 'NONE', ( #125, #587 ), #291, .F. ) ;
#718 = CIRCLE ( 'NONE', #635, 1.649999999999998579 ) ;
#719 = CARTESIAN_POINT ( 'NONE',  ( 99.99999999999998579, 15.00000000000000000, 84.15000000000004832 ) ) ;
#720 = LINE ( 'NONE', #410, #191 ) ;
#721 = LINE ( 'NONE', #958, #640 ) ;
#722 = EDGE_CURVE ( 'NONE', #885, #32, #745, .T. ) ;
#723 = EDGE_CURVE ( 'NONE', #45, #547, #600, .T. ) ;
#724 = DIRECTION ( 'NONE',  ( 0.000000000000000000, 3.469446951953616161E-16, -1.000000000000000000 ) ) ;
#725 = VERTEX_POINT ( 'NONE', #806 ) ;
#726 = CARTESIAN_POINT ( 'NONE',  ( 94.99999999999998579, 33.13000000000000966, 106.3499999999999943 ) ) ;
#727 = FACE_OUTER_BOUND ( 'NONE', #557, .T. ) ;
#728 = CARTESIAN_POINT ( 'NONE',  ( 105.0000000000000284, 38.00000000000001421, 110.5000000000000000 ) ) ;
#729 = ORIENTED_EDGE ( 'NONE', *, *, #596, .F. ) ;
#730 = FILL_AREA_STYLE_COLOUR ( '', #753 ) ;
#731 = ORIENTED_EDGE ( 'NONE', *, *, #621, .F. ) ;
#732 = CARTESIAN_POINT ( 'NONE',  ( 105.0000000000000284, 18.00000000000000355, 120.5000000000000000 ) ) ;
#733 = DIRECTION ( 'NONE',  ( -0.000000000000000000, 1.000000000000000000, 0.000000000000000000 ) ) ;
#734 = EDGE_LOOP ( 'NONE', ( #897, #365 ) ) ;
#735 = EDGE_CURVE ( 'NONE', #649, #982, #131, .T. ) ;
#736 = CARTESIAN_POINT ( 'NONE',  ( 94.99999999999998579, 20.00000000000000355, 85.50000000000000000 ) ) ;
#737 = AXIS2_PLACEMENT_3D ( 'NONE', #974, #659, #527 ) ;
#738 = ORIENTED_EDGE ( 'NONE', *, *, #723, .F. ) ;
#739 = CARTESIAN_POINT ( 'NONE',  ( 105.0000000000000284, 38.00000000000001421, 112.5000000000000000 ) ) ;
#740 = EDGE_CURVE ( 'NONE', #841, #211, #809, .T. ) ;
#741 = AXIS2_PLACEMENT_3D ( 'NONE', #337, #952, #804 ) ;
#742 = CARTESIAN_POINT ( 'NONE',  ( 99.99999999999998579, 40.00100000000001899, 84.15000000000004832 ) ) ;
#743 = ORIENTED_EDGE ( 'NONE', *, *, #542, .F. ) ;
#744 = VERTEX_POINT ( 'NONE', #295 ) ;
#745 = LINE ( 'NONE', #68, #560 ) ;
#746 = CARTESIAN_POINT ( 'NONE',  ( 94.99999999999998579, 22.00000000000000000, 114.5000000000000000 ) ) ;
#747 = EDGE_CURVE ( 'NONE', #22, #482, #222, .T. ) ;
#748 = EDGE_CURVE ( 'NONE', #211, #69, #85, .T. ) ;
#749 = ORIENTED_EDGE ( 'NONE', *, *, #713, .T. ) ;
#750 = CARTESIAN_POINT ( 'NONE',  ( 94.99999999999998579, 0.000000000000000000, 87.50000000000001421 ) ) ;
#751 = ORIENTED_EDGE ( 'NONE', *, *, #35, .F. ) ;
#752 = FACE_OUTER_BOUND ( 'NONE', #585, .T. ) ;
#753 = COLOUR_RGB ( '',0.7921568627450980005, 0.8196078431372548767, 0.9333333333333333481 ) ;
#754 = ORIENTED_EDGE ( 'NONE', *, *, #42, .T. ) ;
#755 = CIRCLE ( 'NONE', #332, 2.225000000000004974 ) ;
#756 = CARTESIAN_POINT ( 'NONE',  ( 99.99999999999998579, 22.00000000000001421, 89.71500000000000341 ) ) ;
#757 = FACE_OUTER_BOUND ( 'NONE', #507, .T. ) ;
#758 = ORIENTED_EDGE ( 'NONE', *, *, #15, .T. ) ;
#759 = DIRECTION ( 'NONE',  ( 0.000000000000000000, 0.000000000000000000, 1.000000000000000000 ) ) ;
#760 = ORIENTED_EDGE ( 'NONE', *, *, #335, .F. ) ;
#761 = DIRECTION ( 'NONE',  ( 0.000000000000000000, 0.000000000000000000, 1.000000000000000000 ) ) ;
#762 = DIRECTION ( 'NONE',  ( 0.000000000000000000, 0.000000000000000000, -1.000000000000000000 ) ) ;
#763 = ORIENTED_EDGE ( 'NONE', *, *, #634, .F. ) ;
#764 = EDGE_CURVE ( 'NONE', #482, #817, #373, .T. ) ;
#765 = DIRECTION ( 'NONE',  ( 1.000000000000000000, -0.000000000000000000, 0.000000000000000000 ) ) ;
#766 = EDGE_LOOP ( 'NONE', ( #178, #214, #67, #86 ) ) ;
#767 = FACE_OUTER_BOUND ( 'NONE', #851, .T. ) ;
#768 = AXIS2_PLACEMENT_3D ( 'NONE', #234, #530, #838 ) ;
#769 = VECTOR ( 'NONE', #692, 1000.000000000000000 ) ;
#770 = LINE ( 'NONE', #98, #181 ) ;
#771 = ORIENTED_EDGE ( 'NONE', *, *, #446, .F. ) ;
#772 = DIRECTION ( 'NONE',  ( 1.000000000000000000, 0.000000000000000000, 0.000000000000000000 ) ) ;
#773 = ORIENTED_EDGE ( 'NONE', *, *, #907, .F. ) ;
#774 = DIRECTION ( 'NONE',  ( -1.000000000000000000, 0.000000000000000000, 0.000000000000000000 ) ) ;
#775 = AXIS2_PLACEMENT_3D ( 'NONE', #592, #577, #892 ) ;
#776 = LINE ( 'NONE', #831, #979 ) ;
#777 = CARTESIAN_POINT ( 'NONE',  ( 94.99999999999998579, 40.00000000000001421, 0.000000000000000000 ) ) ;
#778 = ORIENTED_EDGE ( 'NONE', *, *, #287, .F. ) ;
#779 = CARTESIAN_POINT ( 'NONE',  ( 99.99999999999998579, 33.13000000000000966, 106.3499999999999943 ) ) ;
#780 = PRODUCT_CONTEXT ( 'NONE', #44, 'mechanical' ) ;
#781 = FACE_OUTER_BOUND ( 'NONE', #766, .T. ) ;
#782 = EDGE_LOOP ( 'NONE', ( #544, #231, #393, #471, #308, #323, #145, #431, #290, #242, #351, #805, #695, #150 ) ) ;
#783 = DIRECTION ( 'NONE',  ( 1.000000000000000000, -0.000000000000000000, 0.000000000000000000 ) ) ;
#784 = VECTOR ( 'NONE', #153, 1000.000000000000000 ) ;
#785 = DIRECTION ( 'NONE',  ( 0.000000000000000000, 0.000000000000000000, -1.000000000000000000 ) ) ;
#786 = FACE_OUTER_BOUND ( 'NONE', #397, .T. ) ;
#787 = LINE ( 'NONE', #112, #928 ) ;
#788 = CARTESIAN_POINT ( 'NONE',  ( 105.0000000000000284, 40.00000000000001421, 0.000000000000000000 ) ) ;
#789 = VECTOR ( 'NONE', #196, 1000.000000000000000 ) ;
#790 = EDGE_CURVE ( 'NONE', #2, #660, #770, .T. ) ;
#791 = CARTESIAN_POINT ( 'NONE',  ( 0.000000000000000000, 0.000000000000000000, 0.000000000000000000 ) ) ;
#792 = DIRECTION ( 'NONE',  ( 1.000000000000000000, -0.000000000000000000, 0.000000000000000000 ) ) ;
#793 = LINE ( 'NONE', #268, #618 ) ;
#794 = AXIS2_PLACEMENT_3D ( 'NONE', #353, #972, #124 ) ;
#795 = DIRECTION ( 'NONE',  ( 0.000000000000000000, 0.000000000000000000, 1.000000000000000000 ) ) ;
#796 = CIRCLE ( 'NONE', #370, 3.934999999999994280 ) ;
#797 = CARTESIAN_POINT ( 'NONE',  ( 99.99999999999998579, 33.13000000000000966, 106.3499999999999943 ) ) ;
#798 = AXIS2_PLACEMENT_3D ( 'NONE', #162, #856, #536 ) ;
#799 = CARTESIAN_POINT ( 'NONE',  ( 99.99999999999998579, 40.00100000000001899, 117.4999999999999716 ) ) ;
#800 = DIRECTION ( 'NONE',  ( -1.000000000000000000, 0.000000000000000000, 0.000000000000000000 ) ) ;
#801 = EDGE_LOOP ( 'NONE', ( #911, #247, #926, #147 ) ) ;
#802 = CARTESIAN_POINT ( 'NONE',  ( 105.0000000000000284, 0.000000000000000000, 0.000000000000000000 ) ) ;
#803 = ORIENTED_EDGE ( 'NONE', *, *, #203, .T. ) ;
#804 = DIRECTION ( 'NONE',  ( 1.000000000000000000, 0.000000000000000000, -0.000000000000000000 ) ) ;
#805 = ORIENTED_EDGE ( 'NONE', *, *, #122, .T. ) ;
#806 = CARTESIAN_POINT ( 'NONE',  ( 99.99999999999998579, 33.13000000000000966, 108.5750000000000028 ) ) ;
#807 = CARTESIAN_POINT ( 'NONE',  ( 94.99999999999998579, 22.00000000000000355, 87.50000000000001421 ) ) ;
#808 = AXIS2_PLACEMENT_3D ( 'NONE', #448, #72, #594 ) ;
#809 = CIRCLE ( 'NONE', #429, 2.000000000000001776 ) ;
#810 = AXIS2_PLACEMENT_3D ( 'NONE', #151, #168, #541 ) ;
#811 = ADVANCED_FACE ( 'NONE', ( #518 ), #824, .F. ) ;
#812 = ORIENTED_EDGE ( 'NONE', *, *, #938, .F. ) ;
#813 = LINE ( 'NONE', #879, #524 ) ;
#814 = ORIENTED_EDGE ( 'NONE', *, *, #621, .T. ) ;
#815 = CARTESIAN_POINT ( 'NONE',  ( 99.99999999999998579, 20.00000000000000711, 84.15000000000004832 ) ) ;
#816 = CIRCLE ( 'NONE', #775, 1.649999999999998579 ) ;
#817 = VERTEX_POINT ( 'NONE', #591 ) ;
#818 = VERTEX_POINT ( 'NONE', #399 ) ;
#819 =( LENGTH_UNIT ( ) NAMED_UNIT ( * ) SI_UNIT ( .MILLI., .METRE. ) );
#820 = ORIENTED_EDGE ( 'NONE', *, *, #8, .T. ) ;
#821 = AXIS2_PLACEMENT_3D ( 'NONE', #732, #792, #950 ) ;
#822 = DIRECTION ( 'NONE',  ( -1.000000000000000000, 0.000000000000000000, 0.000000000000000000 ) ) ;
#823 = ORIENTED_EDGE ( 'NONE', *, *, #578, .F. ) ;
#824 = CYLINDRICAL_SURFACE ( 'NONE', #808, 1.649999999999998579 ) ;
#825 = ORIENTED_EDGE ( 'NONE', *, *, #468, .F. ) ;
#826 = LINE ( 'NONE', #914, #95 ) ;
#827 = EDGE_CURVE ( 'NONE', #211, #528, #307, .T. ) ;
#828 = CIRCLE ( 'NONE', #51, 1.649999999999998579 ) ;
#829 = ORIENTED_EDGE ( 'NONE', *, *, #735, .F. ) ;
#830 = DIRECTION ( 'NONE',  ( 0.000000000000000000, 0.000000000000000000, -1.000000000000000000 ) ) ;
#831 = CARTESIAN_POINT ( 'NONE',  ( 105.0000000000000284, 18.00000000000000355, 122.5000000000000000 ) ) ;
#832 = EDGE_LOOP ( 'NONE', ( #278, #11, #289, #49 ) ) ;
#833 = DIRECTION ( 'NONE',  ( 0.000000000000000000, 0.000000000000000000, -1.000000000000000000 ) ) ;
#834 = AXIS2_PLACEMENT_3D ( 'NONE', #104, #765, #406 ) ;
#835 = ORIENTED_EDGE ( 'NONE', *, *, #195, .F. ) ;
#836 = CARTESIAN_POINT ( 'NONE',  ( 94.99999999999998579, 40.00000000000001421, 89.50000000000001421 ) ) ;
#837 = EDGE_CURVE ( 'NONE', #385, #669, #209, .T. ) ;
#838 = DIRECTION ( 'NONE',  ( 0.000000000000000000, 0.000000000000000000, 1.000000000000000000 ) ) ;
#839 = VERTEX_POINT ( 'NONE', #702 ) ;
#840 = DIRECTION ( 'NONE',  ( 0.000000000000000000, 1.000000000000000000, 0.000000000000000000 ) ) ;
#841 = VERTEX_POINT ( 'NONE', #163 ) ;
#842 = FACE_OUTER_BOUND ( 'NONE', #225, .T. ) ;
#843 = CARTESIAN_POINT ( 'NONE',  ( 105.0000000000000284, 38.00000000000001421, 110.5000000000000000 ) ) ;
#844 = ORIENTED_EDGE ( 'NONE', *, *, #262, .F. ) ;
#845 = CARTESIAN_POINT ( 'NONE',  ( 99.99999999999998579, 33.13000000000000966, 104.1250000000000000 ) ) ;
#846 = EDGE_LOOP ( 'NONE', ( #729, #576 ) ) ;
#847 = CARTESIAN_POINT ( 'NONE',  ( 94.99999999999998579, 18.00000000000001066, 79.50000000000001421 ) ) ;
#848 = CIRCLE ( 'NONE', #951, 3.934999999999994280 ) ;
#849 = VECTOR ( 'NONE', #774, 1000.000000000000000 ) ;
#850 = CARTESIAN_POINT ( 'NONE',  ( 105.0000000000000284, 0.000000000000000000, 87.50000000000001421 ) ) ;
#851 = EDGE_LOOP ( 'NONE', ( #154, #522, #228, #305 ) ) ;
#852 = EDGE_CURVE ( 'NONE', #360, #841, #776, .T. ) ;
#853 = LINE ( 'NONE', #777, #341 ) ;
#854 = VERTEX_POINT ( 'NONE', #908 ) ;
#855 = AXIS2_PLACEMENT_3D ( 'NONE', #614, #244, #91 ) ;
#856 = DIRECTION ( 'NONE',  ( -1.000000000000000000, 0.000000000000000000, -0.000000000000000000 ) ) ;
#857 = VECTOR ( 'NONE', #500, 1000.000000000000000 ) ;
#858 = CARTESIAN_POINT ( 'NONE',  ( 105.0000000000000284, 0.000000000000000000, 122.5000000000000000 ) ) ;
#859 = DIRECTION ( 'NONE',  ( 0.000000000000000000, 0.000000000000000000, -1.000000000000000000 ) ) ;
#860 = PRODUCT_DEFINITION ( 'UNKNOWN', '', #521, #101 ) ;
#861 = EDGE_LOOP ( 'NONE', ( #208, #24 ) ) ;
#862 = FACE_BOUND ( 'NONE', #934, .T. ) ;
#863 = CARTESIAN_POINT ( 'NONE',  ( 105.0000000000000284, 20.00000000000000000, 114.5000000000000000 ) ) ;
#864 = DIRECTION ( 'NONE',  ( 0.000000000000000000, 0.000000000000000000, -1.000000000000000000 ) ) ;
#865 = ADVANCED_FACE ( 'NONE', ( #675 ), #688, .T. ) ;
#866 = ADVANCED_FACE ( 'NONE', ( #757 ), #537, .T. ) ;
#867 = DIRECTION ( 'NONE',  ( 1.000000000000000000, -0.000000000000000000, 0.000000000000000000 ) ) ;
#868 = AXIS2_PLACEMENT_3D ( 'NONE', #670, #505, #210 ) ;
#869 = DIRECTION ( 'NONE',  ( 1.000000000000000000, -0.000000000000000000, -0.000000000000000000 ) ) ;
#870 = CARTESIAN_POINT ( 'NONE',  ( 99.99999999999998579, 33.13000000000000966, 110.2849999999999966 ) ) ;
#871 = PRODUCT_RELATED_PRODUCT_CATEGORY ( 'part', '', ( #698 ) ) ;
#872 = CIRCLE ( 'NONE', #316, 3.934999999999994280 ) ;
#873 = FACE_OUTER_BOUND ( 'NONE', #906, .T. ) ;
#874 = AXIS2_PLACEMENT_3D ( 'NONE', #949, #420, #965 ) ;
#875 = ADVANCED_FACE ( 'NONE', ( #79 ), #301, .F. ) ;
#876 = APPLICATION_PROTOCOL_DEFINITION ( 'draft international standard', 'automotive_design', 1998, #266 ) ;
#877 = CARTESIAN_POINT ( 'NONE',  ( 94.99999999999998579, 0.000000000000000000, 77.50000000000001421 ) ) ;
#878 = EDGE_CURVE ( 'NONE', #60, #173, #615, .T. ) ;
#879 = CARTESIAN_POINT ( 'NONE',  ( 105.0000000000000284, 22.00000000000001421, 95.87500000000000000 ) ) ;
#880 = CARTESIAN_POINT ( 'NONE',  ( 94.99999999999998579, 0.000000000000000000, 112.5000000000000000 ) ) ;
#881 = DIRECTION ( 'NONE',  ( 0.000000000000000000, 0.000000000000000000, -1.000000000000000000 ) ) ;
#882 = STYLED_ITEM ( 'NONE', ( #61 ), #652 ) ;
#883 = ORIENTED_EDGE ( 'NONE', *, *, #414, .F. ) ;
#884 =( NAMED_UNIT ( * ) SI_UNIT ( $, .STERADIAN. ) SOLID_ANGLE_UNIT ( ) );
#885 = VERTEX_POINT ( 'NONE', #918 ) ;
#886 = ADVANCED_FACE ( 'NONE', ( #925 ), #933, .F. ) ;
#887 = AXIS2_PLACEMENT_3D ( 'NONE', #686, #548, #312 ) ;
#888 = CARTESIAN_POINT ( 'NONE',  ( 94.99999999999998579, 15.00000000000000000, 77.50000000000001421 ) ) ;
#889 = ORIENTED_EDGE ( 'NONE', *, *, #604, .T. ) ;
#890 = DIRECTION ( 'NONE',  ( 1.000000000000000000, -0.000000000000000000, -0.000000000000000000 ) ) ;
#891 = ORIENTED_EDGE ( 'NONE', *, *, #465, .F. ) ;
#892 = DIRECTION ( 'NONE',  ( 0.000000000000000000, 0.000000000000000000, 1.000000000000000000 ) ) ;
#893 = ADVANCED_FACE ( 'NONE', ( #543 ), #169, .F. ) ;
#894 = EDGE_CURVE ( 'NONE', #593, #349, #848, .T. ) ;
#895 = ORIENTED_EDGE ( 'NONE', *, *, #722, .F. ) ;
#896 =( NAMED_UNIT ( * ) PLANE_ANGLE_UNIT ( ) SI_UNIT ( $, .RADIAN. ) );
#897 = ORIENTED_EDGE ( 'NONE', *, *, #578, .T. ) ;
#898 = CARTESIAN_POINT ( 'NONE',  ( 94.99999999999998579, 20.00000000000000000, 114.5000000000000000 ) ) ;
#899 = AXIS2_PLACEMENT_3D ( 'NONE', #251, #175, #326 ) ;
#900 = EDGE_LOOP ( 'NONE', ( #141, #605, #255, #320 ) ) ;
#901 = CARTESIAN_POINT ( 'NONE',  ( 99.99999999999998579, 20.00000000000000000, 117.4999999999999716 ) ) ;
#902 = DIRECTION ( 'NONE',  ( 0.000000000000000000, 0.000000000000000000, -1.000000000000000000 ) ) ;
#903 = VERTEX_POINT ( 'NONE', #179 ) ;
#904 = DIRECTION ( 'NONE',  ( -1.000000000000000000, -0.000000000000000000, -0.000000000000000000 ) ) ;
#905 = VECTOR ( 'NONE', #840, 1000.000000000000000 ) ;
#906 = EDGE_LOOP ( 'NONE', ( #437, #685, #707, #663 ) ) ;
#907 = EDGE_CURVE ( 'NONE', #173, #854, #116, .T. ) ;
#908 = CARTESIAN_POINT ( 'NONE',  ( 105.0000000000000284, 20.00000000000000711, 79.50000000000001421 ) ) ;
#909 = EDGE_LOOP ( 'NONE', ( #803, #440 ) ) ;
#910 = CARTESIAN_POINT ( 'NONE',  ( 94.99999999999998579, 20.00000000000000000, 114.5000000000000000 ) ) ;
#911 = ORIENTED_EDGE ( 'NONE', *, *, #223, .F. ) ;
#912 = DIRECTION ( 'NONE',  ( 1.000000000000000000, 0.000000000000000000, -0.000000000000000000 ) ) ;
#913 = EDGE_LOOP ( 'NONE', ( #985, #204, #682, #285 ) ) ;
#914 = CARTESIAN_POINT ( 'NONE',  ( 105.0000000000000284, 40.00000000000001421, 110.5000000000000000 ) ) ;
#915 = AXIS2_PLACEMENT_3D ( 'NONE', #797, #961, #902 ) ;
#916 = EDGE_LOOP ( 'NONE', ( #773, #630, #311, #161 ) ) ;
#917 = DIRECTION ( 'NONE',  ( 0.000000000000000000, 0.000000000000000000, -1.000000000000000000 ) ) ;
#918 = CARTESIAN_POINT ( 'NONE',  ( 105.0000000000000284, 40.00000000000001421, 89.50000000000001421 ) ) ;
#919 = EDGE_LOOP ( 'NONE', ( #28, #441, #743, #517 ) ) ;
#920 = DIRECTION ( 'NONE',  ( 1.000000000000000000, 0.000000000000000000, -0.000000000000000000 ) ) ;
#921 = EDGE_CURVE ( 'NONE', #540, #280, #338, .T. ) ;
#922 = ADVANCED_FACE ( 'NONE', ( #862, #103, #631 ), #26, .F. ) ;
#923 = EDGE_LOOP ( 'NONE', ( #883, #689 ) ) ;
#924 = CARTESIAN_POINT ( 'NONE',  ( 99.99999999999998579, 33.13000000000000966, 106.3499999999999943 ) ) ;
#925 = FACE_OUTER_BOUND ( 'NONE', #900, .T. ) ;
#926 = ORIENTED_EDGE ( 'NONE', *, *, #245, .T. ) ;
#927 = DIRECTION ( 'NONE',  ( -1.000000000000000000, -0.000000000000000000, -0.000000000000000000 ) ) ;
#928 = VECTOR ( 'NONE', #265, 1000.000000000000000 ) ;
#929 = EDGE_CURVE ( 'NONE', #50, #22, #633, .T. ) ;
#930 = EDGE_CURVE ( 'NONE', #903, #249, #550, .T. ) ;
#931 = ORIENTED_EDGE ( 'NONE', *, *, #627, .F. ) ;
#932 = CARTESIAN_POINT ( 'NONE',  ( 105.0000000000000284, 20.00000000000000000, 120.5000000000000000 ) ) ;
#933 = CYLINDRICAL_SURFACE ( 'NONE', #768, 2.225000000000004974 ) ;
#934 = EDGE_LOOP ( 'NONE', ( #758, #80 ) ) ;
#935 = DIRECTION ( 'NONE',  ( 0.000000000000000000, 0.000000000000000000, -1.000000000000000000 ) ) ;
#936 = ORIENTED_EDGE ( 'NONE', *, *, #519, .T. ) ;
#937 = CARTESIAN_POINT ( 'NONE',  ( 105.0000000000000284, 33.13000000000000966, 106.3499999999999943 ) ) ;
#938 = EDGE_CURVE ( 'NONE', #616, #360, #182, .T. ) ;
#939 = CARTESIAN_POINT ( 'NONE',  ( 94.99999999999998579, 22.00000000000001421, 93.64999999999999147 ) ) ;
#940 = CARTESIAN_POINT ( 'NONE',  ( 105.0000000000000284, 33.13000000000000966, 106.3499999999999943 ) ) ;
#941 = VECTOR ( 'NONE', #864, 1000.000000000000000 ) ;
#942 = ORIENTED_EDGE ( 'NONE', *, *, #646, .T. ) ;
#943 = AXIS2_PLACEMENT_3D ( 'NONE', #924, #238, #318 ) ;
#944 = CYLINDRICAL_SURFACE ( 'NONE', #645, 2.000000000000001776 ) ;
#945 = LINE ( 'NONE', #555, #941 ) ;
#946 = ORIENTED_EDGE ( 'NONE', *, *, #534, .F. ) ;
#947 = DIRECTION ( 'NONE',  ( 0.000000000000000000, 0.000000000000000000, -1.000000000000000000 ) ) ;
#948 = APPLICATION_PROTOCOL_DEFINITION ( 'draft international standard', 'automotive_design', 1998, #44 ) ;
#949 = CARTESIAN_POINT ( 'NONE',  ( 99.99999999999998579, 20.00000000000000711, 82.50000000000004263 ) ) ;
#950 = DIRECTION ( 'NONE',  ( 0.000000000000000000, 0.000000000000000000, -1.000000000000000000 ) ) ;
#951 = AXIS2_PLACEMENT_3D ( 'NONE', #939, #867, #30 ) ;
#952 = DIRECTION ( 'NONE',  ( 0.000000000000000000, 0.000000000000000000, 1.000000000000000000 ) ) ;
#953 = ADVANCED_FACE ( 'NONE', ( #404 ), #944, .F. ) ;
#954 = EDGE_CURVE ( 'NONE', #402, #885, #65, .T. ) ;
#955 = CIRCLE ( 'NONE', #562, 1.649999999999998579 ) ;
#956 = CARTESIAN_POINT ( 'NONE',  ( 105.0000000000000284, 15.00000000000000000, 0.000000000000000000 ) ) ;
#957 = CIRCLE ( 'NONE', #516, 2.225000000000004974 ) ;
#958 = CARTESIAN_POINT ( 'NONE',  ( 99.99999999999998579, 22.00000000000001421, 97.58499999999999375 ) ) ;
#959 = DIRECTION ( 'NONE',  ( 1.000000000000000000, -0.000000000000000000, 0.000000000000000000 ) ) ;
#960 = EDGE_LOOP ( 'NONE', ( #317, #273, #678, #771 ) ) ;
#961 = DIRECTION ( 'NONE',  ( 1.000000000000000000, -0.000000000000000000, 0.000000000000000000 ) ) ;
#962 = ORIENTED_EDGE ( 'NONE', *, *, #414, .T. ) ;
#963 = AXIS2_PLACEMENT_3D ( 'NONE', #726, #648, #502 ) ;
#964 = LINE ( 'NONE', #346, #359 ) ;
#965 = DIRECTION ( 'NONE',  ( 0.000000000000000000, 0.000000000000000000, -1.000000000000000000 ) ) ;
#966 = CIRCLE ( 'NONE', #197, 2.225000000000004974 ) ;
#967 = ORIENTED_EDGE ( 'NONE', *, *, #194, .T. ) ;
#968 = DIRECTION ( 'NONE',  ( 0.000000000000000000, 0.000000000000000000, 1.000000000000000000 ) ) ;
#969 = ORIENTED_EDGE ( 'NONE', *, *, #713, .F. ) ;
#970 = EDGE_CURVE ( 'NONE', #839, #377, #493, .T. ) ;
#971 = CARTESIAN_POINT ( 'NONE',  ( 105.0000000000000284, 33.13000000000000966, 108.5750000000000028 ) ) ;
#972 = DIRECTION ( 'NONE',  ( 1.000000000000000000, -0.000000000000000000, 0.000000000000000000 ) ) ;
#973 = DIRECTION ( 'NONE',  ( -1.000000000000000000, -0.000000000000000000, -0.000000000000000000 ) ) ;
#974 = CARTESIAN_POINT ( 'NONE',  ( 99.99999999999998579, 22.00000000000001421, 93.64999999999999147 ) ) ;
#975 = EDGE_CURVE ( 'NONE', #526, #45, #793, .T. ) ;
#976 = ORIENTED_EDGE ( 'NONE', *, *, #364, .F. ) ;
#977 = ORIENTED_EDGE ( 'NONE', *, *, #954, .F. ) ;
#978 = DIRECTION ( 'NONE',  ( 0.000000000000000000, -3.469446951953616161E-16, 1.000000000000000000 ) ) ;
#979 = VECTOR ( 'NONE', #239, 1000.000000000000000 ) ;
#980 = VECTOR ( 'NONE', #5, 1000.000000000000000 ) ;
#981 = EDGE_CURVE ( 'NONE', #669, #240, #720, .T. ) ;
#982 = VERTEX_POINT ( 'NONE', #863 ) ;
#983 = FILL_AREA_STYLE ('',( #730 ) ) ;
#984 = CARTESIAN_POINT ( 'NONE',  ( 99.99999999999998579, 20.00000000000000000, 115.8499999999999659 ) ) ;
#985 = ORIENTED_EDGE ( 'NONE', *, *, #42, .F. ) ;
ENDSEC;
END-ISO-10303-21;
